<?xml version="1.0" encoding="UTF-8"?>
<!DOCTYPE svg PUBLIC "-//W3C//DTD SVG 1.1//EN" "http://www.w3.org/Graphics/SVG/1.1/DTD/svg11.dtd">
<svg xmlns="http://www.w3.org/2000/svg" xmlns:xlink="http://www.w3.org/1999/xlink" version="1.1" width="952px" height="422px" viewBox="-0.5 -0.5 952 422"><defs/><g><rect x="210" y="0" width="520" height="30" fill="none" stroke="none" pointer-events="all"/><g transform="translate(-0.5 -0.5)"><switch><foreignObject pointer-events="none" width="100%" height="100%" requiredFeatures="http://www.w3.org/TR/SVG11/feature#Extensibility" style="overflow: visible; text-align: left;"><div xmlns="http://www.w3.org/1999/xhtml" style="display: flex; align-items: unsafe center; justify-content: unsafe center; width: 1px; height: 1px; padding-top: 15px; margin-left: 470px;"><div data-drawio-colors="color: #4f46e5; " style="box-sizing: border-box; font-size: 0px; text-align: center;"><div style="display: inline-block; font-size: 16px; font-family: Helvetica; color: rgb(79, 70, 229); line-height: 1.2; pointer-events: all; font-weight: bold; white-space: nowrap;">Multimodal GenAI — Crossmodal Embeddings, RAG &amp; Generation</div></div></div></foreignObject><text x="470" y="20" fill="#4f46e5" font-family="Helvetica" font-size="16px" text-anchor="middle" font-weight="bold">Multimodal GenAI — Crossmodal Embeddings, RAG &amp; Generation</text></switch></g><rect x="0" y="40" width="100" height="20" fill="none" stroke="none" pointer-events="all"/><g transform="translate(-0.5 -0.5)"><switch><foreignObject pointer-events="none" width="100%" height="100%" requiredFeatures="http://www.w3.org/TR/SVG11/feature#Extensibility" style="overflow: visible; text-align: left;"><div xmlns="http://www.w3.org/1999/xhtml" style="display: flex; align-items: unsafe center; justify-content: unsafe flex-start; width: 1px; height: 1px; padding-top: 50px; margin-left: 2px;"><div data-drawio-colors="color: #64748b; " style="box-sizing: border-box; font-size: 0px; text-align: left;"><div style="display: inline-block; font-size: 10px; font-family: Helvetica; color: rgb(100, 116, 139); line-height: 1.2; pointer-events: all; font-weight: bold; white-space: nowrap;">INDEXING</div></div></div></foreignObject><text x="2" y="53" fill="#64748b" font-family="Helvetica" font-size="10px" font-weight="bold">INDEXING</text></switch></g><rect x="0" y="65" width="170" height="60" rx="9" ry="9" fill="none" stroke="none" pointer-events="all"/><path d="M 2.5 66.97 C 2.5 66.97 2.5 66.97 2.5 66.97 M 2.5 66.97 C 2.5 66.97 2.5 66.97 2.5 66.97 M 0.92 74.87 C 0.86 70.12 8.11 68.17 9.45 65.06 M 0.92 74.87 C 4.41 72.11 5.56 69.31 9.45 65.06 M 0.66 81.27 C -0.11 82.09 3.29 71.37 14.44 65.42 M 0.66 81.27 C 3.84 76.83 7.27 72.73 14.44 65.42 M 1.06 86.91 C 8.84 85.5 8.96 79.56 20.08 65.03 M 1.06 86.91 C 6.98 83.12 11.55 75.74 20.08 65.03 M 0.8 93.31 C 4.9 84.51 12.89 80.39 25.07 65.39 M 0.8 93.31 C 6.08 85.84 12.5 80.79 25.07 65.39 M 1.19 98.95 C 13.72 87.13 21.96 76.87 30.71 64.99 M 1.19 98.95 C 12.42 85.18 21.94 76.21 30.71 64.99 M 0.93 105.35 C 7.92 99.31 15.98 88.6 35.7 65.35 M 0.93 105.35 C 13.97 90.22 26.91 72.69 35.7 65.35 M 0.67 111.75 C 13.02 101.19 18.66 91.67 40.69 65.71 M 0.67 111.75 C 13.73 96.61 24.97 82.94 40.69 65.71 M 1.06 117.39 C 17.2 98.9 24.67 85.96 46.33 65.32 M 1.06 117.39 C 16.45 99.64 33.8 82 46.33 65.32 M 2.77 121.53 C 13.94 105.83 28.42 92.57 51.32 65.68 M 2.77 121.53 C 13.48 108.77 26.3 92.8 51.32 65.68 M 5.13 124.91 C 18.42 106.52 28.51 99.98 56.96 65.28 M 5.13 124.91 C 26.14 99.75 47.44 80.53 56.96 65.28 M 10.77 124.51 C 24.76 103.37 38.76 86.39 61.95 65.64 M 10.77 124.51 C 30.78 102.37 48.9 77.7 61.95 65.64 M 15.76 124.87 C 27.93 108.38 43.3 98.88 67.59 65.25 M 15.76 124.87 C 34.2 103.59 51.72 82.2 67.59 65.25 M 21.4 124.48 C 35.44 109.96 49.4 85.45 72.58 65.61 M 21.4 124.48 C 40.05 101.32 62.06 78.02 72.58 65.61 M 26.39 124.84 C 49.17 105.32 65.68 79.84 78.22 65.21 M 26.39 124.84 C 42.95 105.47 63.39 82.9 78.22 65.21 M 32.03 124.44 C 53.1 100.13 69.85 83.92 83.21 65.57 M 32.03 124.44 C 49.17 104.76 68.44 81.71 83.21 65.57 M 37.02 124.8 C 57.22 102.74 76.39 83.31 88.85 65.18 M 37.02 124.8 C 49.81 109.58 63.39 92.75 88.85 65.18 M 42.01 125.16 C 50.27 114.84 59.53 96.64 93.84 65.54 M 42.01 125.16 C 57.84 109.19 67.03 95.09 93.84 65.54 M 47.65 124.77 C 64.09 107.05 71.57 97.88 98.82 65.9 M 47.65 124.77 C 62.33 106.31 79.99 88.2 98.82 65.9 M 52.64 125.13 C 66.2 109.46 85.64 85.86 104.47 65.51 M 52.64 125.13 C 67.21 105.9 84.44 86.87 104.47 65.51 M 58.28 124.73 C 74.69 110.18 86.15 89.95 109.45 65.87 M 58.28 124.73 C 72.34 107.68 89.14 92.06 109.45 65.87 M 63.27 125.09 C 85.37 100.9 101.58 75.98 115.1 65.47 M 63.27 125.09 C 77.04 110.76 90.69 98.05 115.1 65.47 M 68.91 124.7 C 91.33 99.48 107.42 76.64 120.08 65.83 M 68.91 124.7 C 86.95 102.72 108.98 77 120.08 65.83 M 73.9 125.06 C 97.49 99.07 116.53 80.55 125.73 65.44 M 73.9 125.06 C 90.87 103.63 110.89 80.88 125.73 65.44 M 79.54 124.66 C 96.34 105.64 119.75 78.7 130.71 65.8 M 79.54 124.66 C 99.71 100.34 119.41 76.47 130.71 65.8 M 84.53 125.02 C 101.8 102.07 114.9 87.14 136.36 65.4 M 84.53 125.02 C 94.51 113.46 106.19 101.12 136.36 65.4 M 90.17 124.63 C 101.99 114.39 113.58 102.86 141.34 65.76 M 90.17 124.63 C 108.01 103.76 129.28 82.36 141.34 65.76 M 95.16 124.99 C 109.33 110.03 127.44 89.35 146.33 66.12 M 95.16 124.99 C 110.43 105.83 128.08 88.45 146.33 66.12 M 100.15 125.35 C 123.91 104.51 140.72 78.08 151.97 65.73 M 100.15 125.35 C 112.42 113.21 122.35 96.96 151.97 65.73 M 105.79 124.96 C 123.67 100.58 141.36 79.48 156.96 66.09 M 105.79 124.96 C 124.07 106.76 137.43 84.68 156.96 66.09 M 110.78 125.32 C 126.72 105.22 147.94 86.21 162.6 65.69 M 110.78 125.32 C 125.18 107.41 138.78 93.64 162.6 65.69 M 116.42 124.92 C 135.66 105.41 152.5 84.29 166.94 66.81 M 116.42 124.92 C 134.54 99.77 157 77.14 166.94 66.81 M 121.41 125.28 C 140.22 99.13 158.72 80.73 169.95 69.43 M 121.41 125.28 C 130.6 113.97 141.49 100.21 169.95 69.43 M 127.05 124.89 C 142.92 106.43 154.16 88.2 171.01 74.32 M 127.05 124.89 C 142.2 106.63 156.3 89.1 171.01 74.32 M 132.04 125.25 C 141.59 107.75 154.21 95.28 170.74 80.72 M 132.04 125.25 C 142.78 115.83 148.4 103.89 170.74 80.72 M 137.68 124.85 C 144.2 115.89 159.77 102.82 170.48 87.12 M 137.68 124.85 C 146.38 116.84 154.39 106.07 170.48 87.12 M 142.67 125.21 C 147.39 115.01 155.77 105.67 170.22 93.51 M 142.67 125.21 C 151.99 111.04 165.04 99.48 170.22 93.51 M 148.31 124.82 C 157.73 112.92 165.18 103.58 170.62 99.16 M 148.31 124.82 C 156.98 116.56 163.12 107.5 170.62 99.16 M 153.3 125.18 C 154.95 122.07 160.4 112.36 170.35 105.56 M 153.3 125.18 C 158.16 118.61 163.2 116.93 170.35 105.56 M 158.28 125.54 C 163.49 123.86 166.2 117.08 170.09 111.95 M 158.28 125.54 C 163.09 121.04 165.97 116.96 170.09 111.95 M 162.61 126.65 C 166.33 124.75 166.98 122.07 170.49 117.6 M 162.61 126.65 C 165.34 123.58 168.83 121.1 170.49 117.6" fill="none" stroke="#eef2ff" stroke-width="0.5" stroke-linejoin="round" stroke-linecap="round" stroke-miterlimit="10" pointer-events="all"/><path d="M 9 65 M 9 65 C 63.71 64.13 117.76 63.62 161 65 M 9 65 C 64.24 64.25 119.93 65.88 161 65 M 161 65 C 164.63 62.95 167.11 69.8 170 74 M 161 65 C 165.08 65.92 169.97 64.52 170 74 M 170 74 C 171.58 86.45 171.98 97.57 170 116 M 170 74 C 168.39 90.05 170.11 105.1 170 116 M 170 116 C 171.17 119.69 167.13 124.31 161 125 M 170 116 C 171.49 119.23 170.9 123.8 161 125 M 161 125 C 108.76 124.66 52.08 125.45 9 125 M 161 125 C 115.51 122.59 73.48 125.72 9 125 M 9 125 C 2.15 127.06 0.49 124.45 0 116 M 9 125 C 5.31 127.68 2.15 125.58 0 116 M 0 116 C -3.5 105.7 -1.51 93.11 0 74 M 0 116 C 1.33 103.97 -1.69 92.11 0 74 M 0 74 C -0.1 70.44 -0.15 66.22 9 65 M 0 74 C 3 68.54 5.46 64.13 9 65" fill="none" stroke="#4f46e5" stroke-linejoin="round" stroke-linecap="round" stroke-miterlimit="10" pointer-events="all"/><g transform="translate(-0.5 -0.5)"><switch><foreignObject pointer-events="none" width="100%" height="100%" requiredFeatures="http://www.w3.org/TR/SVG11/feature#Extensibility" style="overflow: visible; text-align: left;"><div xmlns="http://www.w3.org/1999/xhtml" style="display: flex; align-items: unsafe center; justify-content: unsafe center; width: 168px; height: 1px; padding-top: 95px; margin-left: 1px;"><div data-drawio-colors="color: #1e1b4b; " style="box-sizing: border-box; font-size: 0px; text-align: center;"><div style="display: inline-block; font-size: 12px; font-family: Helvetica; color: rgb(30, 27, 75); line-height: 1.2; pointer-events: all; white-space: normal; overflow-wrap: normal;">Mixed media:<br />docs, images, video, audio</div></div></div></foreignObject><text x="85" y="99" fill="#1e1b4b" font-family="Helvetica" font-size="12px" text-anchor="middle">Mixed media:...</text></switch></g><rect x="210" y="65" width="180" height="60" rx="9" ry="9" fill="none" stroke="none" pointer-events="all"/><path d="M 211.99 67.55 C 211.99 67.55 211.99 67.55 211.99 67.55 M 211.99 67.55 C 211.99 67.55 211.99 67.55 211.99 67.55 M 211.07 74.7 C 212.65 70.49 216.81 68.28 219.6 64.89 M 211.07 74.7 C 213.46 73.12 216.2 69.35 219.6 64.89 M 210.81 81.1 C 211.81 74.86 220.29 73.67 224.59 65.25 M 210.81 81.1 C 215.15 74.9 221.63 67.5 224.59 65.25 M 211.21 86.74 C 221.13 80.17 226.49 76.63 229.58 65.61 M 211.21 86.74 C 217.2 80.41 225.63 73.86 229.58 65.61 M 210.94 93.14 C 218.11 87.67 226.04 77.03 235.22 65.22 M 210.94 93.14 C 218.56 85.95 223.31 79.05 235.22 65.22 M 210.68 99.54 C 221.62 92.76 224.49 85.76 240.21 65.58 M 210.68 99.54 C 220.32 86.84 227.25 77.61 240.21 65.58 M 211.08 105.18 C 221.73 87.62 235.72 71.94 245.85 65.18 M 211.08 105.18 C 218.3 96.37 228.77 86.82 245.85 65.18 M 210.82 111.58 C 220.59 97.91 235.45 83.77 250.84 65.54 M 210.82 111.58 C 220.96 101.13 227.93 88.35 250.84 65.54 M 211.21 117.22 C 230.7 96.26 241.66 80.34 256.48 65.15 M 211.21 117.22 C 224.32 101.26 233.1 88.81 256.48 65.15 M 212.92 121.36 C 228.47 106.62 237.19 91.15 261.47 65.51 M 212.92 121.36 C 232.03 102.18 247.74 80.4 261.47 65.51 M 215.28 124.73 C 234.98 103.94 258.33 83.57 267.11 65.11 M 215.28 124.73 C 232.73 105.58 254.03 83.73 267.11 65.11 M 220.92 124.34 C 237.1 105.83 251.99 96.14 272.1 65.47 M 220.92 124.34 C 233.62 110.37 243.45 96.56 272.1 65.47 M 225.91 124.7 C 234.82 109.93 248.07 96.44 277.74 65.08 M 225.91 124.7 C 245.5 99.1 266.14 78.07 277.74 65.08 M 230.9 125.06 C 255.7 104.39 269.73 77.81 282.73 65.44 M 230.9 125.06 C 241.83 112.61 252.7 99.79 282.73 65.44 M 236.54 124.67 C 256.86 105.12 275.83 83.71 287.71 65.8 M 236.54 124.67 C 254.1 103.99 275.31 79.48 287.71 65.8 M 241.53 125.03 C 250.36 115.25 263.72 101.15 293.36 65.4 M 241.53 125.03 C 257.54 108.26 273.94 91.29 293.36 65.4 M 247.17 124.63 C 258.89 109.15 278.88 89.41 298.34 65.76 M 247.17 124.63 C 259.82 110.17 273.8 95.28 298.34 65.76 M 252.16 124.99 C 271.77 99.72 290.09 77.15 303.99 65.37 M 252.16 124.99 C 266.74 104.8 285.23 87.87 303.99 65.37 M 257.8 124.6 C 271.5 101.31 294.46 83.5 308.97 65.73 M 257.8 124.6 C 270.42 109.67 285.44 95.24 308.97 65.73 M 262.79 124.96 C 278.91 102.83 301.51 85.29 314.62 65.33 M 262.79 124.96 C 277.66 105.6 290.46 89.52 314.62 65.33 M 268.43 124.56 C 285.53 102.76 308.05 86.06 319.6 65.69 M 268.43 124.56 C 284.73 109.99 298.35 90.78 319.6 65.69 M 273.42 124.92 C 287.07 106 300.61 94.65 325.25 65.3 M 273.42 124.92 C 289.93 106.86 304.73 92.08 325.25 65.3 M 279.06 124.53 C 296.12 101.35 314.23 85.14 330.23 65.66 M 279.06 124.53 C 292.92 109.39 311.7 91.26 330.23 65.66 M 284.05 124.89 C 298.97 109.74 303.9 98.64 335.22 66.02 M 284.05 124.89 C 302.38 103.37 323.48 81.26 335.22 66.02 M 289.03 125.25 C 306.21 101.98 326.2 82.59 340.86 65.63 M 289.03 125.25 C 300.91 111.11 313.99 93.79 340.86 65.63 M 294.68 124.85 C 308.49 100.22 327.69 84.81 345.85 65.99 M 294.68 124.85 C 310.79 103.42 330.87 82.32 345.85 65.99 M 299.67 125.21 C 314.25 106.35 325.9 90.65 351.49 65.59 M 299.67 125.21 C 310.52 111.37 320.8 96.18 351.49 65.59 M 305.31 124.82 C 317.08 106.38 329.5 96.54 356.48 65.95 M 305.31 124.82 C 316.79 112.78 328.07 97.81 356.48 65.95 M 310.3 125.18 C 331.23 104.4 350.14 78.29 362.12 65.56 M 310.3 125.18 C 324.04 108.57 338.16 92.73 362.12 65.56 M 315.94 124.78 C 328.54 112.13 342.65 93.76 367.11 65.92 M 315.94 124.78 C 331.83 105.74 348.12 90.01 367.11 65.92 M 320.93 125.14 C 341.91 101.84 354.45 83.24 372.75 65.52 M 320.93 125.14 C 341.24 102.93 358.84 82.77 372.75 65.52 M 326.57 124.75 C 343.38 101.56 363.25 81.17 377.74 65.88 M 326.57 124.75 C 336.85 114.49 348.32 101.32 377.74 65.88 M 331.56 125.11 C 341.76 111.05 360.32 91.04 383.38 65.49 M 331.56 125.11 C 342.13 111 354.85 92.86 383.38 65.49 M 337.2 124.71 C 355.78 105.52 372.92 79.61 387.06 67.36 M 337.2 124.71 C 355.78 103.08 378.81 78.46 387.06 67.36 M 342.19 125.07 C 355.88 104.19 372.46 85.31 390.73 69.23 M 342.19 125.07 C 351.69 111.17 362.94 99.47 390.73 69.23 M 347.17 125.43 C 364.53 109.23 377.99 90.38 391.13 74.87 M 347.17 125.43 C 358.3 115.11 366.29 104.9 391.13 74.87 M 352.82 125.04 C 359.51 109.29 375.75 102.09 390.87 81.27 M 352.82 125.04 C 363.73 111.61 378.28 97.44 390.87 81.27 M 357.8 125.4 C 366.06 114.96 377.49 105.5 390.61 87.66 M 357.8 125.4 C 372.12 110.43 384.58 97.48 390.61 87.66 M 363.45 125.01 C 370.22 116.59 374.81 111.71 391 93.31 M 363.45 125.01 C 371.81 113.42 380.08 103.39 391 93.31 M 368.43 125.37 C 375.79 119.35 376.84 114.28 390.74 99.71 M 368.43 125.37 C 374.62 116.13 383.58 105.92 390.74 99.71 M 374.08 124.97 C 375 118.81 380.39 114.68 390.48 106.1 M 374.08 124.97 C 381.65 116.66 388.45 110.29 390.48 106.1 M 379.06 125.33 C 381.58 123.29 389.95 115.76 390.87 111.75 M 379.06 125.33 C 383.58 120.08 386.93 115.09 390.87 111.75 M 383.39 126.45 C 382.86 123.96 386.83 123.17 390.61 118.14 M 383.39 126.45 C 385.77 123.81 386.86 122.25 390.61 118.14" fill="none" stroke="#fff2cc" stroke-width="0.5" stroke-linejoin="round" stroke-linecap="round" stroke-miterlimit="10" pointer-events="all"/><path d="M 219 65 M 219 65 C 282.24 66.78 339.73 64.31 381 65 M 219 65 C 281.05 62.09 342.69 65.06 381 65 M 381 65 C 391 63.53 390.12 65.16 390 74 M 381 65 C 384.19 65.44 390.18 72.06 390 74 M 390 74 C 387.65 89.89 388.31 101.23 390 116 M 390 74 C 390.87 87.13 390.47 103.65 390 116 M 390 116 C 393.78 121.53 384.49 123.8 381 125 M 390 116 C 386.88 125.38 384.59 123.16 381 125 M 381 125 C 321.45 129.37 263.82 129.1 219 125 M 381 125 C 322.42 130.07 262.21 129.59 219 125 M 219 125 C 211.48 123.44 210.52 119.28 210 116 M 219 125 C 209.62 129.18 211.98 120.96 210 116 M 210 116 C 211.98 100.42 209.99 92.72 210 74 M 210 116 C 209.77 102.11 209.21 93.28 210 74 M 210 74 C 211.83 66.08 211.85 66.54 219 65 M 210 74 C 208.16 65.17 209.53 63.61 219 65" fill="none" stroke="#d6b656" stroke-linejoin="round" stroke-linecap="round" stroke-miterlimit="10" pointer-events="all"/><g transform="translate(-0.5 -0.5)"><switch><foreignObject pointer-events="none" width="100%" height="100%" requiredFeatures="http://www.w3.org/TR/SVG11/feature#Extensibility" style="overflow: visible; text-align: left;"><div xmlns="http://www.w3.org/1999/xhtml" style="display: flex; align-items: unsafe center; justify-content: unsafe center; width: 178px; height: 1px; padding-top: 95px; margin-left: 211px;"><div data-drawio-colors="color: #1e1b4b; " style="box-sizing: border-box; font-size: 0px; text-align: center;"><div style="display: inline-block; font-size: 12px; font-family: Helvetica; color: rgb(30, 27, 75); line-height: 1.2; pointer-events: all; white-space: normal; overflow-wrap: normal;">Bedrock Data Automation<br />/ FM parser</div></div></div></foreignObject><text x="300" y="99" fill="#1e1b4b" font-family="Helvetica" font-size="12px" text-anchor="middle">Bedrock Data Automation...</text></switch></g><rect x="430" y="65" width="180" height="60" rx="9" ry="9" fill="none" stroke="none" pointer-events="all"/><path d="M 432.43 67.05 C 432.43 67.05 432.43 67.05 432.43 67.05 M 432.43 67.05 C 432.43 67.05 432.43 67.05 432.43 67.05 M 430.85 74.95 C 432.51 71.94 437.65 67.79 439.38 65.14 M 430.85 74.95 C 433.84 71.7 433.97 70.36 439.38 65.14 M 431.25 80.6 C 438.56 80.64 436.23 69.84 444.37 65.5 M 431.25 80.6 C 436.22 74.36 441.1 71.42 444.37 65.5 M 430.99 86.99 C 439.63 83.68 442.1 72.63 450.01 65.11 M 430.99 86.99 C 436.41 82.85 440.44 75.85 450.01 65.11 M 430.73 93.39 C 442.51 85.06 446.25 73.31 455 65.47 M 430.73 93.39 C 437.78 88.37 444.38 80.49 455 65.47 M 431.12 99.03 C 436.38 95.01 442.05 87.14 460.64 65.07 M 431.12 99.03 C 436.64 91.52 443.99 87.3 460.64 65.07 M 430.86 105.43 C 439.56 94.48 451.44 82.46 465.63 65.43 M 430.86 105.43 C 439.78 94.93 445.84 86.45 465.63 65.43 M 431.25 111.07 C 444.52 99.12 460.89 82.75 471.27 65.04 M 431.25 111.07 C 441.65 99.33 451.27 87.75 471.27 65.04 M 430.99 117.47 C 444.44 100.99 461.35 82.5 476.26 65.4 M 430.99 117.47 C 440.66 105.45 452.3 94.4 476.26 65.4 M 432.7 121.61 C 450.24 100.13 463.47 82.07 481.25 65.76 M 432.7 121.61 C 446.07 103.15 463.1 86.27 481.25 65.76 M 435.06 124.99 C 449.59 101.61 472.95 85.54 486.89 65.36 M 435.06 124.99 C 454.07 105.57 470.86 81.84 486.89 65.36 M 440.71 124.59 C 452.51 106.1 470.69 91.83 491.88 65.72 M 440.71 124.59 C 452.29 112.77 463.44 98.2 491.88 65.72 M 445.69 124.95 C 462.77 102.13 481.86 82.49 497.52 65.33 M 445.69 124.95 C 457.26 108.26 470.66 94.4 497.52 65.33 M 451.34 124.56 C 465.78 103.88 478.04 88.26 502.51 65.69 M 451.34 124.56 C 469.42 106.04 485.06 85.48 502.51 65.69 M 456.32 124.92 C 478.37 105.77 491.89 78.11 508.15 65.29 M 456.32 124.92 C 467.08 109.35 481.14 94.95 508.15 65.29 M 461.97 124.52 C 479.96 100.37 502.85 78.68 513.14 65.65 M 461.97 124.52 C 473.65 109 484.78 97.99 513.14 65.65 M 466.95 124.88 C 486.26 104.33 506.52 79.21 518.78 65.26 M 466.95 124.88 C 486.64 99.47 509.44 79.64 518.78 65.26 M 472.6 124.49 C 485.79 113.67 494.5 97.44 523.77 65.62 M 472.6 124.49 C 484.46 110.93 495.98 95.14 523.77 65.62 M 477.58 124.85 C 489.32 111.13 502.94 97.45 529.41 65.23 M 477.58 124.85 C 492.99 107.94 507.25 91.88 529.41 65.23 M 482.57 125.21 C 505.77 103.11 526.26 76.25 534.4 65.59 M 482.57 125.21 C 502.87 103.93 522.94 83.41 534.4 65.59 M 488.21 124.81 C 503.3 105.44 516.37 86.03 539.38 65.95 M 488.21 124.81 C 498.37 110.73 511.75 98.88 539.38 65.95 M 493.2 125.17 C 510.46 106.98 533.86 80.61 545.03 65.55 M 493.2 125.17 C 505.3 110.87 519.44 93.25 545.03 65.55 M 498.84 124.78 C 516.96 105.41 533.16 87.41 550.02 65.91 M 498.84 124.78 C 518.79 104.36 539.58 80.77 550.02 65.91 M 503.83 125.14 C 521.79 107.36 538.82 78.98 555.66 65.52 M 503.83 125.14 C 520.37 107.39 536.75 88.36 555.66 65.52 M 509.47 124.74 C 525.95 105.35 541.07 92.1 560.65 65.88 M 509.47 124.74 C 528.12 99.69 549.38 76.66 560.65 65.88 M 514.46 125.1 C 530.52 109.2 543.29 93.95 566.29 65.48 M 514.46 125.1 C 531.16 104.91 552.69 84.98 566.29 65.48 M 520.1 124.71 C 542.25 105.3 555.21 75.68 571.28 65.84 M 520.1 124.71 C 533.08 110.57 544.65 93.65 571.28 65.84 M 525.09 125.07 C 546.07 97.36 565.44 79.48 576.92 65.45 M 525.09 125.07 C 542.58 101.36 560.62 82.61 576.92 65.45 M 530.73 124.67 C 551.98 108.58 569.03 87.8 581.91 65.81 M 530.73 124.67 C 547.62 103.74 567.94 80.87 581.91 65.81 M 535.72 125.04 C 555.04 106.05 570.17 81.84 587.55 65.41 M 535.72 125.04 C 550.98 105.66 564.71 88.52 587.55 65.41 M 540.71 125.4 C 562.58 102.89 578.59 81.94 592.54 65.77 M 540.71 125.4 C 554.05 110.37 568.79 95.57 592.54 65.77 M 546.35 125 C 567.21 107.3 582.73 84.82 597.52 66.13 M 546.35 125 C 567.06 101.32 584.96 81.69 597.52 66.13 M 551.34 125.36 C 563.89 103.87 581.83 87.23 603.17 65.74 M 551.34 125.36 C 568.64 103.32 586.5 82.8 603.17 65.74 M 556.98 124.97 C 567.63 112.53 578.37 98.27 606.84 67.61 M 556.98 124.97 C 573.47 106.15 588.26 87.55 606.84 67.61 M 561.97 125.33 C 581.16 105.89 600.87 87.52 610.52 69.48 M 561.97 125.33 C 577.68 106.56 594.32 87.72 610.52 69.48 M 567.61 124.93 C 582.91 109.52 600.78 94.65 610.91 75.12 M 567.61 124.93 C 580.51 114.04 592.07 97.89 610.91 75.12 M 572.6 125.29 C 587.84 108.19 601.73 94.96 611.3 80.76 M 572.6 125.29 C 587.32 109.01 604.53 90.27 611.3 80.76 M 578.24 124.9 C 583.82 115.49 594.43 108.55 611.04 87.16 M 578.24 124.9 C 587.47 111.79 601.62 98.83 611.04 87.16 M 583.23 125.26 C 591.45 110.61 606.42 98.23 610.78 93.56 M 583.23 125.26 C 590.98 116.62 595.83 110.28 610.78 93.56 M 588.87 124.86 C 596.42 115.52 603.32 108.76 610.52 99.96 M 588.87 124.86 C 594.18 118.04 603.86 109.33 610.52 99.96 M 593.86 125.22 C 597.83 122.58 605.3 118.56 610.91 105.6 M 593.86 125.22 C 598.72 120 603.68 112.5 610.91 105.6 M 598.84 125.58 C 606.09 123.55 611.01 115.89 610.65 112 M 598.84 125.58 C 599.98 123.42 605 118.21 610.65 112 M 603.18 126.7 C 603.12 126 608.09 124.36 610.39 118.4 M 603.18 126.7 C 604.02 125.27 605.84 122.89 610.39 118.4" fill="none" stroke="#e1d5e7" stroke-width="0.5" stroke-linejoin="round" stroke-linecap="round" stroke-miterlimit="10" pointer-events="all"/><path d="M 439 65 M 439 65 C 502.08 64.3 567.37 68.71 601 65 M 439 65 C 498.9 68.62 563.07 65.97 601 65 M 601 65 C 605.98 64.24 609.87 64.46 610 74 M 601 65 C 605.59 68.27 610 72.5 610 74 M 610 74 C 613.2 85.68 609.34 97.43 610 116 M 610 74 C 610.19 91.68 609.61 106.32 610 116 M 610 116 C 609.13 122.01 609.44 127.35 601 125 M 610 116 C 609.89 123.9 603.76 124.55 601 125 M 601 125 C 561.37 125.26 528.93 119.97 439 125 M 601 125 C 559.11 125.67 513.91 124.51 439 125 M 439 125 C 430.61 127.23 433.84 125.17 430 116 M 439 125 C 435.49 129.12 428.35 120.09 430 116 M 430 116 C 433.51 98.99 426.15 87.61 430 74 M 430 116 C 431.31 104.78 429.1 95.21 430 74 M 430 74 C 426.97 64.69 436.23 63.6 439 65 M 430 74 C 428.02 63.66 436.99 68 439 65" fill="none" stroke="#9673a6" stroke-linejoin="round" stroke-linecap="round" stroke-miterlimit="10" pointer-events="all"/><g transform="translate(-0.5 -0.5)"><switch><foreignObject pointer-events="none" width="100%" height="100%" requiredFeatures="http://www.w3.org/TR/SVG11/feature#Extensibility" style="overflow: visible; text-align: left;"><div xmlns="http://www.w3.org/1999/xhtml" style="display: flex; align-items: unsafe center; justify-content: unsafe center; width: 178px; height: 1px; padding-top: 95px; margin-left: 431px;"><div data-drawio-colors="color: #1e1b4b; " style="box-sizing: border-box; font-size: 0px; text-align: center;"><div style="display: inline-block; font-size: 12px; font-family: Helvetica; color: rgb(30, 27, 75); line-height: 1.2; pointer-events: all; white-space: normal; overflow-wrap: normal;">Multimodal Embedding<br />(Nova / Titan)</div></div></div></foreignObject><text x="520" y="99" fill="#1e1b4b" font-family="Helvetica" font-size="12px" text-anchor="middle">Multimodal Embedding...</text></switch></g><rect x="670" y="110" width="120" height="70" rx="14" ry="14" fill="none" stroke="none" pointer-events="all"/><path d="M 675.77 111.63 C 675.77 111.63 675.77 111.63 675.77 111.63 M 675.77 111.63 C 675.77 111.63 675.77 111.63 675.77 111.63 M 671.57 122.55 C 673.78 119.53 680.98 113.69 682.07 110.48 M 671.57 122.55 C 674.47 117.12 678.02 115.87 682.07 110.48 M 671.96 128.19 C 679.46 121.61 679.12 117.17 686.4 111.59 M 671.96 128.19 C 676.18 123.94 679.15 120.36 686.4 111.59 M 671.7 134.59 C 678.18 126.91 685.61 121.41 691.38 111.95 M 671.7 134.59 C 680.91 123.86 688.44 118.7 691.38 111.95 M 672.1 140.24 C 678.19 131.37 684.94 131.05 697.03 111.56 M 672.1 140.24 C 679.38 130.25 685.71 121.35 697.03 111.56 M 671.84 146.63 C 677.27 141.69 684.1 134.6 702.01 111.92 M 671.84 146.63 C 678.68 136.54 684.91 130.21 702.01 111.92 M 671.57 153.03 C 680.82 143.47 688.52 133.98 707.66 111.52 M 671.57 153.03 C 684.33 139.6 694.66 126.44 707.66 111.52 M 671.97 158.67 C 679.94 146.41 692.37 135.72 712.64 111.88 M 671.97 158.67 C 683.47 147.31 691.92 133.43 712.64 111.88 M 671.71 165.07 C 687.22 145.11 702.94 131.72 717.63 112.24 M 671.71 165.07 C 683.48 152.55 693.93 141.14 717.63 112.24 M 672.1 170.71 C 689.26 150.89 706.64 125.88 723.27 111.85 M 672.1 170.71 C 687.42 152.15 704.36 133.47 723.27 111.85 M 674.46 174.09 C 691.2 160.49 704.67 143.84 728.26 112.21 M 674.46 174.09 C 691.95 155.53 707.2 133.67 728.26 112.21 M 676.17 178.23 C 692.22 156.87 706.2 140.25 733.9 111.81 M 676.17 178.23 C 696.18 153.47 718.46 130.69 733.9 111.81 M 680.5 179.34 C 700.18 160.36 711.54 144.51 738.89 112.17 M 680.5 179.34 C 705.16 153.38 724.77 127.11 738.89 112.17 M 684.83 180.46 C 699.21 160.91 716.02 143.25 744.53 111.78 M 684.83 180.46 C 704.86 158.58 726.46 131.97 744.53 111.78 M 689.82 180.82 C 709.93 153.34 735.61 126.61 749.52 112.14 M 689.82 180.82 C 708.61 163.99 723.45 141.63 749.52 112.14 M 695.46 180.42 C 714.88 162.7 731.07 135.89 755.17 111.74 M 695.46 180.42 C 707 166.24 720.43 150.09 755.17 111.74 M 700.45 180.78 C 726.75 156.37 750.48 124.51 760.15 112.1 M 700.45 180.78 C 712.02 165.8 725.27 149.19 760.15 112.1 M 706.09 180.39 C 723.74 162.2 737.39 142.16 765.8 111.71 M 706.09 180.39 C 720.61 161.97 737.06 144.77 765.8 111.71 M 711.08 180.75 C 725.46 160.02 746.29 138.13 770.78 112.07 M 711.08 180.75 C 728.85 163.62 744.26 141.67 770.78 112.07 M 716.72 180.35 C 738.49 161.99 748.76 137.61 777.08 110.92 M 716.72 180.35 C 733.61 161.3 750.57 143.6 777.08 110.92 M 721.71 180.71 C 748.67 155.03 772.5 124.55 781.41 112.03 M 721.71 180.71 C 737.19 161.52 754.62 144.51 781.41 112.03 M 727.35 180.32 C 741.39 167.05 755.49 144.96 785.74 113.15 M 727.35 180.32 C 748.39 157.57 768.41 133.81 785.74 113.15 M 732.34 180.68 C 756.19 155.53 774.72 130.84 788.76 115.77 M 732.34 180.68 C 743.91 167.38 754.58 154 788.76 115.77 M 737.98 180.28 C 759.78 155.36 776.6 132.76 789.81 120.66 M 737.98 180.28 C 747.43 170.22 759.37 154.86 789.81 120.66 M 742.97 180.64 C 759.55 161.99 782.78 138.2 791.52 124.8 M 742.97 180.64 C 758.51 160.66 775.81 141.65 791.52 124.8 M 748.61 180.25 C 755.23 168.8 766.46 160.98 791.26 131.19 M 748.61 180.25 C 758.76 167.52 769.09 158.5 791.26 131.19 M 753.6 180.61 C 765.66 168.88 780.49 148.68 791 137.59 M 753.6 180.61 C 764.5 167.21 776.42 153.59 791 137.59 M 758.59 180.97 C 769.38 174.64 776.03 168.34 791.39 143.23 M 758.59 180.97 C 768.16 170.46 779.96 157.89 791.39 143.23 M 764.23 180.58 C 773.21 172.96 777.26 163.29 791.13 149.63 M 764.23 180.58 C 775.76 171.21 784.97 157.41 791.13 149.63 M 769.22 180.94 C 775.78 173.67 781.88 170 791.52 155.28 M 769.22 180.94 C 775.45 175.48 777.52 169 791.52 155.28 M 774.86 180.54 C 781.82 174.44 781.58 173.89 791.26 161.67 M 774.86 180.54 C 778.9 173.02 785.03 169.29 791.26 161.67 M 778.54 182.41 C 782.46 173.11 791.81 172.81 791.66 167.32 M 778.54 182.41 C 780.66 179.6 786.26 174.84 791.66 167.32" fill="none" stroke="#f8fafc" stroke-width="0.5" stroke-linejoin="round" stroke-linecap="round" stroke-miterlimit="10" pointer-events="all"/><path d="M 684 110 M 684 110 C 708.62 108.15 741.92 111.21 776 110 M 684 110 C 718.61 111.48 752.37 111.44 776 110 M 776 110 C 781.41 109.89 790.41 113.14 790 124 M 776 110 C 783.49 112.4 790.38 118.31 790 124 M 790 124 C 789.82 133.81 793.03 148.04 790 166 M 790 124 C 790.45 141.98 790.38 155.55 790 166 M 790 166 C 792.38 173.44 785 176.31 776 180 M 790 166 C 786.97 174.2 782.2 179.05 776 180 M 776 180 C 752.29 179.28 722.65 184 684 180 M 776 180 C 754.57 176.74 729.62 176.26 684 180 M 684 180 C 671.36 178.18 671.85 177.15 670 166 M 684 180 C 675.44 178.78 672.85 174.19 670 166 M 670 166 C 667.9 154.6 668.5 139.67 670 124 M 670 166 C 670.44 157.02 668.91 143.95 670 124 M 670 124 C 670.65 113.37 674.76 112.11 684 110 M 670 124 C 666.52 116.38 674.78 108.6 684 110" fill="none" stroke="#64748b" stroke-linejoin="round" stroke-linecap="round" stroke-miterlimit="10" pointer-events="all"/><g transform="translate(-0.5 -0.5)"><switch><foreignObject pointer-events="none" width="100%" height="100%" requiredFeatures="http://www.w3.org/TR/SVG11/feature#Extensibility" style="overflow: visible; text-align: left;"><div xmlns="http://www.w3.org/1999/xhtml" style="display: flex; align-items: unsafe center; justify-content: unsafe center; width: 118px; height: 1px; padding-top: 145px; margin-left: 671px;"><div data-drawio-colors="color: #1e1b4b; " style="box-sizing: border-box; font-size: 0px; text-align: center;"><div style="display: inline-block; font-size: 12px; font-family: Helvetica; color: rgb(30, 27, 75); line-height: 1.2; pointer-events: all; font-weight: bold; white-space: normal; overflow-wrap: normal;">Vector<br />Store</div></div></div></foreignObject><text x="730" y="149" fill="#1e1b4b" font-family="Helvetica" font-size="12px" text-anchor="middle" font-weight="bold">Vector...</text></switch></g><path d="M 170 95 L 199.76 95" fill="none" stroke="none" pointer-events="stroke"/><path d="M 207.76 95 L 199.76 99 L 199.76 91 Z" fill="none" stroke="none" pointer-events="all"/><path d="M 170 95 M 170 95 C 180.36 94.37 182.81 96.86 199.76 95 M 170 95 C 180.37 92.85 190.77 93.96 199.76 95" fill="none" stroke="#4f46e5" stroke-width="2" stroke-linejoin="round" stroke-linecap="round" stroke-miterlimit="10" pointer-events="stroke"/><path d="M 199.58 91.21 C 199.58 91.21 199.58 91.21 199.58 91.21 M 199.58 91.21 C 199.58 91.21 199.58 91.21 199.58 91.21 M 201.68 100.99 C 202.47 98.87 205.56 98.61 206.93 94.95 M 201.68 100.99 C 203.43 99.33 204.08 97.5 206.93 94.95" fill="none" stroke="#4f46e5" stroke-linejoin="round" stroke-linecap="round" stroke-miterlimit="10" pointer-events="all"/><path d="M 207.76 95 M 207.76 95 C 204.33 96.02 202.78 96.13 199.76 99 M 207.76 95 C 206.4 96.08 205.16 95.87 199.76 99 M 199.76 99 C 198.6 96.73 199.38 92.91 199.76 91 M 199.76 99 C 200.48 97.31 200.11 94.63 199.76 91 M 199.76 91 C 203.81 92.63 205.84 93.58 207.76 95 M 199.76 91 C 202.24 91.8 205.76 93.78 207.76 95" fill="none" stroke="#4f46e5" stroke-width="2" stroke-linejoin="round" stroke-linecap="round" stroke-miterlimit="10" pointer-events="all"/><path d="M 390 95 L 419.76 95" fill="none" stroke="none" pointer-events="stroke"/><path d="M 427.76 95 L 419.76 99 L 419.76 91 Z" fill="none" stroke="none" pointer-events="all"/><path d="M 390 95 M 390 95 C 398.08 91.58 406.17 94.47 419.76 95 M 390 95 C 400.91 94.11 412.6 93.65 419.76 95" fill="none" stroke="#4f46e5" stroke-width="2" stroke-linejoin="round" stroke-linecap="round" stroke-miterlimit="10" pointer-events="stroke"/><path d="M 420.02 90.71 C 420.02 90.71 420.02 90.71 420.02 90.71 M 420.02 90.71 C 420.02 90.71 420.02 90.71 420.02 90.71 M 422.12 100.48 C 422.64 99.96 425 95.21 427.37 94.44 M 422.12 100.48 C 423.1 98.73 424.33 98.48 427.37 94.44" fill="none" stroke="#4f46e5" stroke-linejoin="round" stroke-linecap="round" stroke-miterlimit="10" pointer-events="all"/><path d="M 427.76 95 M 427.76 95 C 426.06 97.71 421.41 99.81 419.76 99 M 427.76 95 C 425.34 96.4 424.68 97.15 419.76 99 M 419.76 99 C 420.72 97.19 418.72 95.29 419.76 91 M 419.76 99 C 419.56 97.63 419.32 95.21 419.76 91 M 419.76 91 C 420.71 90.18 422.47 92.22 427.76 95 M 419.76 91 C 422.21 92.77 423.2 93.38 427.76 95" fill="none" stroke="#4f46e5" stroke-width="2" stroke-linejoin="round" stroke-linecap="round" stroke-miterlimit="10" pointer-events="all"/><path d="M 610 116.43 L 660.04 128.34" fill="none" stroke="none" pointer-events="stroke"/><path d="M 667.82 130.2 L 659.12 132.23 L 660.97 124.45 Z" fill="none" stroke="none" pointer-events="all"/><path d="M 610 116.43 M 610 116.43 C 620.12 122.18 630.3 120.07 660.04 128.34 M 610 116.43 C 624.97 118.8 637.48 124 660.04 128.34" fill="none" stroke="#4f46e5" stroke-width="2" stroke-linejoin="round" stroke-linecap="round" stroke-miterlimit="10" pointer-events="stroke"/><path d="M 661.22 124.16 C 661.22 124.16 661.22 124.16 661.22 124.16 M 661.22 124.16 C 661.22 124.16 661.22 124.16 661.22 124.16 M 662.67 134.69 C 663.11 132.63 664.54 130.16 667.26 129.41 M 662.67 134.69 C 663.78 132.2 666.29 130.9 667.26 129.41" fill="none" stroke="#4f46e5" stroke-linejoin="round" stroke-linecap="round" stroke-miterlimit="10" pointer-events="all"/><path d="M 667.82 130.2 M 667.82 130.2 C 665.76 129.2 662.94 131.8 659.12 132.23 M 667.82 130.2 C 665.95 131.36 662.11 130.72 659.12 132.23 M 659.12 132.23 C 659.5 130.93 661.62 127.81 660.97 124.45 M 659.12 132.23 C 659.94 129.64 660.49 125.96 660.97 124.45 M 660.97 124.45 C 663.84 126.04 663.04 126.87 667.82 130.2 M 660.97 124.45 C 662.82 127.09 666.07 127.71 667.82 130.2" fill="none" stroke="#4f46e5" stroke-width="2" stroke-linejoin="round" stroke-linecap="round" stroke-miterlimit="10" pointer-events="all"/><rect x="0" y="205" width="100" height="20" fill="none" stroke="none" pointer-events="all"/><g transform="translate(-0.5 -0.5)"><switch><foreignObject pointer-events="none" width="100%" height="100%" requiredFeatures="http://www.w3.org/TR/SVG11/feature#Extensibility" style="overflow: visible; text-align: left;"><div xmlns="http://www.w3.org/1999/xhtml" style="display: flex; align-items: unsafe center; justify-content: unsafe flex-start; width: 1px; height: 1px; padding-top: 215px; margin-left: 2px;"><div data-drawio-colors="color: #64748b; " style="box-sizing: border-box; font-size: 0px; text-align: left;"><div style="display: inline-block; font-size: 10px; font-family: Helvetica; color: rgb(100, 116, 139); line-height: 1.2; pointer-events: all; font-weight: bold; white-space: nowrap;">QUERY</div></div></div></foreignObject><text x="2" y="218" fill="#64748b" font-family="Helvetica" font-size="10px" font-weight="bold">QUERY</text></switch></g><rect x="0" y="230" width="170" height="60" rx="9" ry="9" fill="none" stroke="none" pointer-events="all"/><path d="M 2.19 232.32 C 2.19 232.32 2.19 232.32 2.19 232.32 M 2.19 232.32 C 2.19 232.32 2.19 232.32 2.19 232.32 M 1.27 239.48 C 1.65 237.07 5.22 234.24 9.14 230.42 M 1.27 239.48 C 4.32 237.64 5.36 233.07 9.14 230.42 M 1.01 245.87 C 9.02 237.79 8.97 230.64 14.79 230.02 M 1.01 245.87 C 4.18 241.29 10.29 236.22 14.79 230.02 M 0.75 252.27 C 8.25 245.61 13.96 239.88 19.77 230.38 M 0.75 252.27 C 6.24 244.76 10.38 240.75 19.77 230.38 M 1.14 257.91 C 12.02 253.2 18.61 238.01 25.42 229.99 M 1.14 257.91 C 9.03 249.66 19.88 236.93 25.42 229.99 M 0.88 264.31 C 15.58 249.98 24.86 241.74 30.4 230.35 M 0.88 264.31 C 10.13 252.6 19.47 241.38 30.4 230.35 M 1.27 269.95 C 5.72 257.67 19.09 255.34 35.39 230.71 M 1.27 269.95 C 12.72 254.46 25.6 242.21 35.39 230.71 M 1.01 276.35 C 6.04 269.02 17.6 259.69 41.03 230.32 M 1.01 276.35 C 17.43 260.54 28.42 244.05 41.03 230.32 M 1.41 282 C 15.04 260.91 32.2 242.72 46.02 230.68 M 1.41 282 C 18.23 263.3 34.89 245.06 46.02 230.68 M 2.46 286.88 C 10.63 269.93 23.37 263.58 51.66 230.28 M 2.46 286.88 C 14.6 275.51 24.84 261.46 51.66 230.28 M 5.48 289.51 C 25.33 266.7 46.88 238.48 56.65 230.64 M 5.48 289.51 C 22.22 269.78 40.78 253.14 56.65 230.64 M 10.46 289.87 C 28.84 271.4 40.46 253.97 62.29 230.25 M 10.46 289.87 C 30.7 270.39 48.75 246.43 62.29 230.25 M 16.11 289.47 C 32.33 268.08 47.79 251.78 67.28 230.61 M 16.11 289.47 C 30.23 274.88 43.24 258.25 67.28 230.61 M 21.09 289.83 C 44.33 266.06 63.65 241.79 72.92 230.21 M 21.09 289.83 C 35.96 272.93 49.65 260.77 72.92 230.21 M 26.74 289.44 C 46.08 266.43 57.76 250.16 77.91 230.57 M 26.74 289.44 C 42.33 270.86 59.84 251.88 77.91 230.57 M 31.72 289.8 C 44.83 271.04 62.31 259.95 83.55 230.18 M 31.72 289.8 C 52.06 265.51 71.45 246.71 83.55 230.18 M 36.71 290.16 C 50.35 276.97 63.98 259.32 88.54 230.54 M 36.71 290.16 C 54.15 273.47 69.63 253.63 88.54 230.54 M 42.35 289.76 C 59.64 268.93 83.14 243.13 93.53 230.9 M 42.35 289.76 C 55.39 274.38 66.34 260.26 93.53 230.9 M 47.34 290.12 C 68.8 271.4 84.01 242.62 99.17 230.5 M 47.34 290.12 C 66.48 268.19 88.29 242.22 99.17 230.5 M 52.98 289.73 C 66.8 273.04 83.65 256.69 104.16 230.86 M 52.98 289.73 C 70.86 271.1 88.29 249.88 104.16 230.86 M 57.97 290.09 C 70.53 278.96 83.04 265.98 109.8 230.47 M 57.97 290.09 C 76.12 273.76 89.94 255.03 109.8 230.47 M 63.61 289.7 C 85.55 273.15 100.63 250.97 114.79 230.83 M 63.61 289.7 C 82.38 267.9 102.61 246.21 114.79 230.83 M 68.6 290.06 C 92.34 266.55 108.08 245.86 120.43 230.43 M 68.6 290.06 C 78.83 279.46 91.64 264.72 120.43 230.43 M 74.24 289.66 C 91.63 272.22 99.54 261.75 125.42 230.79 M 74.24 289.66 C 86.85 274.32 103.09 256.39 125.42 230.79 M 79.23 290.02 C 98.63 265.17 116.85 244.52 131.06 230.4 M 79.23 290.02 C 96.38 270.66 113.26 254.39 131.06 230.4 M 84.87 289.63 C 102.58 274.83 115.98 254.2 136.05 230.76 M 84.87 289.63 C 104 264.77 124.92 242.38 136.05 230.76 M 89.86 289.99 C 111.55 271.7 126.4 250.54 141.69 230.36 M 89.86 289.99 C 105.1 273.41 117.72 255.99 141.69 230.36 M 94.85 290.35 C 107.66 271.91 123.72 256.29 146.68 230.72 M 94.85 290.35 C 109.26 276.87 123.24 259.44 146.68 230.72 M 100.49 289.95 C 117.32 273.55 126.32 253.31 151.66 231.08 M 100.49 289.95 C 114.38 272.15 130.26 258.57 151.66 231.08 M 105.48 290.31 C 115.56 277.83 131.11 263.49 157.31 230.69 M 105.48 290.31 C 117.82 275.85 131.5 261.44 157.31 230.69 M 111.12 289.92 C 123.01 275.36 130.07 262.93 162.29 231.05 M 111.12 289.92 C 126.19 271.45 142.46 254.99 162.29 231.05 M 116.11 290.28 C 131.46 273.28 148.35 254.57 166.63 232.17 M 116.11 290.28 C 131.75 272.15 146.7 254.08 166.63 232.17 M 121.75 289.88 C 132.72 275.81 152.04 255.45 170.3 234.03 M 121.75 289.88 C 133.22 279.19 141.99 264.87 170.3 234.03 M 126.74 290.24 C 139.9 277.52 149.41 266.26 170.69 239.68 M 126.74 290.24 C 138.64 276.35 146.59 265.16 170.69 239.68 M 132.38 289.85 C 149.46 276.95 161.7 256.2 170.43 246.08 M 132.38 289.85 C 144.57 278.17 155.26 261.51 170.43 246.08 M 137.37 290.21 C 146.48 274.83 154.77 270.16 170.83 251.72 M 137.37 290.21 C 144.24 283 154.04 272.47 170.83 251.72 M 143.01 289.81 C 146.34 278.51 158.8 275.61 170.57 258.12 M 143.01 289.81 C 148.11 284.12 155.08 275.65 170.57 258.12 M 148 290.17 C 151.79 280.02 159.16 276.56 170.3 264.51 M 148 290.17 C 152.48 285.66 160.36 275.91 170.3 264.51 M 152.99 290.53 C 155.13 288.76 165.82 277.95 170.04 270.91 M 152.99 290.53 C 159.61 284.74 165.07 278.88 170.04 270.91 M 158.63 290.14 C 159.55 288.8 163.6 280.51 170.44 276.56 M 158.63 290.14 C 161.68 284.74 167.65 281.73 170.44 276.56 M 162.96 291.25 C 163.76 286 169.35 284.32 170.18 282.95 M 162.96 291.25 C 165.29 288.6 166.96 287.13 170.18 282.95" fill="none" stroke="#d5e8d4" stroke-width="0.5" stroke-linejoin="round" stroke-linecap="round" stroke-miterlimit="10" pointer-events="all"/><path d="M 9 230 M 9 230 C 61.9 229.11 119.99 225.2 161 230 M 9 230 C 64.27 230.01 118.77 228.06 161 230 M 161 230 C 167.15 226.29 167.57 235.48 170 239 M 161 230 C 164.8 234.55 171.82 228.46 170 239 M 170 239 C 170 258.32 168.31 270.92 170 281 M 170 239 C 170.02 255.52 170.75 269.05 170 281 M 170 281 C 172.89 284.59 163.53 287.98 161 290 M 170 281 C 169.54 290.61 167.87 286.92 161 290 M 161 290 C 115.1 289.79 77.97 293.13 9 290 M 161 290 C 122.8 289.8 87 292.28 9 290 M 9 290 C 1.83 286.93 2.48 285.58 0 281 M 9 290 C 4.91 293.78 -2.69 285.11 0 281 M 0 281 C 3.44 273.94 3.31 259.63 0 239 M 0 281 C -0.85 267.79 -1.35 257.39 0 239 M 0 239 C -2.44 236.08 2.44 228.82 9 230 M 0 239 C -3.07 233.1 4.18 229.26 9 230" fill="none" stroke="#16a34a" stroke-linejoin="round" stroke-linecap="round" stroke-miterlimit="10" pointer-events="all"/><g transform="translate(-0.5 -0.5)"><switch><foreignObject pointer-events="none" width="100%" height="100%" requiredFeatures="http://www.w3.org/TR/SVG11/feature#Extensibility" style="overflow: visible; text-align: left;"><div xmlns="http://www.w3.org/1999/xhtml" style="display: flex; align-items: unsafe center; justify-content: unsafe center; width: 168px; height: 1px; padding-top: 260px; margin-left: 1px;"><div data-drawio-colors="color: #1e1b4b; " style="box-sizing: border-box; font-size: 0px; text-align: center;"><div style="display: inline-block; font-size: 12px; font-family: Helvetica; color: rgb(30, 27, 75); line-height: 1.2; pointer-events: all; white-space: normal; overflow-wrap: normal;">Query<br />(text OR image)</div></div></div></foreignObject><text x="85" y="264" fill="#1e1b4b" font-family="Helvetica" font-size="12px" text-anchor="middle">Query...</text></switch></g><rect x="210" y="230" width="180" height="60" rx="9" ry="9" fill="none" stroke="none" pointer-events="all"/><path d="M 212.34 232.15 C 212.34 232.15 212.34 232.15 212.34 232.15 M 212.34 232.15 C 212.34 232.15 212.34 232.15 212.34 232.15 M 210.76 240.06 C 212.13 235.31 218.78 232.74 219.29 230.25 M 210.76 240.06 C 212.93 237.07 215.73 233.82 219.29 230.25 M 211.16 245.7 C 216.75 238.4 216.74 240.71 224.28 230.61 M 211.16 245.7 C 213.8 240.46 218.4 236.65 224.28 230.61 M 210.9 252.1 C 214.3 245.06 223.94 234.56 229.92 230.21 M 210.9 252.1 C 216.64 247.41 217.24 240.8 229.92 230.21 M 210.63 258.5 C 215.83 248.56 224.38 242.08 234.91 230.57 M 210.63 258.5 C 216.53 251.65 220.69 245.07 234.91 230.57 M 211.03 264.14 C 217.68 254.4 232.74 244.19 240.55 230.18 M 211.03 264.14 C 220.15 253.86 230.68 241.68 240.55 230.18 M 210.77 270.54 C 220.31 264.98 227.72 250.5 245.54 230.54 M 210.77 270.54 C 223.95 257.67 233.98 241.04 245.54 230.54 M 211.16 276.18 C 222.9 260.34 237.3 240.71 251.18 230.14 M 211.16 276.18 C 224.46 256.89 242.75 242.23 251.18 230.14 M 211.56 281.82 C 226.09 267.4 239.64 247.2 256.17 230.5 M 211.56 281.82 C 224.42 267.14 239.98 251.6 256.17 230.5 M 212.61 286.71 C 227.4 268.43 248.14 244.66 261.81 230.11 M 212.61 286.71 C 223.76 272.45 236.28 257.11 261.81 230.11 M 215.63 289.34 C 233.78 272.49 243.23 255.3 266.8 230.47 M 215.63 289.34 C 227.92 274.88 239.67 262.41 266.8 230.47 M 220.61 289.7 C 239.47 271.8 253.97 248.64 272.44 230.07 M 220.61 289.7 C 242.2 264.73 262.54 242.85 272.44 230.07 M 225.6 290.06 C 244.62 267.11 263.33 248.11 277.43 230.43 M 225.6 290.06 C 237.72 274.2 251.9 256.48 277.43 230.43 M 231.24 289.66 C 242.73 274.98 261.77 252.95 282.42 230.79 M 231.24 289.66 C 242.95 273.09 255.97 261.78 282.42 230.79 M 236.23 290.02 C 254.23 267.37 274.19 243.98 288.06 230.4 M 236.23 290.02 C 258.16 266.9 276.4 242.31 288.06 230.4 M 241.87 289.63 C 261.13 273.01 274.56 251.86 293.05 230.76 M 241.87 289.63 C 259.97 272.06 275.06 249.65 293.05 230.76 M 246.86 289.99 C 263.34 265.64 281.27 249.7 298.69 230.37 M 246.86 289.99 C 266.44 267.22 284.92 247.75 298.69 230.37 M 252.5 289.59 C 262.32 276.5 279.52 257.96 303.68 230.73 M 252.5 289.59 C 266.74 273.5 282.87 254.37 303.68 230.73 M 257.49 289.95 C 274.34 268.2 295.4 250.47 309.32 230.33 M 257.49 289.95 C 276.22 268.53 298.56 243.3 309.32 230.33 M 263.13 289.56 C 277.8 270.6 288.03 262.06 314.31 230.69 M 263.13 289.56 C 282.06 268.84 297.55 248.06 314.31 230.69 M 268.12 289.92 C 283.55 267.24 306.56 247.82 319.95 230.3 M 268.12 289.92 C 278.43 274.19 290.11 262.45 319.95 230.3 M 273.76 289.52 C 286.47 275.22 301.02 258.63 324.94 230.66 M 273.76 289.52 C 286.89 274.44 298.43 261.26 324.94 230.66 M 278.75 289.88 C 299.7 261.42 321.04 238.05 330.58 230.26 M 278.75 289.88 C 295.91 265.16 315.65 243.66 330.58 230.26 M 283.74 290.24 C 306.58 265.18 324.86 244.45 335.57 230.62 M 283.74 290.24 C 303.5 268.82 319.94 247.38 335.57 230.62 M 289.38 289.85 C 303.73 275.33 313.71 265.81 340.55 230.98 M 289.38 289.85 C 302.34 280.54 309.34 268.49 340.55 230.98 M 294.37 290.21 C 305.96 278.46 314.56 261.11 346.2 230.59 M 294.37 290.21 C 311.36 267.92 329.77 247.33 346.2 230.59 M 300.01 289.82 C 314.85 271.75 327.49 254.03 351.18 230.95 M 300.01 289.82 C 319.56 266.65 340.22 245.03 351.18 230.95 M 305 290.18 C 318.72 273.49 337.1 249.78 356.83 230.55 M 305 290.18 C 321.83 270.61 339.51 252.87 356.83 230.55 M 310.64 289.78 C 328.45 275.51 340.89 258.2 361.81 230.91 M 310.64 289.78 C 327.56 265.91 348.44 246.15 361.81 230.91 M 315.63 290.14 C 333.19 270.82 354.61 247 367.46 230.52 M 315.63 290.14 C 327.7 272.79 341.42 259.02 367.46 230.52 M 321.27 289.75 C 337.79 276.06 354.98 254.86 372.44 230.88 M 321.27 289.75 C 335.58 272.4 346.63 260.04 372.44 230.88 M 326.26 290.11 C 343.21 273.31 356.84 247.05 378.09 230.48 M 326.26 290.11 C 336.83 277.22 349.74 263.89 378.09 230.48 M 331.9 289.71 C 343.85 274.44 361.45 258.34 383.07 230.84 M 331.9 289.71 C 347.69 272.7 363.64 256.72 383.07 230.84 M 336.89 290.07 C 354.76 273.71 367.7 260.13 386.75 232.71 M 336.89 290.07 C 352.64 273.17 367.38 254.93 386.75 232.71 M 341.88 290.43 C 352.95 278.07 370.86 258.65 390.42 234.58 M 341.88 290.43 C 354.34 279.46 363.65 263.52 390.42 234.58 M 347.52 290.04 C 363.17 274.08 379.26 254.2 390.82 240.23 M 347.52 290.04 C 359.25 276.79 372.06 258.61 390.82 240.23 M 352.51 290.4 C 363.72 282.1 376.38 268.45 391.21 245.87 M 352.51 290.4 C 367.32 276.23 380.16 258.69 391.21 245.87 M 358.15 290 C 370.41 279.7 379.09 262.11 390.95 252.27 M 358.15 290 C 370.93 277.06 384.9 261.97 390.95 252.27 M 363.14 290.36 C 372.8 282.32 377.84 275.95 390.69 258.66 M 363.14 290.36 C 367.29 283.52 375.87 277.38 390.69 258.66 M 368.78 289.97 C 374.28 288.16 382.47 282.51 391.08 264.31 M 368.78 289.97 C 377.84 280.51 386.12 273.03 391.08 264.31 M 373.77 290.33 C 375.41 288.63 378.46 277.62 390.82 270.71 M 373.77 290.33 C 380.15 284.97 385.77 277.71 390.82 270.71 M 379.41 289.93 C 382.36 287.74 386.85 284.31 390.56 277.1 M 379.41 289.93 C 382.03 284.7 387.44 284.04 390.56 277.1 M 383.08 291.8 C 384.21 288.62 386.9 285.34 390.3 283.5 M 383.08 291.8 C 385.69 288.82 387.27 286.53 390.3 283.5" fill="none" stroke="#e1d5e7" stroke-width="0.5" stroke-linejoin="round" stroke-linecap="round" stroke-miterlimit="10" pointer-events="all"/><path d="M 219 230 M 219 230 C 257.21 231.87 292.3 233.67 381 230 M 219 230 C 261.89 228.47 304.38 228.05 381 230 M 381 230 C 383.97 233.41 389.04 229.67 390 239 M 381 230 C 388.96 229.4 388.32 228.71 390 239 M 390 239 C 390.03 255.84 390.27 267.64 390 281 M 390 239 C 390.45 248.47 391.08 261.22 390 281 M 390 281 C 393.97 287.71 389.34 291.05 381 290 M 390 281 C 389.47 283.9 389.37 292.61 381 290 M 381 290 C 347.18 291.98 309.67 296.76 219 290 M 381 290 C 321.31 291.34 260.26 290.79 219 290 M 219 290 C 210.38 287.51 213.37 285.24 210 281 M 219 290 C 216.69 290.98 208.24 289.8 210 281 M 210 281 C 212.84 267.02 213.22 252.49 210 239 M 210 281 C 209.28 267.9 208.64 254.76 210 239 M 210 239 C 210.71 232.08 216.39 232.54 219 230 M 210 239 C 209.02 233.14 216.12 226.6 219 230" fill="none" stroke="#9673a6" stroke-linejoin="round" stroke-linecap="round" stroke-miterlimit="10" pointer-events="all"/><g transform="translate(-0.5 -0.5)"><switch><foreignObject pointer-events="none" width="100%" height="100%" requiredFeatures="http://www.w3.org/TR/SVG11/feature#Extensibility" style="overflow: visible; text-align: left;"><div xmlns="http://www.w3.org/1999/xhtml" style="display: flex; align-items: unsafe center; justify-content: unsafe center; width: 178px; height: 1px; padding-top: 260px; margin-left: 211px;"><div data-drawio-colors="color: #1e1b4b; " style="box-sizing: border-box; font-size: 0px; text-align: center;"><div style="display: inline-block; font-size: 12px; font-family: Helvetica; color: rgb(30, 27, 75); line-height: 1.2; pointer-events: all; white-space: normal; overflow-wrap: normal;">Same multimodal<br />embedding model</div></div></div></foreignObject><text x="300" y="264" fill="#1e1b4b" font-family="Helvetica" font-size="12px" text-anchor="middle">Same multimodal...</text></switch></g><rect x="670" y="230" width="120" height="60" rx="9" ry="9" fill="none" stroke="none" pointer-events="all"/><path d="M 672.48 231.99 C 672.48 231.99 672.48 231.99 672.48 231.99 M 672.48 231.99 C 672.48 231.99 672.48 231.99 672.48 231.99 M 670.9 239.9 C 674.68 238.57 674.88 236.41 679.43 230.09 M 670.9 239.9 C 674.73 236.75 676.6 232.41 679.43 230.09 M 670.64 246.3 C 672.82 239.21 677.7 233.15 684.42 230.45 M 670.64 246.3 C 673.47 242.93 681.16 236.95 684.42 230.45 M 671.04 251.94 C 679 241.48 688.93 232.2 690.06 230.05 M 671.04 251.94 C 676.24 248.4 678.16 240.54 690.06 230.05 M 670.77 258.34 C 680.56 247.09 682.12 240.46 695.05 230.41 M 670.77 258.34 C 680.8 248.74 688.16 238.35 695.05 230.41 M 671.17 263.98 C 681.58 254.71 681.89 250.76 700.69 230.02 M 671.17 263.98 C 677.18 254.73 686.01 246.04 700.69 230.02 M 670.91 270.38 C 681.26 262.76 685.56 246.89 705.68 230.38 M 670.91 270.38 C 677.45 261.08 685.46 251.94 705.68 230.38 M 670.65 276.77 C 686.28 260.65 697.97 243.48 710.67 230.74 M 670.65 276.77 C 682.74 262.39 694.44 251.6 710.67 230.74 M 671.04 282.42 C 683.22 264.9 694.97 252.3 716.31 230.34 M 671.04 282.42 C 683.06 266.15 697.85 246.68 716.31 230.34 M 672.75 286.55 C 692.38 270.84 709.05 246.67 721.3 230.7 M 672.75 286.55 C 692.78 266.66 708.21 245.32 721.3 230.7 M 675.11 289.93 C 693.39 268.94 705.54 248.15 726.94 230.31 M 675.11 289.93 C 689.54 270.89 707.61 251.04 726.94 230.31 M 680.75 289.54 C 701.77 265.3 715.21 246.14 731.93 230.67 M 680.75 289.54 C 699.68 266.78 718.48 246.92 731.93 230.67 M 685.74 289.9 C 706.68 273.21 722.85 250.52 737.57 230.27 M 685.74 289.9 C 699.6 272.54 717.32 256.26 737.57 230.27 M 691.38 289.5 C 706.01 279.89 715.42 267.25 742.56 230.63 M 691.38 289.5 C 710.3 271.04 723.16 251.04 742.56 230.63 M 696.37 289.86 C 710.17 271.47 723.1 260.14 748.2 230.24 M 696.37 289.86 C 713.19 270.63 728.15 253.79 748.2 230.24 M 702.01 289.47 C 723.04 270.63 741.06 245.02 753.19 230.6 M 702.01 289.47 C 720.61 269.56 738.57 248.69 753.19 230.6 M 707 289.83 C 720.64 270.62 735.85 258.12 758.17 230.96 M 707 289.83 C 721.63 271.19 736.58 255.33 758.17 230.96 M 711.99 290.19 C 725.25 277.4 741.42 258.78 763.82 230.56 M 711.99 290.19 C 729.15 270.28 745.22 248.58 763.82 230.56 M 717.63 289.79 C 731.1 273.54 748.39 257.54 768.8 230.93 M 717.63 289.79 C 730.88 275.14 745.36 258.2 768.8 230.93 M 722.62 290.15 C 737.42 271.86 752.22 254.08 774.45 230.53 M 722.62 290.15 C 741.86 265.2 765.31 243.71 774.45 230.53 M 728.26 289.76 C 742.57 269.95 765.15 247.9 779.43 230.89 M 728.26 289.76 C 738.98 279.11 751.07 267.2 779.43 230.89 M 733.25 290.12 C 749.44 271.14 759.34 257.48 785.08 230.5 M 733.25 290.12 C 744.84 274.97 757.79 261.97 785.08 230.5 M 738.89 289.72 C 750.13 274.02 763.2 259.7 788.09 233.12 M 738.89 289.72 C 752.13 275.79 761.05 266.91 788.09 233.12 M 743.88 290.08 C 752.41 281.86 766.12 267.65 789.8 237.25 M 743.88 290.08 C 751.85 278.89 763.61 267.14 789.8 237.25 M 749.52 289.69 C 757.48 274.93 766.2 264.06 792.16 240.63 M 749.52 289.69 C 760.79 275.53 772.91 263.17 792.16 240.63 M 754.51 290.05 C 766.89 279.98 775.93 264.32 791.9 247.03 M 754.51 290.05 C 763.34 279.69 771.73 267.76 791.9 247.03 M 759.49 290.41 C 773.59 273.5 781.78 258.99 791.64 253.43 M 759.49 290.41 C 768.17 281.16 774.83 272.15 791.64 253.43 M 765.14 290.01 C 770.3 280.93 778.07 272.56 792.04 259.07 M 765.14 290.01 C 775.22 282.21 782.37 270.84 792.04 259.07 M 770.12 290.37 C 780.93 279.44 786.45 273.93 791.77 265.47 M 770.12 290.37 C 779.87 279.73 784.97 269.54 791.77 265.47 M 775.77 289.98 C 778.69 281.08 784.17 280.27 791.51 271.87 M 775.77 289.98 C 780.17 283.99 786.27 277.96 791.51 271.87 M 780.75 290.34 C 783.36 287.23 787.42 286.45 791.91 277.51 M 780.75 290.34 C 781.54 285.44 786.77 282.59 791.91 277.51" fill="none" stroke="#eef2ff" stroke-width="0.5" stroke-linejoin="round" stroke-linecap="round" stroke-miterlimit="10" pointer-events="all"/><path d="M 679 230 M 679 230 C 714.77 227.75 756.29 229.42 781 230 M 679 230 C 714.66 228.93 755.15 229.57 781 230 M 781 230 C 786.56 230.39 787.5 236.54 790 239 M 781 230 C 785.98 231.36 792.81 236.89 790 239 M 790 239 C 793.24 250.18 787.92 269.64 790 281 M 790 239 C 789.97 251.35 788.25 261.31 790 281 M 790 281 C 788.6 288.93 790.18 293.34 781 290 M 790 281 C 787.01 286.21 784.68 294.33 781 290 M 781 290 C 762.43 294.15 734.15 289.76 679 290 M 781 290 C 746.22 289.23 706.02 287.33 679 290 M 679 290 C 672.81 290.3 671.9 284.13 670 281 M 679 290 C 670.51 292.15 669.97 286.16 670 281 M 670 281 C 667.87 272.79 666.18 258.73 670 239 M 670 281 C 670.66 266.52 668.44 247.36 670 239 M 670 239 C 667.8 234.62 676.67 232.1 679 230 M 670 239 C 666.32 235.44 675.55 225.72 679 230" fill="none" stroke="#4f46e5" stroke-linejoin="round" stroke-linecap="round" stroke-miterlimit="10" pointer-events="all"/><g transform="translate(-0.5 -0.5)"><switch><foreignObject pointer-events="none" width="100%" height="100%" requiredFeatures="http://www.w3.org/TR/SVG11/feature#Extensibility" style="overflow: visible; text-align: left;"><div xmlns="http://www.w3.org/1999/xhtml" style="display: flex; align-items: unsafe center; justify-content: unsafe center; width: 118px; height: 1px; padding-top: 260px; margin-left: 671px;"><div data-drawio-colors="color: #1e1b4b; " style="box-sizing: border-box; font-size: 0px; text-align: center;"><div style="display: inline-block; font-size: 12px; font-family: Helvetica; color: rgb(30, 27, 75); line-height: 1.2; pointer-events: all; font-weight: bold; white-space: normal; overflow-wrap: normal;">FM (grounded)</div></div></div></foreignObject><text x="730" y="264" fill="#1e1b4b" font-family="Helvetica" font-size="12px" text-anchor="middle" font-weight="bold">FM (grounded)</text></switch></g><rect x="830" y="110" width="120" height="70" rx="14" ry="14" fill="none" stroke="none" pointer-events="all"/><path d="M 835.79 111.6 C 835.79 111.6 835.79 111.6 835.79 111.6 M 835.79 111.6 C 835.79 111.6 835.79 111.6 835.79 111.6 M 831.59 122.53 C 832.07 122.21 838.99 117.27 842.09 110.45 M 831.59 122.53 C 834.7 118.54 839.09 114.4 842.09 110.45 M 831.98 128.17 C 837.59 121.62 843.88 113.72 846.42 111.57 M 831.98 128.17 C 838.72 122.95 843.21 117.62 846.42 111.57 M 831.72 134.57 C 840.95 128.4 844.02 124.4 851.4 111.93 M 831.72 134.57 C 837.04 127.99 841.69 124.4 851.4 111.93 M 832.12 140.21 C 841.55 134.02 849.5 121.58 857.05 111.53 M 832.12 140.21 C 837.66 132.46 844.02 123.74 857.05 111.53 M 831.86 146.61 C 838.17 135.72 853.45 124.92 862.03 111.89 M 831.86 146.61 C 837.37 140.51 843.41 131 862.03 111.89 M 831.59 153.01 C 841.82 142.26 849.44 132.62 867.68 111.5 M 831.59 153.01 C 842.39 136.8 857.26 124.24 867.68 111.5 M 831.99 158.65 C 846.22 150.55 851.92 132.69 872.66 111.86 M 831.99 158.65 C 846.8 144.39 859.74 125.32 872.66 111.86 M 831.73 165.05 C 845.9 146.62 864.73 124.91 877.65 112.22 M 831.73 165.05 C 839.68 154 851.36 141.23 877.65 112.22 M 832.12 170.69 C 849.38 149.38 863.26 131.88 883.29 111.82 M 832.12 170.69 C 852 149.94 872.22 127.67 883.29 111.82 M 834.48 174.07 C 850.02 150.18 871.94 131.44 888.28 112.18 M 834.48 174.07 C 851.94 150.37 869.99 132.59 888.28 112.18 M 836.19 178.2 C 851.47 157.11 875.14 133.33 893.92 111.79 M 836.19 178.2 C 852.63 158.41 867.45 141.1 893.92 111.79 M 840.52 179.32 C 865.04 157.99 888.32 126.65 898.91 112.15 M 840.52 179.32 C 856.94 157.41 877.91 137.27 898.91 112.15 M 844.85 180.43 C 867.48 159.07 884.99 131.9 904.55 111.76 M 844.85 180.43 C 864.78 157.99 883.72 137.23 904.55 111.76 M 849.84 180.79 C 868.04 160.98 886.32 139.89 909.54 112.12 M 849.84 180.79 C 864.79 161.53 879.56 146.74 909.54 112.12 M 855.48 180.4 C 866.25 164.71 882.86 149.48 915.19 111.72 M 855.48 180.4 C 876.17 157.9 897.05 133.82 915.19 111.72 M 860.47 180.76 C 883.74 158.46 898.07 136.89 920.17 112.08 M 860.47 180.76 C 880.91 160.23 896.94 139.58 920.17 112.08 M 866.11 180.36 C 886.23 156.84 910.65 130.8 925.82 111.69 M 866.11 180.36 C 882.11 161.38 902.93 142.01 925.82 111.69 M 871.1 180.72 C 895.08 153.05 911.57 125.32 930.8 112.05 M 871.1 180.72 C 883.5 167.18 894.61 153.82 930.8 112.05 M 876.74 180.33 C 891.98 165.81 904.76 147.23 937.1 110.9 M 876.74 180.33 C 898.53 153.56 919.99 130.57 937.1 110.9 M 881.73 180.69 C 892.05 168.33 908.96 146.59 941.43 112.01 M 881.73 180.69 C 899.28 155.78 920.85 133.29 941.43 112.01 M 887.37 180.3 C 900.38 167.96 915.39 154.92 945.76 113.13 M 887.37 180.3 C 906.42 155.26 927.53 135.26 945.76 113.13 M 892.36 180.66 C 905.21 163.16 921.56 148.1 948.78 115.75 M 892.36 180.66 C 913 154.28 930.94 130.7 948.78 115.75 M 898 180.26 C 911.32 166.47 928.21 148.2 949.83 120.64 M 898 180.26 C 913.3 161.5 930.9 140.65 949.83 120.64 M 902.99 180.62 C 914.66 165.51 922.63 151.09 951.54 124.77 M 902.99 180.62 C 915.85 165.98 931.83 149.19 951.54 124.77 M 907.98 180.98 C 924.17 163.26 933.02 148.32 951.28 131.17 M 907.98 180.98 C 918.96 168.67 927.21 157.74 951.28 131.17 M 913.62 180.59 C 926.49 167.82 939.59 150.33 951.02 137.57 M 913.62 180.59 C 919.68 170.95 930.72 164.42 951.02 137.57 M 918.61 180.95 C 926.44 169.4 936.53 163.3 951.41 143.21 M 918.61 180.95 C 927.24 173.31 936.49 161.58 951.41 143.21 M 924.25 180.55 C 932.82 172.6 933.69 164.98 951.15 149.61 M 924.25 180.55 C 932.8 171.15 940.64 164.17 951.15 149.61 M 929.24 180.91 C 938.37 175.24 942.03 168.27 951.54 155.25 M 929.24 180.91 C 937.53 169.91 945.43 163.26 951.54 155.25 M 934.88 180.52 C 936.2 175 944.89 167.87 951.28 161.65 M 934.88 180.52 C 940.97 172.32 947.15 163.37 951.28 161.65 M 938.56 182.39 C 941.8 174.26 944.02 168.58 951.68 167.29 M 938.56 182.39 C 943.06 176.03 946.73 173.84 951.68 167.29" fill="none" stroke="#f8fafc" stroke-width="0.5" stroke-linejoin="round" stroke-linecap="round" stroke-miterlimit="10" pointer-events="all"/><path d="M 844 110 M 844 110 C 866.99 110.09 885.81 110.78 936 110 M 844 110 C 874.53 109.94 907.13 111.27 936 110 M 936 110 C 945.79 111.13 949.19 117.2 950 124 M 936 110 C 947.34 111.58 949.8 114.83 950 124 M 950 124 C 947.76 142.58 947.85 155.83 950 166 M 950 124 C 948.38 138.63 949.61 158.98 950 166 M 950 166 C 947.77 172.54 946.06 183.08 936 180 M 950 166 C 953.25 179.02 944.33 184.52 936 180 M 936 180 C 907.02 183.28 884.41 183.03 844 180 M 936 180 C 902.75 177.96 869.78 180.37 844 180 M 844 180 C 834.93 181.86 829.68 178.25 830 166 M 844 180 C 835.65 180.97 831.24 171.78 830 166 M 830 166 C 827.01 153.56 831.28 149.44 830 124 M 830 166 C 827.75 154.34 829.08 140.44 830 124 M 830 124 C 831.72 113.05 830.79 106.78 844 110 M 830 124 C 832.06 117.87 831.38 109.74 844 110" fill="none" stroke="#64748b" stroke-linejoin="round" stroke-linecap="round" stroke-miterlimit="10" pointer-events="all"/><g transform="translate(-0.5 -0.5)"><switch><foreignObject pointer-events="none" width="100%" height="100%" requiredFeatures="http://www.w3.org/TR/SVG11/feature#Extensibility" style="overflow: visible; text-align: left;"><div xmlns="http://www.w3.org/1999/xhtml" style="display: flex; align-items: unsafe center; justify-content: unsafe center; width: 118px; height: 1px; padding-top: 145px; margin-left: 831px;"><div data-drawio-colors="color: #1e1b4b; " style="box-sizing: border-box; font-size: 0px; text-align: center;"><div style="display: inline-block; font-size: 12px; font-family: Helvetica; color: rgb(30, 27, 75); line-height: 1.2; pointer-events: all; white-space: normal; overflow-wrap: normal;">Answer +<br />media citations</div></div></div></foreignObject><text x="890" y="149" fill="#1e1b4b" font-family="Helvetica" font-size="12px" text-anchor="middle">Answer +...</text></switch></g><path d="M 170 260 L 199.76 260" fill="none" stroke="none" pointer-events="stroke"/><path d="M 207.76 260 L 199.76 264 L 199.76 256 Z" fill="none" stroke="none" pointer-events="all"/><path d="M 170 260 M 170 260 C 173.51 260.2 184.89 255.88 199.76 260 M 170 260 C 180.03 259.24 192.35 259.66 199.76 260" fill="none" stroke="#16a34a" stroke-width="2" stroke-linejoin="round" stroke-linecap="round" stroke-miterlimit="10" pointer-events="stroke"/><path d="M 199.92 255.81 C 199.92 255.81 199.92 255.81 199.92 255.81 M 199.92 255.81 C 199.92 255.81 199.92 255.81 199.92 255.81 M 202.03 265.59 C 205.7 261.62 206.61 260.72 207.27 259.55 M 202.03 265.59 C 204.12 262.65 205.98 261.14 207.27 259.55" fill="none" stroke="#16a34a" stroke-linejoin="round" stroke-linecap="round" stroke-miterlimit="10" pointer-events="all"/><path d="M 207.76 260 M 207.76 260 C 205.73 260.58 201.66 261.48 199.76 264 M 207.76 260 C 205.17 262.04 202.11 262.92 199.76 264 M 199.76 264 C 198.24 263.11 200.3 261.85 199.76 256 M 199.76 264 C 200.6 261.67 200.63 259.78 199.76 256 M 199.76 256 C 201.43 259.04 205.87 257.69 207.76 260 M 199.76 256 C 201.95 257.26 203.05 257.71 207.76 260" fill="none" stroke="#16a34a" stroke-width="2" stroke-linejoin="round" stroke-linecap="round" stroke-miterlimit="10" pointer-events="all"/><path d="M 390 235.93 L 660.11 163.69" fill="none" stroke="none" pointer-events="stroke"/><path d="M 667.84 161.62 L 661.14 167.56 L 659.08 159.83 Z" fill="none" stroke="none" pointer-events="all"/><path d="M 390 235.93 M 390 235.93 C 451.23 219.02 506.08 206.36 660.11 163.69 M 390 235.93 C 446.29 223.5 505.17 207.14 660.11 163.69" fill="none" stroke="#9673a6" stroke-width="2" stroke-linejoin="round" stroke-linecap="round" stroke-miterlimit="10" pointer-events="stroke"/><path d="M 659.3 159.58 C 659.3 159.58 659.3 159.58 659.3 159.58 M 659.3 159.58 C 659.3 159.58 659.3 159.58 659.3 159.58" fill="none" stroke="#9673a6" stroke-linejoin="round" stroke-linecap="round" stroke-miterlimit="10" pointer-events="all"/><path d="M 667.84 161.62 M 667.84 161.62 C 667.81 163.08 663.96 164.89 661.14 167.56 M 667.84 161.62 C 665.14 164.41 663.58 165.24 661.14 167.56 M 661.14 167.56 C 660.33 165.86 659.92 164.66 659.08 159.83 M 661.14 167.56 C 659.78 165.32 659.45 161.19 659.08 159.83 M 659.08 159.83 C 662.84 161.2 665.1 160.34 667.84 161.62 M 659.08 159.83 C 660.87 160.21 663.3 161.13 667.84 161.62" fill="none" stroke="#9673a6" stroke-width="2" stroke-linejoin="round" stroke-linecap="round" stroke-miterlimit="10" pointer-events="all"/><g fill="#64748b" font-family="Helvetica" text-anchor="middle" font-size="9px"><rect fill="rgb(255, 255, 255)" stroke="none" x="487" y="193" width="87" height="12" stroke-width="0"/><text x="529.58" y="201.47">retrieve (crossmodal)</text></g><path d="M 730 180 L 730 219.76" fill="none" stroke="none" pointer-events="stroke"/><path d="M 730 227.76 L 726 219.76 L 734 219.76 Z" fill="none" stroke="none" pointer-events="all"/><path d="M 730 180 M 730 180 C 730.5 185.23 730.67 198.4 730 219.76 M 730 180 C 730.92 191.88 731.35 204.56 730 219.76" fill="none" stroke="#4f46e5" stroke-width="2" stroke-linejoin="round" stroke-linecap="round" stroke-miterlimit="10" pointer-events="stroke"/><path d="M 725.77 220.02 C 725.77 220.02 725.77 220.02 725.77 220.02 M 725.77 220.02 C 725.77 220.02 725.77 220.02 725.77 220.02 M 729.84 227.53 C 732.47 224.16 734.27 225.23 735.75 220.74 M 729.84 227.53 C 732.27 225.82 733.89 222.26 735.75 220.74" fill="none" stroke="#4f46e5" stroke-linejoin="round" stroke-linecap="round" stroke-miterlimit="10" pointer-events="all"/><path d="M 730 227.76 M 730 227.76 C 728.27 227.35 729.28 224.25 726 219.76 M 730 227.76 C 729.71 226.87 728.48 224.55 726 219.76 M 726 219.76 C 727.76 220.38 729.79 220.5 734 219.76 M 726 219.76 C 727.76 219.59 729.72 219.88 734 219.76 M 734 219.76 C 731.06 223.4 732.88 226.26 730 227.76 M 734 219.76 C 733.16 221.55 731.61 222.75 730 227.76" fill="none" stroke="#4f46e5" stroke-width="2" stroke-linejoin="round" stroke-linecap="round" stroke-miterlimit="10" pointer-events="all"/><g fill="#64748b" font-family="Helvetica" text-anchor="middle" font-size="9px"><rect fill="rgb(255, 255, 255)" stroke="none" x="704" y="200" width="54" height="12" stroke-width="0"/><text x="729.5" y="208">top-k context</text></g><path d="M 771.74 230 L 832.99 185.97" fill="none" stroke="none" pointer-events="stroke"/><path d="M 839.49 181.31 L 835.33 189.22 L 830.66 182.73 Z" fill="none" stroke="none" pointer-events="all"/><path d="M 771.74 230 M 771.74 230 C 783.05 222.32 802.26 209.58 832.99 185.97 M 771.74 230 C 792.26 214.56 813.8 198.5 832.99 185.97" fill="none" stroke="#4f46e5" stroke-width="2" stroke-linejoin="round" stroke-linecap="round" stroke-miterlimit="10" pointer-events="stroke"/><path d="M 830.69 182.7 C 830.69 182.7 830.69 182.7 830.69 182.7 M 830.69 182.7 C 830.69 182.7 830.69 182.7 830.69 182.7" fill="none" stroke="#4f46e5" stroke-linejoin="round" stroke-linecap="round" stroke-miterlimit="10" pointer-events="all"/><path d="M 839.49 181.31 M 839.49 181.31 C 838.87 184.19 836.86 184.61 835.33 189.22 M 839.49 181.31 C 838.35 183.88 837.68 186.4 835.33 189.22 M 835.33 189.22 C 832.31 185.67 830.58 183.21 830.66 182.73 M 835.33 189.22 C 833.87 186.81 833.16 185.32 830.66 182.73 M 830.66 182.73 C 834.3 183.05 836.49 180.89 839.49 181.31 M 830.66 182.73 C 834.52 182.29 836.38 181.96 839.49 181.31" fill="none" stroke="#4f46e5" stroke-width="2" stroke-linejoin="round" stroke-linecap="round" stroke-miterlimit="10" pointer-events="all"/><rect x="210" y="295" width="380" height="20" fill="none" stroke="none" pointer-events="all"/><g transform="translate(-0.5 -0.5)"><switch><foreignObject pointer-events="none" width="100%" height="100%" requiredFeatures="http://www.w3.org/TR/SVG11/feature#Extensibility" style="overflow: visible; text-align: left;"><div xmlns="http://www.w3.org/1999/xhtml" style="display: flex; align-items: unsafe center; justify-content: unsafe center; width: 1px; height: 1px; padding-top: 305px; margin-left: 400px;"><div data-drawio-colors="color: #64748b; " style="box-sizing: border-box; font-size: 0px; text-align: center;"><div style="display: inline-block; font-size: 9px; font-family: Helvetica; color: rgb(100, 116, 139); line-height: 1.2; pointer-events: all; font-style: italic; white-space: nowrap;">Same multimodal model at index + query time — across modalities</div></div></div></foreignObject><text x="400" y="308" fill="#64748b" font-family="Helvetica" font-size="9px" text-anchor="middle" font-style="italic">Same multimodal model at index + query time — across modalities</text></switch></g><rect x="0" y="350" width="110" height="20" fill="none" stroke="none" pointer-events="all"/><g transform="translate(-0.5 -0.5)"><switch><foreignObject pointer-events="none" width="100%" height="100%" requiredFeatures="http://www.w3.org/TR/SVG11/feature#Extensibility" style="overflow: visible; text-align: left;"><div xmlns="http://www.w3.org/1999/xhtml" style="display: flex; align-items: unsafe center; justify-content: unsafe flex-start; width: 1px; height: 1px; padding-top: 360px; margin-left: 2px;"><div data-drawio-colors="color: #64748b; " style="box-sizing: border-box; font-size: 0px; text-align: left;"><div style="display: inline-block; font-size: 10px; font-family: Helvetica; color: rgb(100, 116, 139); line-height: 1.2; pointer-events: all; font-weight: bold; white-space: nowrap;">GENERATION</div></div></div></foreignObject><text x="2" y="363" fill="#64748b" font-family="Helvetica" font-size="10px" font-weight="bold">GENERATION</text></switch></g><rect x="0" y="375" width="130" height="45" rx="6.75" ry="6.75" fill="none" stroke="none" pointer-events="all"/><path d="M 1.87 376.48 C 1.87 376.48 1.87 376.48 1.87 376.48 M 1.87 376.48 C 1.87 376.48 1.87 376.48 1.87 376.48 M 1.61 382.87 C 4.57 381.09 5.92 381.01 7.52 376.08 M 1.61 382.87 C 3.47 381.61 4.05 380.29 7.52 376.08 M 1.35 389.27 C 0.77 385.66 9.34 381.21 13.16 375.69 M 1.35 389.27 C 4.3 385.62 11.56 380.67 13.16 375.69 M 1.74 394.91 C 9.24 384.64 11.58 379.4 18.15 376.05 M 1.74 394.91 C 7.17 389.91 8.89 383.74 18.15 376.05 M 1.48 401.31 C 10.88 395.05 13.19 390 23.79 375.65 M 1.48 401.31 C 7.17 393.87 16.48 385.78 23.79 375.65 M 1.22 407.71 C 5.99 399.8 19.12 387.81 28.78 376.01 M 1.22 407.71 C 7.1 397.1 18.49 391.6 28.78 376.01 M 0.96 414.11 C 6.55 404.08 18.02 389.38 34.42 375.62 M 0.96 414.11 C 8.78 403.91 16.78 396.29 34.42 375.62 M 3.32 417.49 C 17.99 403 23.49 391.13 39.41 375.98 M 3.32 417.49 C 15.35 401.51 27.35 389.15 39.41 375.98 M 5.68 420.87 C 14.42 407.92 26.22 395.45 44.39 376.34 M 5.68 420.87 C 21.7 404.29 33.65 385.84 44.39 376.34 M 10.67 421.23 C 22.23 410.65 37.21 398.71 50.04 375.94 M 10.67 421.23 C 22.43 405.34 34.22 393.64 50.04 375.94 M 16.31 420.83 C 31.29 399.01 49.63 388.29 55.02 376.3 M 16.31 420.83 C 24.93 408.18 37.08 397.34 55.02 376.3 M 21.3 421.19 C 35.67 408.67 43.42 392.98 60.67 375.91 M 21.3 421.19 C 30.99 410.05 40.72 401.35 60.67 375.91 M 26.95 420.8 C 37.28 410.6 49.59 392.94 65.65 376.27 M 26.95 420.8 C 39.05 407.66 54.22 391.82 65.65 376.27 M 31.93 421.16 C 40.21 405.59 56.68 394.17 71.3 375.87 M 31.93 421.16 C 44.66 405.4 57.19 392.13 71.3 375.87 M 36.92 421.52 C 47.95 409.25 60.25 390.9 76.28 376.23 M 36.92 421.52 C 54.71 403.4 66.68 386.25 76.28 376.23 M 42.56 421.12 C 57.64 409.03 63.65 391.27 81.93 375.84 M 42.56 421.12 C 54.23 407.75 62.88 394.18 81.93 375.84 M 47.55 421.48 C 57.15 413.73 65.54 400.39 86.91 376.2 M 47.55 421.48 C 61.68 406.18 74.85 387.63 86.91 376.2 M 53.19 421.09 C 71.56 400.78 86.44 387.66 92.56 375.8 M 53.19 421.09 C 63.1 409.05 75.88 397.82 92.56 375.8 M 58.18 421.45 C 76.5 404.91 90.63 389.22 97.54 376.16 M 58.18 421.45 C 72.88 407.59 87.39 389.39 97.54 376.16 M 63.82 421.05 C 76.68 408.27 91.46 387.25 102.53 376.52 M 63.82 421.05 C 73.7 405.29 87.78 392.01 102.53 376.52 M 68.81 421.41 C 81.59 404.88 88.54 392.84 108.17 376.13 M 68.81 421.41 C 84.2 404.01 96.35 390.09 108.17 376.13 M 74.45 421.02 C 86.55 400.43 105.92 387.78 113.16 376.49 M 74.45 421.02 C 89.61 403.42 106.46 385.73 113.16 376.49 M 79.44 421.38 C 88.66 412.2 99.87 403.31 118.8 376.1 M 79.44 421.38 C 93.9 404.19 108.74 392.08 118.8 376.1 M 85.08 420.98 C 94.73 414.96 102.18 405.09 123.79 376.46 M 85.08 420.98 C 97.34 405.86 112.98 390.19 123.79 376.46 M 90.07 421.34 C 100.61 412.17 107.17 397.77 128.12 377.57 M 90.07 421.34 C 106.14 402.46 117.45 386.88 128.12 377.57 M 95.06 421.7 C 103.69 404.99 117.23 390.86 130.48 380.95 M 95.06 421.7 C 104.54 411.27 114.93 397.66 130.48 380.95 M 100.7 421.31 C 115 407.17 118.03 395.98 132.85 384.33 M 100.7 421.31 C 111.02 410.3 121.59 396.18 132.85 384.33 M 105.69 421.67 C 116.96 408.14 123.88 403.22 132.59 390.73 M 105.69 421.67 C 112.78 415.65 117.6 406.73 132.59 390.73 M 111.33 421.27 C 114.84 416.11 123.59 405.31 132.98 396.37 M 111.33 421.27 C 117.58 410.59 128.06 402.45 132.98 396.37 M 116.32 421.64 C 119.44 411.8 126.71 404.62 132.72 402.77 M 116.32 421.64 C 120.96 416.69 124.57 412.07 132.72 402.77 M 121.96 421.24 C 125.62 419.91 129.9 413.05 132.46 409.17 M 121.96 421.24 C 124.8 415.74 128.29 412 132.46 409.17" fill="none" stroke="#fff2cc" stroke-width="0.5" stroke-linejoin="round" stroke-linecap="round" stroke-miterlimit="10" pointer-events="all"/><path d="M 6.75 375 M 6.75 375 C 39.86 376 76.46 372.47 123.25 375 M 6.75 375 C 36.82 375.68 70.54 378.45 123.25 375 M 123.25 375 C 124.15 378.12 126.19 374.77 130 381.75 M 123.25 375 C 124.77 371.19 128.66 372.67 130 381.75 M 130 381.75 C 131.6 392.51 128.92 401.66 130 413.25 M 130 381.75 C 128.65 390.94 131.07 399.12 130 413.25 M 130 413.25 C 127.43 418.5 128.46 419.27 123.25 420 M 130 413.25 C 133.41 413.52 129.98 418.42 123.25 420 M 123.25 420 C 98.54 415.08 74.33 416.1 6.75 420 M 123.25 420 C 98.31 416.64 71.8 417.53 6.75 420 M 6.75 420 C 4.6 421.44 -3.72 416.19 0 413.25 M 6.75 420 C 2.51 421.92 3.5 416.67 0 413.25 M 0 413.25 C -2.56 403.04 2.43 394.61 0 381.75 M 0 413.25 C 1.89 404.18 1.29 395.92 0 381.75 M 0 381.75 C 0.86 380.48 6.2 372.54 6.75 375 M 0 381.75 C -1.21 373.05 4.51 373.46 6.75 375" fill="none" stroke="#d6b656" stroke-linejoin="round" stroke-linecap="round" stroke-miterlimit="10" pointer-events="all"/><g transform="translate(-0.5 -0.5)"><switch><foreignObject pointer-events="none" width="100%" height="100%" requiredFeatures="http://www.w3.org/TR/SVG11/feature#Extensibility" style="overflow: visible; text-align: left;"><div xmlns="http://www.w3.org/1999/xhtml" style="display: flex; align-items: unsafe center; justify-content: unsafe center; width: 128px; height: 1px; padding-top: 398px; margin-left: 1px;"><div data-drawio-colors="color: #1e1b4b; " style="box-sizing: border-box; font-size: 0px; text-align: center;"><div style="display: inline-block; font-size: 12px; font-family: Helvetica; color: rgb(30, 27, 75); line-height: 1.2; pointer-events: all; white-space: normal; overflow-wrap: normal;">Nova Canvas<br />(image)</div></div></div></foreignObject><text x="65" y="401" fill="#1e1b4b" font-family="Helvetica" font-size="12px" text-anchor="middle">Nova Canvas...</text></switch></g><rect x="145" y="375" width="130" height="45" rx="6.75" ry="6.75" fill="none" stroke="none" pointer-events="all"/><path d="M 146.79 376.57 C 146.79 376.57 146.79 376.57 146.79 376.57 M 146.79 376.57 C 146.79 376.57 146.79 376.57 146.79 376.57 M 146.53 382.97 C 147.04 380.68 148.3 380.63 152.43 376.18 M 146.53 382.97 C 149.33 381.14 150.97 378.99 152.43 376.18 M 146.26 389.37 C 145.91 385.12 151.92 385.58 158.07 375.78 M 146.26 389.37 C 147.88 387.48 150.44 382.44 158.07 375.78 M 146.66 395.01 C 150.12 391.41 159.18 384.4 163.06 376.14 M 146.66 395.01 C 150.16 389.91 157.29 383.86 163.06 376.14 M 146.4 401.41 C 150.04 393.85 158.82 381.61 168.7 375.75 M 146.4 401.41 C 155.6 391.7 161.85 385.15 168.7 375.75 M 146.79 407.05 C 156.41 399.74 163.28 387.13 173.69 376.11 M 146.79 407.05 C 155.89 399.89 162.42 390.78 173.69 376.11 M 145.87 414.2 C 155.68 404.39 169.01 391.86 179.33 375.71 M 145.87 414.2 C 156.81 399.4 173.15 382.96 179.33 375.71 M 148.24 417.58 C 160.83 402.77 179.14 383.01 184.32 376.07 M 148.24 417.58 C 155.62 408.85 165.17 398.52 184.32 376.07 M 150.6 420.96 C 158.61 411.36 168.95 399.75 189.96 375.68 M 150.6 420.96 C 159.96 410.45 169.1 399.23 189.96 375.68 M 155.59 421.32 C 172.63 401.33 185.61 390.28 194.95 376.04 M 155.59 421.32 C 167.75 410.34 177.38 397.43 194.95 376.04 M 161.23 420.93 C 171.95 410.58 176.08 398.96 200.59 375.65 M 161.23 420.93 C 173.22 404.52 188.21 387.84 200.59 375.65 M 166.22 421.29 C 180.26 408.21 195.97 391.1 205.58 376.01 M 166.22 421.29 C 183.36 404.89 194.82 386.21 205.58 376.01 M 171.86 420.89 C 184.6 404.25 198.15 390.26 210.57 376.37 M 171.86 420.89 C 180.19 409.14 190.81 400.48 210.57 376.37 M 176.85 421.25 C 189.05 412.88 200.48 400.49 216.21 375.97 M 176.85 421.25 C 184.86 412.52 193.01 404.18 216.21 375.97 M 182.49 420.86 C 199.87 400.47 209.86 382.45 221.2 376.33 M 182.49 420.86 C 188.96 410.44 198.1 403.19 221.2 376.33 M 187.48 421.22 C 200.71 406.92 211.63 392.6 226.84 375.94 M 187.48 421.22 C 199.04 406.32 211.26 391.51 226.84 375.94 M 192.46 421.58 C 206.91 409.07 216.51 395.67 231.83 376.3 M 192.46 421.58 C 205.87 405.12 220.02 391.42 231.83 376.3 M 198.11 421.18 C 203.94 411.76 212.51 398.51 237.47 375.9 M 198.11 421.18 C 213.61 405.58 226.96 386.4 237.47 375.9 M 203.09 421.54 C 215.2 406.74 228.31 391.37 242.46 376.26 M 203.09 421.54 C 219.98 403.62 235.87 385.54 242.46 376.26 M 208.74 421.15 C 220.94 410.66 222.78 405.57 248.1 375.87 M 208.74 421.15 C 221.13 407.87 234.97 391.39 248.1 375.87 M 213.73 421.51 C 223.92 413.81 235.47 402.06 253.09 376.23 M 213.73 421.51 C 228.4 404.59 239.98 389.98 253.09 376.23 M 219.37 421.12 C 231.76 406.83 243.04 390.37 258.08 376.59 M 219.37 421.12 C 229.89 410.27 238.24 399.24 258.08 376.59 M 224.36 421.48 C 234.58 410.38 239.49 402.06 263.72 376.19 M 224.36 421.48 C 240.5 406 257.3 384.4 263.72 376.19 M 230 421.08 C 242.35 408.85 256.04 388.73 268.71 376.55 M 230 421.08 C 245.46 405.29 261.94 383.77 268.71 376.55 M 234.99 421.44 C 246.16 409.21 260.19 393.02 273.04 377.67 M 234.99 421.44 C 245.71 412.76 251.63 404.28 273.04 377.67 M 240.63 421.05 C 246.77 408.13 261.9 396.3 275.4 381.05 M 240.63 421.05 C 250.51 411.31 260.52 401.73 275.4 381.05 M 245.62 421.41 C 253.54 415.56 258.74 402.19 277.76 384.43 M 245.62 421.41 C 258.11 409.78 268.15 395.26 277.76 384.43 M 250.6 421.77 C 254.85 413.2 265.26 404.75 277.5 390.82 M 250.6 421.77 C 258.46 412.11 267.12 401.16 277.5 390.82 M 256.25 421.37 C 264.77 419.06 262.81 408.9 277.9 396.47 M 256.25 421.37 C 262.59 412.75 269.18 404.95 277.9 396.47 M 261.23 421.73 C 270.96 418.13 271.53 409.56 277.63 402.86 M 261.23 421.73 C 267.3 416.37 272.8 409.51 277.63 402.86 M 266.88 421.34 C 267 420.28 272.14 412.35 277.37 409.26 M 266.88 421.34 C 270.61 417.2 272.94 415.34 277.37 409.26" fill="none" stroke="#d5e8d4" stroke-width="0.5" stroke-linejoin="round" stroke-linecap="round" stroke-miterlimit="10" pointer-events="all"/><path d="M 151.75 375 M 151.75 375 C 187.49 378.32 227.06 378.54 268.25 375 M 151.75 375 C 194.34 378.13 237.94 375.89 268.25 375 M 268.25 375 C 269.35 374.87 275.75 377.69 275 381.75 M 268.25 375 C 275.43 379.14 279.41 379.55 275 381.75 M 275 381.75 C 276.43 389.65 275.8 396.14 275 413.25 M 275 381.75 C 276.09 389.75 274.49 395.32 275 413.25 M 275 413.25 C 274.12 415.04 276.49 418.91 268.25 420 M 275 413.25 C 277.36 414.27 273.43 415.45 268.25 420 M 268.25 420 C 223.39 419.59 179.56 418.95 151.75 420 M 268.25 420 C 226.01 419.16 186.48 421.7 151.75 420 M 151.75 420 C 148.74 418.19 147.7 416.45 145 413.25 M 151.75 420 C 149.62 423.04 140.96 415.57 145 413.25 M 145 413.25 C 148.46 404.14 147.95 396.07 145 381.75 M 145 413.25 C 143.24 399.94 145.65 390.45 145 381.75 M 145 381.75 C 147.66 380.63 144.39 371.48 151.75 375 M 145 381.75 C 145.61 378.43 145.54 370.69 151.75 375" fill="none" stroke="#16a34a" stroke-linejoin="round" stroke-linecap="round" stroke-miterlimit="10" pointer-events="all"/><g transform="translate(-0.5 -0.5)"><switch><foreignObject pointer-events="none" width="100%" height="100%" requiredFeatures="http://www.w3.org/TR/SVG11/feature#Extensibility" style="overflow: visible; text-align: left;"><div xmlns="http://www.w3.org/1999/xhtml" style="display: flex; align-items: unsafe center; justify-content: unsafe center; width: 128px; height: 1px; padding-top: 398px; margin-left: 146px;"><div data-drawio-colors="color: #1e1b4b; " style="box-sizing: border-box; font-size: 0px; text-align: center;"><div style="display: inline-block; font-size: 12px; font-family: Helvetica; color: rgb(30, 27, 75); line-height: 1.2; pointer-events: all; white-space: normal; overflow-wrap: normal;">Nova Reel<br />(video)</div></div></div></foreignObject><text x="210" y="401" fill="#1e1b4b" font-family="Helvetica" font-size="12px" text-anchor="middle">Nova Reel...</text></switch></g><rect x="290" y="375" width="150" height="45" rx="6.75" ry="6.75" fill="none" stroke="none" pointer-events="all"/><path d="M 291.7 376.67 C 291.7 376.67 291.7 376.67 291.7 376.67 M 291.7 376.67 C 291.7 376.67 291.7 376.67 291.7 376.67 M 291.44 383.07 C 292.94 378.9 296.08 379.47 298 375.52 M 291.44 383.07 C 294.04 380.22 296.7 377.29 298 375.52 M 291.18 389.46 C 292.01 387.04 299.1 384.45 302.99 375.88 M 291.18 389.46 C 293.65 383.55 299.06 379.67 302.99 375.88 M 291.57 395.11 C 295.74 386.97 297.14 387.26 307.98 376.24 M 291.57 395.11 C 296.1 386.68 301.25 381.59 307.98 376.24 M 291.31 401.51 C 295.99 395.4 308.97 386.78 313.62 375.85 M 291.31 401.51 C 298.57 393.81 302.96 386.44 313.62 375.85 M 291.71 407.15 C 300.95 398.71 306.21 391.05 318.61 376.21 M 291.71 407.15 C 299.6 399.27 307.19 393.4 318.61 376.21 M 290.79 414.3 C 298.15 406.46 306.88 397.48 324.25 375.81 M 290.79 414.3 C 298.09 404.39 308.29 396.78 324.25 375.81 M 293.15 417.68 C 304.35 404.44 319.8 386.59 329.24 376.17 M 293.15 417.68 C 305.47 403.91 314.38 393.84 329.24 376.17 M 295.52 421.06 C 308.88 410.62 315 396.88 334.88 375.78 M 295.52 421.06 C 305.29 407.67 319.4 394.83 334.88 375.78 M 300.5 421.42 C 311.22 408.96 321.87 396.44 339.87 376.14 M 300.5 421.42 C 312.07 409.02 323.38 396.89 339.87 376.14 M 306.15 421.02 C 313.14 411.41 320.7 398.09 345.51 375.74 M 306.15 421.02 C 320.1 406.2 331.46 391.16 345.51 375.74 M 311.13 421.38 C 320.76 415.65 330.33 406.36 350.5 376.1 M 311.13 421.38 C 322.55 406.45 334.05 391.77 350.5 376.1 M 316.78 420.99 C 333.18 407.77 342.02 388.73 356.14 375.71 M 316.78 420.99 C 331.12 408.27 343.51 390.23 356.14 375.71 M 321.76 421.35 C 329.72 410.75 342.6 395.64 361.13 376.07 M 321.76 421.35 C 332.02 406.91 346.84 394.83 361.13 376.07 M 327.41 420.96 C 342.52 406.96 353.61 395.76 366.11 376.43 M 327.41 420.96 C 338.49 408.69 346.22 399.39 366.11 376.43 M 332.39 421.32 C 342.48 405.13 354.9 394.64 371.76 376.03 M 332.39 421.32 C 345.05 405.88 358.3 392.05 371.76 376.03 M 338.04 420.92 C 347.48 405.57 357.49 397.17 376.74 376.39 M 338.04 420.92 C 348.08 410.37 357.93 394.45 376.74 376.39 M 343.02 421.28 C 353.01 406.86 365.3 402.32 382.39 376 M 343.02 421.28 C 354.65 408.77 361.2 400.6 382.39 376 M 348.67 420.89 C 359.97 413.76 367.11 396.48 387.37 376.36 M 348.67 420.89 C 357.83 408.76 366.7 400.8 387.37 376.36 M 353.65 421.25 C 369.29 402.85 377.99 386.25 393.02 375.96 M 353.65 421.25 C 363.04 412.12 369.04 403.42 393.02 375.96 M 358.64 421.61 C 371.57 403.99 386.11 395.78 398 376.32 M 358.64 421.61 C 373.79 404.26 390.21 388.43 398 376.32 M 364.28 421.21 C 381.28 399.66 391.79 388.25 403.65 375.93 M 364.28 421.21 C 374.68 408.95 385.35 397.24 403.65 375.93 M 369.27 421.57 C 378.86 409.36 389.2 389.44 408.63 376.29 M 369.27 421.57 C 380.16 406.9 394.03 395.03 408.63 376.29 M 374.91 421.18 C 382.52 410.89 393.29 399.99 414.28 375.9 M 374.91 421.18 C 387.15 406.25 398.49 393.44 414.28 375.9 M 379.9 421.54 C 391.73 404.13 407.08 389.1 419.26 376.26 M 379.9 421.54 C 392.68 403.92 408.95 389.81 419.26 376.26 M 385.54 421.14 C 400.14 399.47 414.6 386.69 424.91 375.86 M 385.54 421.14 C 396.88 409.58 407.38 398.25 424.91 375.86 M 390.53 421.5 C 404.26 404.3 412.78 394.48 429.89 376.22 M 390.53 421.5 C 401.24 406.7 413.75 390.85 429.89 376.22 M 396.17 421.11 C 407.8 414.91 411.27 398.59 434.88 376.58 M 396.17 421.11 C 406.53 408.84 412.65 402.11 434.88 376.58 M 401.16 421.47 C 413.47 409.85 424.3 395.34 439.21 377.7 M 401.16 421.47 C 412.55 406.26 429.07 389.35 439.21 377.7 M 406.8 421.07 C 413.17 411.01 423.33 396.51 440.26 382.58 M 406.8 421.07 C 415.26 413.98 422.36 404.48 440.26 382.58 M 411.79 421.43 C 418.7 410.71 426.97 405.84 440.66 388.23 M 411.79 421.43 C 420.29 409.76 430.57 398.2 440.66 388.23 M 416.78 421.79 C 423.91 411.8 429.12 405.9 440.4 394.63 M 416.78 421.79 C 424.01 415.89 426.56 410.05 440.4 394.63 M 422.42 421.4 C 424.53 417.59 430.75 409.39 440.13 401.02 M 422.42 421.4 C 426.91 416.13 430.65 412.81 440.13 401.02 M 427.41 421.76 C 433.81 414.83 434.94 413.54 440.53 406.67 M 427.41 421.76 C 430.58 417.21 436.01 411.28 440.53 406.67 M 433.71 420.61 C 434.81 417.08 438.11 417.3 440.27 413.06 M 433.71 420.61 C 435.76 417.28 439.62 414.5 440.27 413.06" fill="none" stroke="#e1d5e7" stroke-width="0.5" stroke-linejoin="round" stroke-linecap="round" stroke-miterlimit="10" pointer-events="all"/><path d="M 296.75 375 M 296.75 375 C 343.87 371.17 393.31 369.42 433.25 375 M 296.75 375 C 342.54 373.49 384.48 372.78 433.25 375 M 433.25 375 C 435.03 375.73 441.78 375.21 440 381.75 M 433.25 375 C 436.4 378.98 443.01 380.42 440 381.75 M 440 381.75 C 440.76 390.4 442.67 400.17 440 413.25 M 440 381.75 C 440.57 387.56 439.54 396.09 440 413.25 M 440 413.25 C 442.38 416.05 440.46 419.61 433.25 420 M 440 413.25 C 435.59 413.45 440.57 419.11 433.25 420 M 433.25 420 C 402.14 423.59 371.24 421.14 296.75 420 M 433.25 420 C 397.8 421.27 363.49 421.07 296.75 420 M 296.75 420 C 295.81 416.63 286.52 414.76 290 413.25 M 296.75 420 C 289.04 420.13 289.03 417.75 290 413.25 M 290 413.25 C 289.63 403.43 290.08 396.15 290 381.75 M 290 413.25 C 288.54 403.83 292.09 395.22 290 381.75 M 290 381.75 C 287.08 379.74 290.24 372.86 296.75 375 M 290 381.75 C 293.84 379.02 293.24 375.35 296.75 375" fill="none" stroke="#9673a6" stroke-linejoin="round" stroke-linecap="round" stroke-miterlimit="10" pointer-events="all"/><g transform="translate(-0.5 -0.5)"><switch><foreignObject pointer-events="none" width="100%" height="100%" requiredFeatures="http://www.w3.org/TR/SVG11/feature#Extensibility" style="overflow: visible; text-align: left;"><div xmlns="http://www.w3.org/1999/xhtml" style="display: flex; align-items: unsafe center; justify-content: unsafe center; width: 148px; height: 1px; padding-top: 398px; margin-left: 291px;"><div data-drawio-colors="color: #1e1b4b; " style="box-sizing: border-box; font-size: 0px; text-align: center;"><div style="display: inline-block; font-size: 12px; font-family: Helvetica; color: rgb(30, 27, 75); line-height: 1.2; pointer-events: all; white-space: normal; overflow-wrap: normal;">Nova Sonic<br />(speech ↔ speech)</div></div></div></foreignObject><text x="365" y="401" fill="#1e1b4b" font-family="Helvetica" font-size="12px" text-anchor="middle">Nova Sonic...</text></switch></g><rect x="530" y="370" width="320" height="40" fill="none" stroke="none" pointer-events="all"/><g transform="translate(-0.5 -0.5)"><switch><foreignObject pointer-events="none" width="100%" height="100%" requiredFeatures="http://www.w3.org/TR/SVG11/feature#Extensibility" style="overflow: visible; text-align: left;"><div xmlns="http://www.w3.org/1999/xhtml" style="display: flex; align-items: unsafe center; justify-content: unsafe center; width: 1px; height: 1px; padding-top: 390px; margin-left: 690px;"><div data-drawio-colors="color: #16a34a; " style="box-sizing: border-box; font-size: 0px; text-align: center;"><div style="display: inline-block; font-size: 10px; font-family: Helvetica; color: rgb(22, 163, 74); line-height: 1.2; pointer-events: all; font-weight: bold; font-style: italic; white-space: nowrap;">Safety: Guardrails image filters<br />+ watermark detection (provenance)</div></div></div></foreignObject><text x="690" y="393" fill="#16a34a" font-family="Helvetica" font-size="10px" text-anchor="middle" font-weight="bold" font-style="italic">Safety: Guardrails image filters...</text></switch></g></g><switch><g requiredFeatures="http://www.w3.org/TR/SVG11/feature#Extensibility"/><a transform="translate(0,-5)" xlink:href="https://www.diagrams.net/doc/faq/svg-export-text-problems" target="_blank"><text text-anchor="middle" font-size="10px" x="50%" y="100%">Text is not SVG - cannot display</text></a></switch></svg>