<?xml version="1.0" encoding="UTF-8"?>
<!DOCTYPE svg PUBLIC "-//W3C//DTD SVG 1.1//EN" "http://www.w3.org/Graphics/SVG/1.1/DTD/svg11.dtd">
<svg xmlns="http://www.w3.org/2000/svg" xmlns:xlink="http://www.w3.org/1999/xlink" version="1.1" width="982px" height="282px" viewBox="-0.5 -0.5 982 282"><defs/><g><rect x="250" y="0" width="500" height="30" fill="none" stroke="none" pointer-events="all"/><g transform="translate(-0.5 -0.5)"><switch><foreignObject pointer-events="none" width="100%" height="100%" requiredFeatures="http://www.w3.org/TR/SVG11/feature#Extensibility" style="overflow: visible; text-align: left;"><div xmlns="http://www.w3.org/1999/xhtml" style="display: flex; align-items: unsafe center; justify-content: unsafe center; width: 1px; height: 1px; padding-top: 15px; margin-left: 500px;"><div data-drawio-colors="color: #4f46e5; " style="box-sizing: border-box; font-size: 0px; text-align: center;"><div style="display: inline-block; font-size: 16px; font-family: Helvetica; color: rgb(79, 70, 229); line-height: 1.2; pointer-events: all; font-weight: bold; white-space: nowrap;">How LLMs Work — Next-Token Prediction</div></div></div></foreignObject><text x="500" y="20" fill="#4f46e5" font-family="Helvetica" font-size="16px" text-anchor="middle" font-weight="bold">How LLMs Work — Next-Token Prediction</text></switch></g><rect x="0" y="100" width="90" height="55" rx="8.25" ry="8.25" fill="none" stroke="none" pointer-events="all"/><path d="M 1.91 102.23 C 1.91 102.23 1.91 102.23 1.91 102.23 M 1.91 102.23 C 1.91 102.23 1.91 102.23 1.91 102.23 M 1 109.39 C 2.59 108.41 7.29 105.92 8.87 100.33 M 1 109.39 C 3.42 104.98 6.25 102.71 8.87 100.33 M 1.39 115.03 C 3.57 111.24 9.71 105.71 13.86 100.69 M 1.39 115.03 C 3.95 110.63 5.97 106.36 13.86 100.69 M 1.13 121.43 C 8.49 117.85 14.78 112.19 19.5 100.3 M 1.13 121.43 C 4.21 117.93 9.78 112.36 19.5 100.3 M 0.87 127.82 C 10.99 119.82 18.83 110.46 24.49 100.66 M 0.87 127.82 C 8.05 119.36 16.89 111.7 24.49 100.66 M 1.26 133.47 C 3.99 127.61 14.97 120.23 30.13 100.26 M 1.26 133.47 C 9.71 123.59 18.25 110.92 30.13 100.26 M 1 139.87 C 16.2 123.24 22.46 114.09 35.12 100.62 M 1 139.87 C 12.33 126.38 23 114.94 35.12 100.62 M 0.08 147.02 C 13.99 129.93 27.31 118.06 40.76 100.23 M 0.08 147.02 C 15.36 133.15 26.45 117.09 40.76 100.23 M 1.79 151.15 C 11.49 138.22 22.5 121.93 45.75 100.59 M 1.79 151.15 C 18.1 130.47 37.28 111.86 45.75 100.59 M 4.15 154.53 C 11.14 139.07 23.02 128.45 51.39 100.19 M 4.15 154.53 C 22.19 134.58 40.24 114.95 51.39 100.19 M 8.48 155.65 C 24.28 136 34.61 121.31 56.38 100.55 M 8.48 155.65 C 17.75 140.94 31.39 127.8 56.38 100.55 M 14.13 155.25 C 25.67 137.61 39.98 122.57 62.02 100.16 M 14.13 155.25 C 27.16 138.93 43.56 123.11 62.02 100.16 M 19.11 155.61 C 33.12 142.6 50.48 123.3 67.01 100.52 M 19.11 155.61 C 35.89 134.63 52.94 118.74 67.01 100.52 M 24.76 155.22 C 47.27 133.67 57.7 116.07 72.65 100.12 M 24.76 155.22 C 39.2 139.85 52.34 123.95 72.65 100.12 M 29.74 155.58 C 46.26 136.04 54.38 119.45 77.64 100.48 M 29.74 155.58 C 44.02 138.12 61.24 119.03 77.64 100.48 M 35.39 155.18 C 53.73 136.55 73.72 113.12 82.62 100.84 M 35.39 155.18 C 51.19 136.66 67.03 118.18 82.62 100.84 M 40.37 155.54 C 53.26 142.13 65.38 127.63 86.95 101.96 M 40.37 155.54 C 56.07 137.49 73.37 119.78 86.95 101.96 M 46.02 155.15 C 65.25 138.42 77.74 117.86 90.63 103.83 M 46.02 155.15 C 57.47 139.76 70.66 126.25 90.63 103.83 M 51 155.51 C 59.11 144.2 72.87 135.62 91.02 109.47 M 51 155.51 C 63.44 137.4 78.72 121.39 91.02 109.47 M 56.65 155.11 C 66.11 142.48 79.79 128.79 91.42 115.11 M 56.65 155.11 C 67.49 140.08 82.05 125.54 91.42 115.11 M 61.63 155.47 C 69.27 148.58 73.2 140.85 91.16 121.51 M 61.63 155.47 C 68.71 149.49 74.68 138.47 91.16 121.51 M 67.28 155.08 C 77.14 147.17 85.09 141 90.9 127.91 M 67.28 155.08 C 77.2 144.68 82.98 135.54 90.9 127.91 M 72.26 155.44 C 77.66 150.09 86.27 141.39 91.29 133.55 M 72.26 155.44 C 76.14 148.94 83.52 143.81 91.29 133.55 M 77.91 155.04 C 80.55 146.76 84.44 146.02 91.03 139.95 M 77.91 155.04 C 79.59 152.27 84.76 149.81 91.03 139.95 M 82.89 155.4 C 84.86 152.41 85.16 150.99 90.11 147.1 M 82.89 155.4 C 86.5 152.7 89.16 149.4 90.11 147.1" fill="none" stroke="#eef2ff" stroke-width="0.5" stroke-linejoin="round" stroke-linecap="round" stroke-miterlimit="10" pointer-events="all"/><path d="M 8.25 100 M 8.25 100 C 31.83 97.56 60.92 96.87 81.75 100 M 8.25 100 C 30.89 99.11 49.89 100.44 81.75 100 M 81.75 100 C 87.72 97.8 88.51 101.05 90 108.25 M 81.75 100 C 90.26 97.36 89.08 101.28 90 108.25 M 90 108.25 C 90.07 120.56 89.82 135.77 90 146.75 M 90 108.25 C 90.07 120.41 87.56 136.65 90 146.75 M 90 146.75 C 90.68 149.64 90.53 151.49 81.75 155 M 90 146.75 C 87.67 148.89 84.53 154.39 81.75 155 M 81.75 155 C 65.59 153.91 51.64 157.42 8.25 155 M 81.75 155 C 56.92 155.67 29.45 156.69 8.25 155 M 8.25 155 C 5.86 156.98 0.91 149.57 0 146.75 M 8.25 155 C 2.92 155.13 -2.53 148.39 0 146.75 M 0 146.75 C 3.2 136.49 2.63 121.25 0 108.25 M 0 146.75 C 0.26 131.76 0.57 119.28 0 108.25 M 0 108.25 C 3.74 99.35 0.06 103.45 8.25 100 M 0 108.25 C 3.31 101.85 6.34 95.98 8.25 100" fill="none" stroke="#4f46e5" stroke-linejoin="round" stroke-linecap="round" stroke-miterlimit="10" pointer-events="all"/><g transform="translate(-0.5 -0.5)"><switch><foreignObject pointer-events="none" width="100%" height="100%" requiredFeatures="http://www.w3.org/TR/SVG11/feature#Extensibility" style="overflow: visible; text-align: left;"><div xmlns="http://www.w3.org/1999/xhtml" style="display: flex; align-items: unsafe center; justify-content: unsafe center; width: 88px; height: 1px; padding-top: 128px; margin-left: 1px;"><div data-drawio-colors="color: #1e1b4b; " style="box-sizing: border-box; font-size: 0px; text-align: center;"><div style="display: inline-block; font-size: 12px; font-family: Helvetica; color: rgb(30, 27, 75); line-height: 1.2; pointer-events: all; white-space: normal; overflow-wrap: normal;">Prompt<br />text</div></div></div></foreignObject><text x="45" y="131" fill="#1e1b4b" font-family="Helvetica" font-size="12px" text-anchor="middle">Prompt...</text></switch></g><rect x="120" y="100" width="110" height="55" rx="8.25" ry="8.25" fill="none" stroke="none" pointer-events="all"/><path d="M 122.09 102.03 C 122.09 102.03 122.09 102.03 122.09 102.03 M 122.09 102.03 C 122.09 102.03 122.09 102.03 122.09 102.03 M 121.18 109.18 C 122.9 109.2 126.93 102.6 129.05 100.12 M 121.18 109.18 C 123.51 108.47 124.08 106.67 129.05 100.12 M 120.91 115.58 C 125.29 111.79 130.02 110.09 134.03 100.48 M 120.91 115.58 C 124.22 111.87 129.2 106.17 134.03 100.48 M 121.31 121.22 C 124.28 113.92 134.34 107.17 139.02 100.84 M 121.31 121.22 C 128.26 112.34 134.6 107.87 139.02 100.84 M 121.05 127.62 C 125.95 122.44 138.59 110.45 144.66 100.45 M 121.05 127.62 C 129.85 115.96 140.59 108.82 144.66 100.45 M 121.44 133.26 C 127.37 121.2 138.67 119.28 149.65 100.81 M 121.44 133.26 C 126.8 126.11 134.89 119.65 149.65 100.81 M 121.18 139.66 C 132.68 123.14 151.16 109.31 155.3 100.41 M 121.18 139.66 C 130.83 125.93 144.96 113.27 155.3 100.41 M 120.26 146.81 C 139.01 126.76 149.58 113.93 160.28 100.77 M 120.26 146.81 C 129.77 135.47 141.32 123.54 160.28 100.77 M 122.63 150.19 C 136.16 134.23 143.5 128.06 165.93 100.38 M 122.63 150.19 C 136.85 133.05 152.15 117.71 165.93 100.38 M 124.33 154.32 C 139.29 138.32 143.24 129.82 170.91 100.74 M 124.33 154.32 C 142.36 134.17 157.76 110.39 170.91 100.74 M 127.35 156.95 C 139.64 139.65 152.71 131.58 176.56 100.35 M 127.35 156.95 C 145.67 138.71 161.23 118.19 176.56 100.35 M 132.99 156.55 C 151.68 136.61 164.05 116.02 181.54 100.71 M 132.99 156.55 C 145.53 143.52 155.09 134.39 181.54 100.71 M 137.98 156.91 C 153.62 144 161.4 129.46 186.53 101.07 M 137.98 156.91 C 153.19 138.37 171.53 118.77 186.53 101.07 M 142.97 157.27 C 161.28 136.82 178.22 108.91 192.17 100.67 M 142.97 157.27 C 156.75 141.06 170.67 124.89 192.17 100.67 M 148.61 156.88 C 158.72 143.82 175.64 133.45 197.16 101.03 M 148.61 156.88 C 158.97 140.43 172.78 129.83 197.16 101.03 M 153.6 157.24 C 165.17 145.41 176.65 131.07 202.8 100.64 M 153.6 157.24 C 172.11 135.4 192.74 111.33 202.8 100.64 M 159.24 156.85 C 172.88 143.67 190.15 123.11 207.79 101 M 159.24 156.85 C 176.02 137.42 197.15 114.15 207.79 101 M 164.23 157.21 C 173.44 147.17 187.09 131.05 213.43 100.6 M 164.23 157.21 C 182.8 136.48 201.86 115.49 213.43 100.6 M 169.87 156.81 C 187.72 138.26 200.35 122.27 218.42 100.96 M 169.87 156.81 C 186.43 136.23 204.27 115.4 218.42 100.96 M 174.86 157.17 C 189.98 140.23 200.18 129.42 223.41 101.32 M 174.86 157.17 C 189.16 142.59 203.83 125.42 223.41 101.32 M 179.85 157.53 C 196.76 143.06 210.93 120.45 227.74 102.44 M 179.85 157.53 C 192.83 142.71 205.65 125.79 227.74 102.44 M 185.49 157.14 C 197.79 134.4 218.86 117.38 230.1 105.82 M 185.49 157.14 C 200.98 140.49 216.52 121.92 230.1 105.82 M 190.48 157.5 C 202.82 141.32 216.53 124.78 231.81 109.95 M 190.48 157.5 C 203.43 140.52 221.59 123.53 231.81 109.95 M 196.12 157.1 C 207.53 149.98 216.92 137.79 231.55 116.35 M 196.12 157.1 C 206.61 140.61 222.26 127.32 231.55 116.35 M 201.11 157.46 C 209.6 142.01 221.31 136.84 231.94 121.99 M 201.11 157.46 C 212.94 143.32 226.11 131.94 231.94 121.99 M 206.75 157.07 C 213.05 146.56 226.6 133.78 231.68 128.39 M 206.75 157.07 C 215.48 147.64 223.86 139.72 231.68 128.39 M 211.74 157.43 C 213.33 150.57 221.09 146.79 231.42 134.79 M 211.74 157.43 C 218.61 151.9 224.34 143.53 231.42 134.79 M 217.38 157.03 C 216.72 150.73 219.86 148.93 231.81 140.43 M 217.38 157.03 C 220.42 150.98 224.61 149.78 231.81 140.43 M 223.02 156.64 C 226.27 152.03 227.18 149.09 231.55 146.83 M 223.02 156.64 C 226.07 153.33 228.54 152.58 231.55 146.83" fill="none" stroke="#fff2cc" stroke-width="0.5" stroke-linejoin="round" stroke-linecap="round" stroke-miterlimit="10" pointer-events="all"/><path d="M 128.25 100 M 128.25 100 C 157.86 99.15 194.8 101.16 221.75 100 M 128.25 100 C 154.99 98.83 182.51 99.4 221.75 100 M 221.75 100 C 226.79 97.69 233.57 103.08 230 108.25 M 221.75 100 C 224.61 100.56 231.02 106.46 230 108.25 M 230 108.25 C 226.57 121.17 232.56 133.14 230 146.75 M 230 108.25 C 229.33 121.29 230.87 134.86 230 146.75 M 230 146.75 C 232.01 151.54 226.57 151.5 221.75 155 M 230 146.75 C 233.51 151.87 227.03 157.72 221.75 155 M 221.75 155 C 185.19 155.15 157.38 154.69 128.25 155 M 221.75 155 C 185.15 155.12 148.49 152.91 128.25 155 M 128.25 155 C 122.08 155.31 120.24 150.53 120 146.75 M 128.25 155 C 123.46 152.66 124.14 155.22 120 146.75 M 120 146.75 C 116.84 140.16 116.29 125.44 120 108.25 M 120 146.75 C 122.2 137.26 120.57 131.33 120 108.25 M 120 108.25 C 121.24 104.7 118.91 101.44 128.25 100 M 120 108.25 C 117.62 100.61 121.73 97.74 128.25 100" fill="none" stroke="#d6b656" stroke-linejoin="round" stroke-linecap="round" stroke-miterlimit="10" pointer-events="all"/><g transform="translate(-0.5 -0.5)"><switch><foreignObject pointer-events="none" width="100%" height="100%" requiredFeatures="http://www.w3.org/TR/SVG11/feature#Extensibility" style="overflow: visible; text-align: left;"><div xmlns="http://www.w3.org/1999/xhtml" style="display: flex; align-items: unsafe center; justify-content: unsafe center; width: 108px; height: 1px; padding-top: 128px; margin-left: 121px;"><div data-drawio-colors="color: #1e1b4b; " style="box-sizing: border-box; font-size: 0px; text-align: center;"><div style="display: inline-block; font-size: 12px; font-family: Helvetica; color: rgb(30, 27, 75); line-height: 1.2; pointer-events: all; white-space: normal; overflow-wrap: normal;">Tokenizer<br />→ tokens</div></div></div></foreignObject><text x="175" y="131" fill="#1e1b4b" font-family="Helvetica" font-size="12px" text-anchor="middle">Tokenizer...</text></switch></g><rect x="260" y="100" width="110" height="55" rx="8.25" ry="8.25" fill="none" stroke="none" pointer-events="all"/><path d="M 262.19 101.91 C 262.19 101.91 262.19 101.91 262.19 101.91 M 262.19 101.91 C 262.19 101.91 262.19 101.91 262.19 101.91 M 261.27 109.07 C 264.74 105.34 265.06 104.94 268.49 100.76 M 261.27 109.07 C 263.83 107.37 264.25 104.01 268.49 100.76 M 261.01 115.46 C 265.49 115.71 268.94 111.79 274.13 100.37 M 261.01 115.46 C 264.06 111.17 267.14 107.02 274.13 100.37 M 261.41 121.11 C 269.7 111.62 268.85 106.32 279.12 100.73 M 261.41 121.11 C 267.56 116.06 271.17 111.94 279.12 100.73 M 261.15 127.5 C 267.14 117.07 273.33 109.64 284.76 100.33 M 261.15 127.5 C 268.41 121.32 272.61 114.22 284.76 100.33 M 260.88 133.9 C 271.19 120.53 281.83 113.6 289.75 100.69 M 260.88 133.9 C 270.17 123.54 278.7 116.63 289.75 100.69 M 261.28 139.55 C 274.35 131.77 280.43 122.2 295.39 100.3 M 261.28 139.55 C 273.36 123.08 288.53 107.49 295.39 100.3 M 260.36 146.7 C 270.89 137.72 273.21 129.74 300.38 100.66 M 260.36 146.7 C 271.77 131.67 282.94 120.49 300.38 100.66 M 262.07 150.83 C 274.01 140.09 277.25 133.08 305.37 101.02 M 262.07 150.83 C 273.37 138.27 284.48 121.79 305.37 101.02 M 264.43 154.21 C 285.45 138.17 297.92 116.51 311.01 100.63 M 264.43 154.21 C 276.78 140.78 290.07 124.8 311.01 100.63 M 267.45 156.83 C 279.49 138.13 289.62 128.35 316 100.99 M 267.45 156.83 C 281.42 137.83 296.09 121.68 316 100.99 M 272.44 157.19 C 287 145.61 292.87 131.94 321.64 100.59 M 272.44 157.19 C 290.37 134.97 310.27 113.27 321.64 100.59 M 278.08 156.8 C 292.39 136.13 310.16 115.38 326.63 100.95 M 278.08 156.8 C 296.89 135.08 313.16 116.94 326.63 100.95 M 283.07 157.16 C 299.92 135.11 317.72 115.6 332.27 100.56 M 283.07 157.16 C 296.75 142.85 306.37 129.2 332.27 100.56 M 288.71 156.77 C 300.7 147.93 308.29 131.92 337.26 100.92 M 288.71 156.77 C 305.28 139.14 320.16 120.66 337.26 100.92 M 293.7 157.13 C 307.45 139.49 317.03 129.97 342.9 100.52 M 293.7 157.13 C 307.71 139.91 322.97 126.37 342.9 100.52 M 299.34 156.73 C 311.9 138.98 329.54 121.48 347.89 100.88 M 299.34 156.73 C 319.43 134.13 338.5 113.39 347.89 100.88 M 304.33 157.09 C 320.17 145.66 327.16 128.77 352.88 101.24 M 304.33 157.09 C 313.49 146.9 326.81 137.2 352.88 101.24 M 309.31 157.45 C 327.71 138.58 342.8 119.79 358.52 100.85 M 309.31 157.45 C 324.11 141.78 338.78 123.08 358.52 100.85 M 314.96 157.06 C 322.47 145.84 334.6 131.18 363.51 101.21 M 314.96 157.06 C 327.31 146.23 334.58 133.43 363.51 101.21 M 319.94 157.42 C 336.46 145.75 348.94 124.72 367.84 102.32 M 319.94 157.42 C 329.82 144.88 345.13 131.44 367.84 102.32 M 325.59 157.02 C 345.52 137.71 360.03 115.2 369.54 106.46 M 325.59 157.02 C 334.26 142.56 345.52 132.56 369.54 106.46 M 330.57 157.38 C 346.34 148.16 352.32 130.84 371.91 109.84 M 330.57 157.38 C 343.55 139.4 356.37 124.84 371.91 109.84 M 336.22 156.99 C 340.54 151.81 355.22 141.93 371.65 116.23 M 336.22 156.99 C 345.3 147.39 353.03 138.16 371.65 116.23 M 341.2 157.35 C 352.64 145.84 363.61 134.31 372.04 121.88 M 341.2 157.35 C 347.54 148.9 355.97 141.52 372.04 121.88 M 346.85 156.95 C 349.36 153.14 360.27 146.02 371.78 128.27 M 346.85 156.95 C 354.59 149.3 363.78 136 371.78 128.27 M 351.84 157.31 C 353.42 152.41 358.64 143.04 371.52 134.67 M 351.84 157.31 C 357.71 152.2 361.79 142.77 371.52 134.67 M 356.82 157.67 C 359.84 149.93 369.06 142.15 371.26 141.07 M 356.82 157.67 C 360.47 155.61 364.27 148.36 371.26 141.07 M 363.12 156.52 C 363.84 155.85 368.3 149.06 371.65 146.71 M 363.12 156.52 C 365.31 153.48 368.74 151.38 371.65 146.71" fill="none" stroke="#e1d5e7" stroke-width="0.5" stroke-linejoin="round" stroke-linecap="round" stroke-miterlimit="10" pointer-events="all"/><path d="M 268.25 100 M 268.25 100 C 294.9 105.28 315.52 101.7 361.75 100 M 268.25 100 C 294.5 99.19 320.16 101.07 361.75 100 M 361.75 100 C 370.52 99.89 370.57 102.66 370 108.25 M 361.75 100 C 363.38 104.54 367.69 99.04 370 108.25 M 370 108.25 C 367.93 123.99 367.32 135.64 370 146.75 M 370 108.25 C 371.15 116.09 369.47 126.07 370 146.75 M 370 146.75 C 373.92 154.65 368.08 157.78 361.75 155 M 370 146.75 C 371.88 149.65 368.51 152.82 361.75 155 M 361.75 155 C 328.78 153.11 296.26 151.4 268.25 155 M 361.75 155 C 342.53 155.57 318.59 152.2 268.25 155 M 268.25 155 C 264.02 154.77 257.16 155.05 260 146.75 M 268.25 155 C 264.25 154.01 256.38 156.38 260 146.75 M 260 146.75 C 262.53 131.68 256.14 112.86 260 108.25 M 260 146.75 C 261.38 135.38 260.06 121.86 260 108.25 M 260 108.25 C 259.45 103.76 258.99 98.2 268.25 100 M 260 108.25 C 262.65 98.45 264.16 104.38 268.25 100" fill="none" stroke="#9673a6" stroke-linejoin="round" stroke-linecap="round" stroke-miterlimit="10" pointer-events="all"/><g transform="translate(-0.5 -0.5)"><switch><foreignObject pointer-events="none" width="100%" height="100%" requiredFeatures="http://www.w3.org/TR/SVG11/feature#Extensibility" style="overflow: visible; text-align: left;"><div xmlns="http://www.w3.org/1999/xhtml" style="display: flex; align-items: unsafe center; justify-content: unsafe center; width: 108px; height: 1px; padding-top: 128px; margin-left: 261px;"><div data-drawio-colors="color: #1e1b4b; " style="box-sizing: border-box; font-size: 0px; text-align: center;"><div style="display: inline-block; font-size: 12px; font-family: Helvetica; color: rgb(30, 27, 75); line-height: 1.2; pointer-events: all; white-space: normal; overflow-wrap: normal;">Embeddings<br />(vectors)</div></div></div></foreignObject><text x="315" y="131" fill="#1e1b4b" font-family="Helvetica" font-size="12px" text-anchor="middle">Embeddings...</text></switch></g><rect x="400" y="90" width="150" height="75" rx="11.25" ry="11.25" fill="none" stroke="none" pointer-events="all"/><path d="M 402.73 92.91 C 402.73 92.91 402.73 92.91 402.73 92.91 M 402.73 92.91 C 402.73 92.91 402.73 92.91 402.73 92.91 M 400.5 101.57 C 404.84 95.25 407.56 96.77 410.34 90.25 M 400.5 101.57 C 402.12 98.42 403.56 97.29 410.34 90.25 M 400.24 107.97 C 400.75 102.87 406.82 98.03 414.02 92.12 M 400.24 107.97 C 405.15 101.79 409.77 96.16 414.02 92.12 M 400.63 113.61 C 408.98 110.1 413.76 102.28 419 92.48 M 400.63 113.61 C 405.76 109.9 409.79 103.49 419 92.48 M 400.37 120.01 C 406.99 112.99 421.65 101.08 424.65 92.08 M 400.37 120.01 C 407.19 112.03 412.36 108.19 424.65 92.08 M 400.77 125.65 C 408.41 117.09 411.41 106.93 429.63 92.44 M 400.77 125.65 C 411.93 113.09 423.84 100.6 429.63 92.44 M 400.51 132.05 C 409.12 114.73 421.3 106.31 435.28 92.05 M 400.51 132.05 C 414.68 115.71 425.96 101.57 435.28 92.05 M 400.25 138.45 C 417.36 118.83 430.91 102.7 440.26 92.41 M 400.25 138.45 C 414.33 120.01 432.22 103.05 440.26 92.41 M 400.64 144.09 C 410.96 131.02 421.03 122 445.25 92.77 M 400.64 144.09 C 416.26 127.95 428.91 113.18 445.25 92.77 M 400.38 150.49 C 410.59 142.21 421.94 124.41 450.89 92.37 M 400.38 150.49 C 413.83 135.13 429.4 119.89 450.89 92.37 M 401.43 155.37 C 416.54 139.63 435.85 117.73 455.88 92.73 M 401.43 155.37 C 412.71 139.42 424.57 124.45 455.88 92.73 M 403.14 159.51 C 421.14 138.07 439.21 118.51 461.52 92.34 M 403.14 159.51 C 414.36 144.46 429.76 131.39 461.52 92.34 M 404.84 163.64 C 421.75 144.1 436.08 120.76 466.51 92.7 M 404.84 163.64 C 425.9 140.26 444.62 119.81 466.51 92.7 M 407.86 166.27 C 421.67 142.91 440.94 127.03 472.15 92.3 M 407.86 166.27 C 421.3 150.67 438.52 133.91 472.15 92.3 M 413.5 165.87 C 440.08 139.94 463.96 109.01 477.14 92.66 M 413.5 165.87 C 431.57 140.96 452.76 117.71 477.14 92.66 M 418.49 166.23 C 431.61 151.74 448.51 130.72 482.79 92.27 M 418.49 166.23 C 446.38 134.57 471.08 105.42 482.79 92.27 M 424.13 165.84 C 445.09 148.51 455.69 132.46 487.77 92.63 M 424.13 165.84 C 442.83 145.18 456.45 124.94 487.77 92.63 M 429.12 166.2 C 449.09 149.47 465.39 128.58 492.76 92.99 M 429.12 166.2 C 442.52 150.39 458.56 132.24 492.76 92.99 M 434.76 165.8 C 447.43 150.06 465.27 129.63 498.4 92.6 M 434.76 165.8 C 455.02 140.53 475.01 117.13 498.4 92.6 M 439.75 166.16 C 464.06 142.53 486.95 110.63 503.39 92.96 M 439.75 166.16 C 460.33 140 479.25 116.31 503.39 92.96 M 445.39 165.77 C 467.73 143.58 483.86 117.23 509.03 92.56 M 445.39 165.77 C 466.61 139.7 487.67 113.47 509.03 92.56 M 450.38 166.13 C 462.59 148.21 475.27 133.43 514.02 92.92 M 450.38 166.13 C 472.31 141.25 496.46 113.95 514.02 92.92 M 455.37 166.49 C 478.72 142.03 501.23 113.34 519.66 92.53 M 455.37 166.49 C 476.15 144.82 495.2 119.59 519.66 92.53 M 461.01 166.09 C 481.83 139.89 508.61 112.23 524.65 92.89 M 461.01 166.09 C 474.63 146.04 492.24 129.44 524.65 92.89 M 466 166.45 C 485.2 146.11 507.42 122.53 529.64 93.25 M 466 166.45 C 487.59 142.4 505.8 119 529.64 93.25 M 471.64 166.06 C 498.68 138.75 517.07 107.95 535.28 92.85 M 471.64 166.06 C 492.14 142.3 514.48 114.08 535.28 92.85 M 476.63 166.42 C 494.22 148.99 511.85 122.48 540.27 93.21 M 476.63 166.42 C 498.91 143.4 519.48 118.06 540.27 93.21 M 482.27 166.02 C 499.52 143.53 511.77 131.02 545.91 92.82 M 482.27 166.02 C 506.25 142.98 526.77 119.58 545.91 92.82 M 487.26 166.38 C 508.48 139.9 530.63 108.91 549.58 94.69 M 487.26 166.38 C 504.13 142.29 525.22 123.3 549.58 94.69 M 492.9 165.99 C 509.3 145.69 533.47 118.43 550.64 99.58 M 492.9 165.99 C 507.84 148.68 525.67 130.12 550.64 99.58 M 497.89 166.35 C 510.95 152.46 529.29 132.52 552.34 103.71 M 497.89 166.35 C 512.97 150.88 524.59 136.09 552.34 103.71 M 502.88 166.71 C 519.96 150.73 533.04 132.47 552.74 109.35 M 502.88 166.71 C 520.02 144.14 539.59 125.12 552.74 109.35 M 508.52 166.32 C 527.19 150.44 539.05 128.34 552.47 115.75 M 508.52 166.32 C 520.16 155.56 528.61 143.18 552.47 115.75 M 513.51 166.68 C 527.81 153 540.18 136.99 552.21 122.15 M 513.51 166.68 C 526.88 149.27 544.56 132.19 552.21 122.15 M 519.15 166.28 C 530.43 151.66 538.04 140.55 551.95 128.55 M 519.15 166.28 C 530.97 151.79 543.03 137.27 551.95 128.55 M 524.14 166.64 C 534.26 160.51 536.41 149.02 552.35 134.19 M 524.14 166.64 C 530.68 157.93 538.84 146.83 552.35 134.19 M 529.78 166.25 C 534.86 152.42 547.52 144.88 552.09 140.59 M 529.78 166.25 C 539.45 158.54 546.68 147.78 552.09 140.59 M 534.77 166.61 C 539.69 159.22 546.84 149.4 551.82 146.98 M 534.77 166.61 C 541.43 158.79 544.83 153.62 551.82 146.98 M 540.41 166.21 C 546.51 161.51 545.59 159.93 552.22 152.63 M 540.41 166.21 C 544.38 162.39 549.34 155.47 552.22 152.63" fill="none" stroke="#eef2ff" stroke-width="0.5" stroke-linejoin="round" stroke-linecap="round" stroke-miterlimit="10" pointer-events="all"/><path d="M 411.25 90 M 411.25 90 C 441.89 90.71 474.8 88.6 538.75 90 M 411.25 90 C 459.06 90.45 507.72 89.43 538.75 90 M 538.75 90 C 545.2 89 548.12 90.53 550 101.25 M 538.75 90 C 542.97 92.96 550.51 98.05 550 101.25 M 550 101.25 C 551.89 112.67 551.17 127.73 550 153.75 M 550 101.25 C 547.91 121.17 550.81 136.75 550 153.75 M 550 153.75 C 551.31 159.03 542.54 164.41 538.75 165 M 550 153.75 C 545.56 161.3 542.4 164.26 538.75 165 M 538.75 165 C 502.68 166.56 461.7 164.32 411.25 165 M 538.75 165 C 502.09 163.02 460.33 163.2 411.25 165 M 411.25 165 C 404.03 162.18 402.59 161.31 400 153.75 M 411.25 165 C 407.68 168.3 402.07 165.53 400 153.75 M 400 153.75 C 400.39 137.08 399.2 114.15 400 101.25 M 400 153.75 C 400.45 133.55 399.03 113.29 400 101.25 M 400 101.25 C 400.55 95.31 405.5 91.24 411.25 90 M 400 101.25 C 398.12 92.69 404.41 87.42 411.25 90" fill="none" stroke="#4f46e5" stroke-linejoin="round" stroke-linecap="round" stroke-miterlimit="10" pointer-events="all"/><g transform="translate(-0.5 -0.5)"><switch><foreignObject pointer-events="none" width="100%" height="100%" requiredFeatures="http://www.w3.org/TR/SVG11/feature#Extensibility" style="overflow: visible; text-align: left;"><div xmlns="http://www.w3.org/1999/xhtml" style="display: flex; align-items: unsafe center; justify-content: unsafe center; width: 148px; height: 1px; padding-top: 128px; margin-left: 401px;"><div data-drawio-colors="color: #1e1b4b; " style="box-sizing: border-box; font-size: 0px; text-align: center;"><div style="display: inline-block; font-size: 12px; font-family: Helvetica; color: rgb(30, 27, 75); line-height: 1.2; pointer-events: all; font-weight: bold; white-space: normal; overflow-wrap: normal;">Transformer layers<br />(self-attention)</div></div></div></foreignObject><text x="475" y="131" fill="#1e1b4b" font-family="Helvetica" font-size="12px" text-anchor="middle" font-weight="bold">Transformer layers...</text></switch></g><rect x="580" y="100" width="120" height="55" rx="8.25" ry="8.25" fill="none" stroke="none" pointer-events="all"/><path d="M 582.23 101.87 C 582.23 101.87 582.23 101.87 582.23 101.87 M 582.23 101.87 C 582.23 101.87 582.23 101.87 582.23 101.87 M 581.31 109.02 C 581.04 108.65 582.55 104.33 588.53 100.72 M 581.31 109.02 C 583.19 106.17 585.4 104.77 588.53 100.72 M 581.05 115.42 C 588.05 112.33 592.52 102.51 594.17 100.32 M 581.05 115.42 C 584.83 113.32 588.04 110.34 594.17 100.32 M 581.45 121.06 C 585.67 115.76 590.78 115.39 599.16 100.68 M 581.45 121.06 C 586.79 114.11 594.11 105.65 599.16 100.68 M 581.19 127.46 C 582.25 117.77 588.07 119.34 604.8 100.29 M 581.19 127.46 C 585.09 123.21 590.64 115.56 604.8 100.29 M 580.93 133.86 C 584.61 128.89 595.66 118.05 609.79 100.65 M 580.93 133.86 C 587.34 124.41 593.84 117.75 609.79 100.65 M 581.32 139.5 C 596.29 124.35 604.16 110.34 615.43 100.25 M 581.32 139.5 C 590.22 132.59 595.22 121.92 615.43 100.25 M 580.4 146.65 C 594.05 135.15 598.79 121.7 620.42 100.61 M 580.4 146.65 C 593.49 133.11 605.76 119.43 620.42 100.61 M 582.11 150.79 C 595.9 131.44 607.67 117.24 625.41 100.97 M 582.11 150.79 C 592.77 139.87 598.88 130.76 625.41 100.97 M 584.47 154.16 C 593.15 146 609.32 133.79 631.05 100.58 M 584.47 154.16 C 602.57 132.38 620.26 113.6 631.05 100.58 M 587.49 156.79 C 600.09 146.93 606.65 128.29 636.04 100.94 M 587.49 156.79 C 598.29 142.94 611.31 126.94 636.04 100.94 M 592.48 157.15 C 609.87 138.61 621.71 125.47 641.68 100.55 M 592.48 157.15 C 604.4 140.84 621.54 121.42 641.68 100.55 M 598.12 156.75 C 611.29 142.16 626.48 123.45 646.67 100.91 M 598.12 156.75 C 615.86 139.12 631.23 117.11 646.67 100.91 M 603.11 157.11 C 615.98 141.94 629.51 122.48 652.31 100.51 M 603.11 157.11 C 614.91 142.14 626.77 130.96 652.31 100.51 M 608.75 156.72 C 621.68 141.91 630.24 128.14 657.3 100.87 M 608.75 156.72 C 618.19 143.73 632.71 132.31 657.3 100.87 M 613.74 157.08 C 626.66 145.25 636.57 126.77 662.94 100.48 M 613.74 157.08 C 621.24 146.08 634.17 136.24 662.94 100.48 M 619.38 156.68 C 634.41 138.65 645.92 125.91 667.93 100.84 M 619.38 156.68 C 631.94 142.36 640.45 128.89 667.93 100.84 M 624.37 157.05 C 635.7 146.98 642.47 131.79 672.92 101.2 M 624.37 157.05 C 644.95 133.96 660.18 113.4 672.92 101.2 M 629.35 157.41 C 645.95 138.37 659.05 128.31 678.56 100.8 M 629.35 157.41 C 639.99 144.95 652.06 134.59 678.56 100.8 M 635 157.01 C 649.57 139.22 664.87 119.39 683.55 101.16 M 635 157.01 C 651.93 137.11 667.16 119.74 683.55 101.16 M 639.98 157.37 C 658.73 134.41 674.61 118.36 689.19 100.77 M 639.98 157.37 C 659.73 137.86 675.49 118.86 689.19 100.77 M 645.63 156.98 C 658.82 140.36 671.5 126.08 694.18 101.13 M 645.63 156.98 C 657.28 140.43 670.59 125.52 694.18 101.13 M 650.61 157.34 C 665.57 131.92 683.64 114.02 697.85 103 M 650.61 157.34 C 667.22 136.1 685.28 115.69 697.85 103 M 656.26 156.94 C 672.06 139.63 679.55 133.23 700.21 106.38 M 656.26 156.94 C 673.14 137.34 687.83 121.36 700.21 106.38 M 661.25 157.3 C 675.98 146.37 682.94 137.43 701.92 110.51 M 661.25 157.3 C 672.33 149.75 677.45 136.86 701.92 110.51 M 666.89 156.91 C 677.24 144.48 687.36 139.27 702.32 116.15 M 666.89 156.91 C 682.93 142.36 693 123.81 702.32 116.15 M 671.88 157.27 C 683.52 142.18 694.18 132.04 702.05 122.55 M 671.88 157.27 C 678.29 149.47 688.78 139.94 702.05 122.55 M 676.86 157.63 C 680.06 154.62 692.07 145.91 701.79 128.95 M 676.86 157.63 C 683.57 151.65 689.28 141.92 701.79 128.95 M 682.51 157.23 C 691.5 150.08 695.65 140.8 702.19 134.59 M 682.51 157.23 C 689.66 150.93 695.08 145.93 702.19 134.59 M 687.49 157.59 C 690.27 155.88 694.2 149.52 701.93 140.99 M 687.49 157.59 C 692.37 154.81 695.94 149.48 701.93 140.99 M 693.79 156.44 C 695.94 154.61 701.37 147.85 701.66 147.39 M 693.79 156.44 C 695.42 153.95 697.05 153.44 701.66 147.39" fill="none" stroke="#d5e8d4" stroke-width="0.5" stroke-linejoin="round" stroke-linecap="round" stroke-miterlimit="10" pointer-events="all"/><path d="M 588.25 100 M 588.25 100 C 615.32 102.63 646.16 99.39 691.75 100 M 588.25 100 C 626.52 96.78 664.94 98.38 691.75 100 M 691.75 100 C 696.14 97.69 700.8 101.48 700 108.25 M 691.75 100 C 699.39 101.96 702.72 105.42 700 108.25 M 700 108.25 C 695.99 114.63 703.01 128.14 700 146.75 M 700 108.25 C 700.52 118.9 700.88 130.99 700 146.75 M 700 146.75 C 699.01 153.94 694.92 153.31 691.75 155 M 700 146.75 C 696.37 155.8 700.28 154.39 691.75 155 M 691.75 155 C 668.59 155.66 639.28 149.66 588.25 155 M 691.75 155 C 653.42 155.27 614.46 158.27 588.25 155 M 588.25 155 C 583.27 153.5 576.14 150.02 580 146.75 M 588.25 155 C 583.61 154.43 578.68 147.96 580 146.75 M 580 146.75 C 578.97 131.39 582 118.04 580 108.25 M 580 146.75 C 581.24 137.75 580.79 127.77 580 108.25 M 580 108.25 C 579.64 104.02 583.71 102.79 588.25 100 M 580 108.25 C 581.97 98.46 579.85 100.91 588.25 100" fill="none" stroke="#16a34a" stroke-linejoin="round" stroke-linecap="round" stroke-miterlimit="10" pointer-events="all"/><g transform="translate(-0.5 -0.5)"><switch><foreignObject pointer-events="none" width="100%" height="100%" requiredFeatures="http://www.w3.org/TR/SVG11/feature#Extensibility" style="overflow: visible; text-align: left;"><div xmlns="http://www.w3.org/1999/xhtml" style="display: flex; align-items: unsafe center; justify-content: unsafe center; width: 118px; height: 1px; padding-top: 128px; margin-left: 581px;"><div data-drawio-colors="color: #1e1b4b; " style="box-sizing: border-box; font-size: 0px; text-align: center;"><div style="display: inline-block; font-size: 12px; font-family: Helvetica; color: rgb(30, 27, 75); line-height: 1.2; pointer-events: all; white-space: normal; overflow-wrap: normal;">Next-token<br />probabilities</div></div></div></foreignObject><text x="640" y="131" fill="#1e1b4b" font-family="Helvetica" font-size="12px" text-anchor="middle">Next-token...</text></switch></g><rect x="730" y="100" width="100" height="55" rx="8.25" ry="8.25" fill="none" stroke="none" pointer-events="all"/><path d="M 731.96 102.18 C 731.96 102.18 731.96 102.18 731.96 102.18 M 731.96 102.18 C 731.96 102.18 731.96 102.18 731.96 102.18 M 731.05 109.33 C 731.69 106.57 736.07 103.69 738.92 100.27 M 731.05 109.33 C 733.99 105.98 735.72 104.03 738.92 100.27 M 731.44 114.97 C 733.15 110.11 736.17 107.09 743.91 100.63 M 731.44 114.97 C 734.93 111.14 735.98 110.68 743.91 100.63 M 731.18 121.37 C 738.06 115.49 740.96 114.91 749.55 100.24 M 731.18 121.37 C 735.05 113.84 742.66 109.22 749.55 100.24 M 730.92 127.77 C 735.71 118.01 738.29 113.57 754.54 100.6 M 730.92 127.77 C 739.05 118.58 744.69 111.67 754.54 100.6 M 731.31 133.41 C 736.69 127.16 739.94 117.74 760.18 100.2 M 731.31 133.41 C 736.88 127.4 743.58 119.12 760.18 100.2 M 731.05 139.81 C 735.02 131.06 749.99 121.45 765.17 100.56 M 731.05 139.81 C 738.37 131.46 748.65 124.13 765.17 100.56 M 730.13 146.96 C 742.02 129.15 760.68 113.14 770.15 100.92 M 730.13 146.96 C 747.92 129.17 764.36 112.53 770.15 100.92 M 732.5 150.34 C 748.55 136.29 762.78 113.49 775.8 100.53 M 732.5 150.34 C 739.51 139.59 749.25 129.42 775.8 100.53 M 734.2 154.47 C 744.52 144.56 758.81 124.12 780.78 100.89 M 734.2 154.47 C 752.12 136.38 768.06 116.51 780.78 100.89 M 737.22 157.1 C 752.58 138.95 769.96 114 786.43 100.49 M 737.22 157.1 C 758.02 135.57 774.23 113.35 786.43 100.49 M 742.87 156.7 C 751.83 143.13 760.08 135.37 791.41 100.85 M 742.87 156.7 C 761.58 137.16 777.68 118.07 791.41 100.85 M 747.85 157.06 C 761.4 140.25 778.05 118.03 797.06 100.46 M 747.85 157.06 C 758.67 142.69 773.35 128.74 797.06 100.46 M 753.5 156.67 C 766.44 143.49 774.77 127.39 802.04 100.82 M 753.5 156.67 C 765.4 145.12 776.4 132.32 802.04 100.82 M 758.48 157.03 C 770.66 138.39 782.68 126.21 807.03 101.18 M 758.48 157.03 C 774.64 138.34 790.91 120.68 807.03 101.18 M 763.47 157.39 C 776.89 143.46 786.28 131.1 812.67 100.78 M 763.47 157.39 C 773.07 143.1 784.35 132.38 812.67 100.78 M 769.11 156.99 C 785.51 138.99 805.19 121.47 817.66 101.15 M 769.11 156.99 C 781.52 144.4 792.67 130.31 817.66 101.15 M 774.1 157.35 C 785.19 143.51 796.33 124.38 823.3 100.75 M 774.1 157.35 C 782.85 147.29 796.1 133.68 823.3 100.75 M 779.74 156.96 C 790.9 139.81 807.27 128.93 827.63 101.87 M 779.74 156.96 C 787.82 144.55 801.74 131.75 827.63 101.87 M 784.73 157.32 C 795.7 139.51 811.63 128.11 829.34 106 M 784.73 157.32 C 797.07 143.07 808.64 129.37 829.34 106 M 790.37 156.92 C 796.39 150.58 810.01 140.34 831.7 109.38 M 790.37 156.92 C 798.08 146.27 809.5 132.84 831.7 109.38 M 795.36 157.28 C 810.22 147.03 816.73 130.2 831.44 115.78 M 795.36 157.28 C 807.27 144.27 820.94 129.21 831.44 115.78 M 801 156.89 C 813.78 146.15 823.46 133.8 831.18 122.17 M 801 156.89 C 807.86 146.09 819.11 137.52 831.18 122.17 M 805.99 157.25 C 812.92 154.47 819.62 145.19 831.58 127.82 M 805.99 157.25 C 815.19 148.11 822.51 137.84 831.58 127.82 M 810.98 157.61 C 817.81 152.66 825.35 145.13 831.31 134.21 M 810.98 157.61 C 815.37 151.17 819.58 145.04 831.31 134.21 M 816.62 157.22 C 818.42 156.3 823.33 148.77 831.05 140.61 M 816.62 157.22 C 820.63 152.64 828.44 143.88 831.05 140.61 M 822.92 156.07 C 827.46 152.05 829.64 152.59 830.79 147.01 M 822.92 156.07 C 825.36 153.98 826.19 152.17 830.79 147.01" fill="none" stroke="#fff2cc" stroke-width="0.5" stroke-linejoin="round" stroke-linecap="round" stroke-miterlimit="10" pointer-events="all"/><path d="M 738.25 100 M 738.25 100 C 760.56 97.85 774.52 104.26 821.75 100 M 738.25 100 C 757.73 99.31 777.9 99.51 821.75 100 M 821.75 100 C 826.75 96.34 833.86 101.99 830 108.25 M 821.75 100 C 824.94 99.53 834.08 101.06 830 108.25 M 830 108.25 C 827.05 119.61 828.21 128.71 830 146.75 M 830 108.25 C 830.46 123.01 831.09 137.05 830 146.75 M 830 146.75 C 828.88 154.26 829.94 157.25 821.75 155 M 830 146.75 C 830.58 151.16 826.18 156.61 821.75 155 M 821.75 155 C 795.62 154.53 767.82 155.89 738.25 155 M 821.75 155 C 802.66 153.55 787.41 154 738.25 155 M 738.25 155 C 733.15 155.93 733.85 152.94 730 146.75 M 738.25 155 C 732.08 157.93 729.19 153.39 730 146.75 M 730 146.75 C 731.81 130.93 727.84 117.91 730 108.25 M 730 146.75 C 729.76 130.85 728.96 117.12 730 108.25 M 730 108.25 C 728.6 102.52 735.76 97.51 738.25 100 M 730 108.25 C 734.18 101.89 735.63 98.32 738.25 100" fill="none" stroke="#d6b656" stroke-linejoin="round" stroke-linecap="round" stroke-miterlimit="10" pointer-events="all"/><g transform="translate(-0.5 -0.5)"><switch><foreignObject pointer-events="none" width="100%" height="100%" requiredFeatures="http://www.w3.org/TR/SVG11/feature#Extensibility" style="overflow: visible; text-align: left;"><div xmlns="http://www.w3.org/1999/xhtml" style="display: flex; align-items: unsafe center; justify-content: unsafe center; width: 98px; height: 1px; padding-top: 128px; margin-left: 731px;"><div data-drawio-colors="color: #1e1b4b; " style="box-sizing: border-box; font-size: 0px; text-align: center;"><div style="display: inline-block; font-size: 12px; font-family: Helvetica; color: rgb(30, 27, 75); line-height: 1.2; pointer-events: all; white-space: normal; overflow-wrap: normal;">Sample<br />1 token</div></div></div></foreignObject><text x="780" y="131" fill="#1e1b4b" font-family="Helvetica" font-size="12px" text-anchor="middle">Sample...</text></switch></g><rect x="880" y="100" width="100" height="55" rx="11" ry="11" fill="none" stroke="none" pointer-events="all"/><path d="M 882.43 103.12 C 882.43 103.12 882.43 103.12 882.43 103.12 M 882.43 103.12 C 882.43 103.12 882.43 103.12 882.43 103.12 M 880.2 111.78 C 884.15 105.86 887.5 106.73 890.04 100.46 M 880.2 111.78 C 885.28 106.34 886.45 102.32 890.04 100.46 M 880.59 117.43 C 888.24 114.01 893.43 102.19 893.71 102.33 M 880.59 117.43 C 882.06 113.87 886.66 109.6 893.71 102.33 M 880.99 123.07 C 884.82 117.35 891.37 106.52 898.7 102.69 M 880.99 123.07 C 883.94 118.1 892.52 112.48 898.7 102.69 M 880.73 129.47 C 889.72 122.77 894.84 111.91 904.34 102.3 M 880.73 129.47 C 887.91 123.03 893.17 116.55 904.34 102.3 M 881.12 135.11 C 887.28 127.63 893.63 120.96 909.33 102.66 M 881.12 135.11 C 888.33 128.73 892.92 120.08 909.33 102.66 M 880.86 141.51 C 897.34 128.69 905.89 112.19 914.97 102.26 M 880.86 141.51 C 887.02 131.58 897.28 125.28 914.97 102.26 M 881.25 147.15 C 888.68 134.67 902.09 120.99 919.96 102.62 M 881.25 147.15 C 895.72 129.65 912.24 111.5 919.96 102.62 M 882.96 151.28 C 892.5 138.95 911 123.3 924.95 102.98 M 882.96 151.28 C 897.77 134.15 915.79 115.44 924.95 102.98 M 885.98 153.91 C 905.56 135.2 913.87 122.36 930.59 102.59 M 885.98 153.91 C 900.23 140.69 910.1 129.01 930.59 102.59 M 889 156.53 C 901.39 140.39 920.6 121.38 935.58 102.95 M 889 156.53 C 903.19 140.42 917.21 126.11 935.58 102.95 M 893.99 156.89 C 900.97 146.73 911.43 131.5 941.22 102.55 M 893.99 156.89 C 906.23 141.62 919.68 129.27 941.22 102.55 M 899.63 156.5 C 916.21 140.16 933.97 114 946.21 102.91 M 899.63 156.5 C 919.67 134.41 938.1 115.06 946.21 102.91 M 904.62 156.86 C 919.86 142.24 924.85 132.77 951.85 102.52 M 904.62 156.86 C 924.35 136.43 940.67 115.6 951.85 102.52 M 910.26 156.46 C 924.88 143.81 935.44 134.81 956.84 102.88 M 910.26 156.46 C 925.65 141.33 937.9 125.5 956.84 102.88 M 915.25 156.82 C 933 135.83 949.5 123.25 961.83 103.24 M 915.25 156.82 C 929.67 135.02 948.25 116.43 961.83 103.24 M 920.23 157.18 C 936.98 137.36 947.97 128.6 967.47 102.84 M 920.23 157.18 C 930.64 143.98 939.61 133.66 967.47 102.84 M 925.88 156.79 C 942 134.05 965.57 114.79 974.42 100.94 M 925.88 156.79 C 941.76 139.51 956.53 118.29 974.42 100.94 M 930.86 157.15 C 953.14 139.36 971.04 115.21 977.44 103.56 M 930.86 157.15 C 940.93 147.37 951.3 135.24 977.44 103.56 M 936.51 156.75 C 948 142.82 966.74 120.32 979.15 107.7 M 936.51 156.75 C 947.68 147.54 954.91 134.17 979.15 107.7 M 941.49 157.11 C 954.59 144.17 957.06 135.12 980.86 111.83 M 941.49 157.11 C 950.18 148.46 961.75 136.56 980.86 111.83 M 946.48 157.47 C 958.28 144.62 969.14 127.26 980.59 118.23 M 946.48 157.47 C 955.89 149.32 963.24 137.75 980.59 118.23 M 952.12 157.08 C 960.39 146.79 971.35 132.48 980.99 123.87 M 952.12 157.08 C 962.18 146.86 971.86 132.68 980.99 123.87 M 957.11 157.44 C 969.66 144.58 977.73 140.21 980.73 130.27 M 957.11 157.44 C 962.92 151.96 967.31 144.09 980.73 130.27 M 962.75 157.05 C 966.76 147.73 973.13 138.13 980.47 136.67 M 962.75 157.05 C 969.89 150.26 976.33 142.87 980.47 136.67 M 969.71 155.14 C 975.16 151.07 979.33 148.1 980.2 143.07 M 969.71 155.14 C 971.94 153.3 977.28 148.46 980.2 143.07" fill="none" stroke="#f8fafc" stroke-width="0.5" stroke-linejoin="round" stroke-linecap="round" stroke-miterlimit="10" pointer-events="all"/><path d="M 891 100 M 891 100 C 909.45 105.14 936.8 99.59 969 100 M 891 100 C 921.17 98.63 951.04 97.68 969 100 M 969 100 C 978.26 102.6 980.64 105.61 980 111 M 969 100 C 973.98 99.65 982.56 101.92 980 111 M 980 111 C 983.06 118.43 978.94 134.02 980 144 M 980 111 C 977.82 122.05 977.96 131.2 980 144 M 980 144 C 979.68 149.55 978.73 151.52 969 155 M 980 144 C 981.53 151.85 973.87 156.39 969 155 M 969 155 C 942.99 155.72 916.46 157.71 891 155 M 969 155 C 939.43 153.43 906.63 152.12 891 155 M 891 155 C 880.57 151.44 876.22 150.89 880 144 M 891 155 C 879.11 158.12 881.18 155.29 880 144 M 880 144 C 881.72 136.2 879.73 127.36 880 111 M 880 144 C 880.86 132.11 878.74 117.7 880 111 M 880 111 C 882.71 101.82 880.11 99.33 891 100 M 880 111 C 882.74 105.28 882.24 102.29 891 100" fill="none" stroke="#64748b" stroke-linejoin="round" stroke-linecap="round" stroke-miterlimit="10" pointer-events="all"/><g transform="translate(-0.5 -0.5)"><switch><foreignObject pointer-events="none" width="100%" height="100%" requiredFeatures="http://www.w3.org/TR/SVG11/feature#Extensibility" style="overflow: visible; text-align: left;"><div xmlns="http://www.w3.org/1999/xhtml" style="display: flex; align-items: unsafe center; justify-content: unsafe center; width: 98px; height: 1px; padding-top: 128px; margin-left: 881px;"><div data-drawio-colors="color: #1e1b4b; " style="box-sizing: border-box; font-size: 0px; text-align: center;"><div style="display: inline-block; font-size: 12px; font-family: Helvetica; color: rgb(30, 27, 75); line-height: 1.2; pointer-events: all; font-weight: bold; white-space: normal; overflow-wrap: normal;">Output<br />text</div></div></div></foreignObject><text x="930" y="131" fill="#1e1b4b" font-family="Helvetica" font-size="12px" text-anchor="middle" font-weight="bold">Output...</text></switch></g><path d="M 90 127.5 L 109.76 127.5" fill="none" stroke="none" pointer-events="stroke"/><path d="M 117.76 127.5 L 109.76 131.5 L 109.76 123.5 Z" fill="none" stroke="none" pointer-events="all"/><path d="M 90 127.5 M 90 127.5 C 93.57 127.32 97.73 128.38 109.76 127.5 M 90 127.5 C 97.9 128.87 107.71 127.87 109.76 127.5" fill="none" stroke="#4f46e5" stroke-width="2" stroke-linejoin="round" stroke-linecap="round" stroke-miterlimit="10" pointer-events="stroke"/><path d="M 109.95 123.28 C 109.95 123.28 109.95 123.28 109.95 123.28 M 109.95 123.28 C 109.95 123.28 109.95 123.28 109.95 123.28 M 112.06 133.05 C 114.69 129.59 115.83 130.15 117.3 127.02 M 112.06 133.05 C 113.89 131.66 115.47 128.75 117.3 127.02" fill="none" stroke="#4f46e5" stroke-linejoin="round" stroke-linecap="round" stroke-miterlimit="10" pointer-events="all"/><path d="M 117.76 127.5 M 117.76 127.5 C 116.23 128.99 112.23 131.7 109.76 131.5 M 117.76 127.5 C 115.3 129.53 112.22 129.79 109.76 131.5 M 109.76 131.5 C 111.14 128.53 110.49 124.91 109.76 123.5 M 109.76 131.5 C 110.22 129.83 109.33 126.84 109.76 123.5 M 109.76 123.5 C 113 122.76 113.58 124.2 117.76 127.5 M 109.76 123.5 C 111.69 123.75 113.84 125.91 117.76 127.5" fill="none" stroke="#4f46e5" stroke-width="2" stroke-linejoin="round" stroke-linecap="round" stroke-miterlimit="10" pointer-events="all"/><path d="M 230 127.5 L 249.76 127.5" fill="none" stroke="none" pointer-events="stroke"/><path d="M 257.76 127.5 L 249.76 131.5 L 249.76 123.5 Z" fill="none" stroke="none" pointer-events="all"/><path d="M 230 127.5 M 230 127.5 C 231.31 125.59 241.05 127.04 249.76 127.5 M 230 127.5 C 233.78 129.05 240.22 126.51 249.76 127.5" fill="none" stroke="#4f46e5" stroke-width="2" stroke-linejoin="round" stroke-linecap="round" stroke-miterlimit="10" pointer-events="stroke"/><path d="M 250.05 123.16 C 250.05 123.16 250.05 123.16 250.05 123.16 M 250.05 123.16 C 250.05 123.16 250.05 123.16 250.05 123.16 M 252.16 132.94 C 254.77 130.85 255.18 126.93 257.4 126.9 M 252.16 132.94 C 253.22 131.45 255.39 130.12 257.4 126.9" fill="none" stroke="#4f46e5" stroke-linejoin="round" stroke-linecap="round" stroke-miterlimit="10" pointer-events="all"/><path d="M 257.76 127.5 M 257.76 127.5 C 255.98 129.87 250.48 130.19 249.76 131.5 M 257.76 127.5 C 254.24 128.06 251.74 131.07 249.76 131.5 M 249.76 131.5 C 250.06 128.98 249.84 127.29 249.76 123.5 M 249.76 131.5 C 249.3 130.15 250.14 127.43 249.76 123.5 M 249.76 123.5 C 251.65 124.69 253.57 124.44 257.76 127.5 M 249.76 123.5 C 253.25 124.06 254.47 125.64 257.76 127.5" fill="none" stroke="#4f46e5" stroke-width="2" stroke-linejoin="round" stroke-linecap="round" stroke-miterlimit="10" pointer-events="all"/><path d="M 370 127.5 L 389.76 127.5" fill="none" stroke="none" pointer-events="stroke"/><path d="M 397.76 127.5 L 389.76 131.5 L 389.76 123.5 Z" fill="none" stroke="none" pointer-events="all"/><path d="M 370 127.5 M 370 127.5 C 376.96 130.97 376.46 124.91 389.76 127.5 M 370 127.5 C 377.57 126.07 384.59 125.94 389.76 127.5" fill="none" stroke="#4f46e5" stroke-width="2" stroke-linejoin="round" stroke-linecap="round" stroke-miterlimit="10" pointer-events="stroke"/><path d="M 389.5 123.8 C 389.5 123.8 389.5 123.8 389.5 123.8 M 389.5 123.8 C 389.5 123.8 389.5 123.8 389.5 123.8 M 391.6 133.58 C 393.14 131.08 394.97 130.29 396.85 127.54 M 391.6 133.58 C 393.49 132 394.65 130.64 396.85 127.54" fill="none" stroke="#4f46e5" stroke-linejoin="round" stroke-linecap="round" stroke-miterlimit="10" pointer-events="all"/><path d="M 397.76 127.5 M 397.76 127.5 C 395.74 127.18 392.31 128.69 389.76 131.5 M 397.76 127.5 C 396.73 127.59 394.63 128.96 389.76 131.5 M 389.76 131.5 C 388.98 129.44 389.18 126.47 389.76 123.5 M 389.76 131.5 C 389.66 128.87 389.04 126.41 389.76 123.5 M 389.76 123.5 C 392.12 125.82 393.78 126.65 397.76 127.5 M 389.76 123.5 C 391.43 125.03 393.69 125.24 397.76 127.5" fill="none" stroke="#4f46e5" stroke-width="2" stroke-linejoin="round" stroke-linecap="round" stroke-miterlimit="10" pointer-events="all"/><path d="M 550 127.5 L 569.76 127.5" fill="none" stroke="none" pointer-events="stroke"/><path d="M 577.76 127.5 L 569.76 131.5 L 569.76 123.5 Z" fill="none" stroke="none" pointer-events="all"/><path d="M 550 127.5 M 550 127.5 C 554.7 129.24 559.78 131.48 569.76 127.5 M 550 127.5 C 553.45 126.26 557.1 128.53 569.76 127.5" fill="none" stroke="#4f46e5" stroke-width="2" stroke-linejoin="round" stroke-linecap="round" stroke-miterlimit="10" pointer-events="stroke"/><path d="M 569.44 123.87 C 569.44 123.87 569.44 123.87 569.44 123.87 M 569.44 123.87 C 569.44 123.87 569.44 123.87 569.44 123.87 M 571.54 133.65 C 572.97 132.62 574.22 130.29 577.44 126.85 M 571.54 133.65 C 572.81 131.77 574.77 130.21 577.44 126.85" fill="none" stroke="#4f46e5" stroke-linejoin="round" stroke-linecap="round" stroke-miterlimit="10" pointer-events="all"/><path d="M 577.76 127.5 M 577.76 127.5 C 575.49 127.75 574.14 130.44 569.76 131.5 M 577.76 127.5 C 575.67 127.91 574.16 130.24 569.76 131.5 M 569.76 131.5 C 571.1 128.3 568.53 125.64 569.76 123.5 M 569.76 131.5 C 570.34 129.19 569.85 126.99 569.76 123.5 M 569.76 123.5 C 570.62 124.17 573.62 126.89 577.76 127.5 M 569.76 123.5 C 572.99 125.34 574.32 126.76 577.76 127.5" fill="none" stroke="#4f46e5" stroke-width="2" stroke-linejoin="round" stroke-linecap="round" stroke-miterlimit="10" pointer-events="all"/><path d="M 700 127.5 L 719.76 127.5" fill="none" stroke="none" pointer-events="stroke"/><path d="M 727.76 127.5 L 719.76 131.5 L 719.76 123.5 Z" fill="none" stroke="none" pointer-events="all"/><path d="M 700 127.5 M 700 127.5 C 702.44 126.72 705.2 129.35 719.76 127.5 M 700 127.5 C 707.24 126.44 711.47 127.17 719.76 127.5" fill="none" stroke="#16a34a" stroke-width="2" stroke-linejoin="round" stroke-linecap="round" stroke-miterlimit="10" pointer-events="stroke"/><path d="M 719.83 123.42 C 719.83 123.42 719.83 123.42 719.83 123.42 M 719.83 123.42 C 719.83 123.42 719.83 123.42 719.83 123.42 M 721.93 133.2 C 723.18 130.68 723.55 130.53 727.18 127.16 M 721.93 133.2 C 722.28 131.65 724.62 130.24 727.18 127.16" fill="none" stroke="#16a34a" stroke-linejoin="round" stroke-linecap="round" stroke-miterlimit="10" pointer-events="all"/><path d="M 727.76 127.5 M 727.76 127.5 C 725.24 128.63 722.4 128.93 719.76 131.5 M 727.76 127.5 C 724.76 128.23 723.84 129.73 719.76 131.5 M 719.76 131.5 C 719.7 128.76 720.75 128.02 719.76 123.5 M 719.76 131.5 C 719.1 129.52 720.35 127.57 719.76 123.5 M 719.76 123.5 C 722.85 126.09 727.19 127.12 727.76 127.5 M 719.76 123.5 C 721.17 124.52 723.54 124.57 727.76 127.5" fill="none" stroke="#16a34a" stroke-width="2" stroke-linejoin="round" stroke-linecap="round" stroke-miterlimit="10" pointer-events="all"/><path d="M 830 127.5 L 869.76 127.5" fill="none" stroke="none" pointer-events="stroke"/><path d="M 877.76 127.5 L 869.76 131.5 L 869.76 123.5 Z" fill="none" stroke="none" pointer-events="all"/><path d="M 830 127.5 M 830 127.5 C 842.5 124.92 847.24 127.98 869.76 127.5 M 830 127.5 C 844.25 127.78 860.23 126.95 869.76 127.5" fill="none" stroke="#16a34a" stroke-width="2" stroke-linejoin="round" stroke-linecap="round" stroke-miterlimit="10" pointer-events="stroke"/><path d="M 869.56 123.73 C 869.56 123.73 869.56 123.73 869.56 123.73 M 869.56 123.73 C 869.56 123.73 869.56 123.73 869.56 123.73 M 871.66 133.51 C 872.88 132.36 875.73 130.93 876.91 127.47 M 871.66 133.51 C 873.9 130.65 876.27 129.61 876.91 127.47" fill="none" stroke="#16a34a" stroke-linejoin="round" stroke-linecap="round" stroke-miterlimit="10" pointer-events="all"/><path d="M 877.76 127.5 M 877.76 127.5 C 875 129.52 874.23 127.43 869.76 131.5 M 877.76 127.5 C 875.49 128.55 871.58 131.01 869.76 131.5 M 869.76 131.5 C 868.63 129.21 870.1 127.2 869.76 123.5 M 869.76 131.5 C 869.46 129.84 869.24 128.16 869.76 123.5 M 869.76 123.5 C 873.32 123.64 873.82 125.76 877.76 127.5 M 869.76 123.5 C 872.74 124.83 874.18 126.09 877.76 127.5" fill="none" stroke="#16a34a" stroke-width="2" stroke-linejoin="round" stroke-linecap="round" stroke-miterlimit="10" pointer-events="all"/><path d="M 780 100 L 780 60 Q 780 50 770 50 L 485 50 Q 475 50 475 60 L 475 79.76" fill="none" stroke="none" pointer-events="stroke"/><path d="M 475 87.76 L 471 79.76 L 479 79.76 Z" fill="none" stroke="none" pointer-events="all"/><path d="M 780 100 M 780 100 C 778.21 89.1 778.12 71.59 780 60 M 780 100 C 777.55 87.05 781.34 71.41 780 60 M 780 60 C 781.89 55.18 779.81 46.61 770 50 M 780 60 C 783.35 54.79 778.98 52.37 770 50 M 770 50 C 674.76 50 577.9 50.5 485 50 M 770 50 C 674.08 49.29 576.52 47.12 485 50 M 485 50 C 476.1 48.85 471.27 51.25 475 60 M 485 50 C 480.19 52.85 474.37 48.74 475 60 M 475 60 C 478.25 66.08 477.07 64.35 475 79.76 M 475 60 C 475 65.63 474.71 73.42 475 79.76" fill="none" stroke="#9673a6" stroke-width="2" stroke-linejoin="round" stroke-linecap="round" stroke-miterlimit="10" stroke-dasharray="6 6" pointer-events="stroke"/><path d="M 471.19 79.54 C 471.19 79.54 471.19 79.54 471.19 79.54 M 471.19 79.54 C 471.19 79.54 471.19 79.54 471.19 79.54 M 474.6 87.81 C 475.07 86.67 479.21 83.91 480.51 81.02 M 474.6 87.81 C 476.69 85.14 478.64 82.09 480.51 81.02" fill="none" stroke="#9673a6" stroke-linejoin="round" stroke-linecap="round" stroke-miterlimit="10" pointer-events="all"/><path d="M 475 87.76 M 475 87.76 C 472.87 86.83 474.01 84.01 471 79.76 M 475 87.76 C 473.28 85.33 473.51 84.41 471 79.76 M 471 79.76 C 472.19 79.28 477.01 80.7 479 79.76 M 471 79.76 C 474.1 79.14 476.71 79.05 479 79.76 M 479 79.76 C 478.45 80.31 475.33 83.86 475 87.76 M 479 79.76 C 477.42 81.09 477.28 82.9 475 87.76" fill="none" stroke="#9673a6" stroke-width="2" stroke-linejoin="round" stroke-linecap="round" stroke-miterlimit="10" pointer-events="all"/><g fill="#64748b" font-family="Helvetica" text-anchor="middle" font-size="9px"><rect fill="rgb(255, 255, 255)" stroke="none" x="589" y="45" width="87" height="12" stroke-width="0"/><text x="631.5" y="53">append token, repeat</text></g><rect x="380" y="170" width="190" height="30" fill="none" stroke="none" pointer-events="all"/><g transform="translate(-0.5 -0.5)"><switch><foreignObject pointer-events="none" width="100%" height="100%" requiredFeatures="http://www.w3.org/TR/SVG11/feature#Extensibility" style="overflow: visible; text-align: left;"><div xmlns="http://www.w3.org/1999/xhtml" style="display: flex; align-items: unsafe center; justify-content: unsafe center; width: 1px; height: 1px; padding-top: 185px; margin-left: 475px;"><div data-drawio-colors="color: #64748b; " style="box-sizing: border-box; font-size: 0px; text-align: center;"><div style="display: inline-block; font-size: 9px; font-family: Helvetica; color: rgb(100, 116, 139); line-height: 1.2; pointer-events: all; font-style: italic; white-space: nowrap;">KV cache: skip recomputing<br />already-seen tokens</div></div></div></foreignObject><text x="475" y="188" fill="#64748b" font-family="Helvetica" font-size="9px" text-anchor="middle" font-style="italic">KV cache: skip recomputing...</text></switch></g><rect x="220" y="230" width="560" height="20" fill="none" stroke="none" pointer-events="all"/><g transform="translate(-0.5 -0.5)"><switch><foreignObject pointer-events="none" width="100%" height="100%" requiredFeatures="http://www.w3.org/TR/SVG11/feature#Extensibility" style="overflow: visible; text-align: left;"><div xmlns="http://www.w3.org/1999/xhtml" style="display: flex; align-items: unsafe center; justify-content: unsafe center; width: 1px; height: 1px; padding-top: 240px; margin-left: 500px;"><div data-drawio-colors="color: #64748b; " style="box-sizing: border-box; font-size: 0px; text-align: center;"><div style="display: inline-block; font-size: 10px; font-family: Helvetica; color: rgb(100, 116, 139); line-height: 1.2; pointer-events: all; font-style: italic; white-space: nowrap;">Context window = max tokens (prompt + output) the model attends to at once</div></div></div></foreignObject><text x="500" y="243" fill="#64748b" font-family="Helvetica" font-size="10px" text-anchor="middle" font-style="italic">Context window = max tokens (prompt + output) the model attends to at once</text></switch></g><rect x="220" y="260" width="560" height="20" fill="none" stroke="none" pointer-events="all"/><g transform="translate(-0.5 -0.5)"><switch><foreignObject pointer-events="none" width="100%" height="100%" requiredFeatures="http://www.w3.org/TR/SVG11/feature#Extensibility" style="overflow: visible; text-align: left;"><div xmlns="http://www.w3.org/1999/xhtml" style="display: flex; align-items: unsafe center; justify-content: unsafe center; width: 1px; height: 1px; padding-top: 270px; margin-left: 500px;"><div data-drawio-colors="color: #16a34a; " style="box-sizing: border-box; font-size: 0px; text-align: center;"><div style="display: inline-block; font-size: 10px; font-family: Helvetica; color: rgb(22, 163, 74); line-height: 1.2; pointer-events: all; font-weight: bold; font-style: italic; white-space: nowrap;">1st token slow (process whole prompt) · later tokens fast → TTFT vs tokens/sec</div></div></div></foreignObject><text x="500" y="273" fill="#16a34a" font-family="Helvetica" font-size="10px" text-anchor="middle" font-weight="bold" font-style="italic">1st token slow (process whole prompt) · later tokens fast → TTFT vs tokens/sec</text></switch></g></g><switch><g requiredFeatures="http://www.w3.org/TR/SVG11/feature#Extensibility"/><a transform="translate(0,-5)" xlink:href="https://www.diagrams.net/doc/faq/svg-export-text-problems" target="_blank"><text text-anchor="middle" font-size="10px" x="50%" y="100%">Text is not SVG - cannot display</text></a></switch></svg>