<?xml version="1.0" encoding="UTF-8"?>
<!DOCTYPE svg PUBLIC "-//W3C//DTD SVG 1.1//EN" "http://www.w3.org/Graphics/SVG/1.1/DTD/svg11.dtd">
<svg xmlns="http://www.w3.org/2000/svg" xmlns:xlink="http://www.w3.org/1999/xlink" version="1.1" width="832px" height="297px" viewBox="-0.5 -0.5 832 297"><defs/><g><rect x="170" y="0" width="560" height="30" fill="none" stroke="none" pointer-events="all"/><g transform="translate(-0.5 -0.5)"><switch><foreignObject pointer-events="none" width="100%" height="100%" requiredFeatures="http://www.w3.org/TR/SVG11/feature#Extensibility" style="overflow: visible; text-align: left;"><div xmlns="http://www.w3.org/1999/xhtml" style="display: flex; align-items: unsafe center; justify-content: unsafe center; width: 1px; height: 1px; padding-top: 15px; margin-left: 450px;"><div data-drawio-colors="color: #4f46e5; " style="box-sizing: border-box; font-size: 0px; text-align: center;"><div style="display: inline-block; font-size: 16px; font-family: Helvetica; color: rgb(79, 70, 229); line-height: 1.2; pointer-events: all; font-weight: bold; white-space: nowrap;">Training &amp; Customization Spectrum</div></div></div></foreignObject><text x="450" y="20" fill="#4f46e5" font-family="Helvetica" font-size="16px" text-anchor="middle" font-weight="bold">Training &amp; Customization Spectrum</text></switch></g><rect x="90" y="42" width="720" height="20" fill="none" stroke="none" pointer-events="all"/><g transform="translate(-0.5 -0.5)"><switch><foreignObject pointer-events="none" width="100%" height="100%" requiredFeatures="http://www.w3.org/TR/SVG11/feature#Extensibility" style="overflow: visible; text-align: left;"><div xmlns="http://www.w3.org/1999/xhtml" style="display: flex; align-items: unsafe center; justify-content: unsafe center; width: 1px; height: 1px; padding-top: 52px; margin-left: 450px;"><div data-drawio-colors="color: #64748b; " style="box-sizing: border-box; font-size: 0px; text-align: center;"><div style="display: inline-block; font-size: 10px; font-family: Helvetica; color: rgb(100, 116, 139); line-height: 1.2; pointer-events: all; font-style: italic; white-space: nowrap;">Provider-owned, costly  ──────────────────────────►  You can do, cheaper</div></div></div></foreignObject><text x="450" y="55" fill="#64748b" font-family="Helvetica" font-size="10px" text-anchor="middle" font-style="italic">Provider-owned, costly  ──────────────────────────►  You can do, cheaper</text></switch></g><rect x="0" y="80" width="140" height="60" rx="9" ry="9" fill="none" stroke="none" pointer-events="all"/><path d="M 2.05 82.48 C 2.05 82.48 2.05 82.48 2.05 82.48 M 2.05 82.48 C 2.05 82.48 2.05 82.48 2.05 82.48 M 1.13 89.63 C 5.84 85.47 3.65 83.65 9.01 80.57 M 1.13 89.63 C 2.92 86.43 5.5 84.08 9.01 80.57 M 0.87 96.03 C 1.74 91.01 11.66 83.76 14.65 80.18 M 0.87 96.03 C 3.77 91.32 10.16 84.93 14.65 80.18 M 1.27 101.67 C 10.29 94.09 14.19 88.06 19.64 80.54 M 1.27 101.67 C 8.11 94.82 13.56 84.72 19.64 80.54 M 1.01 108.07 C 12.84 98.24 14.34 92.92 25.28 80.15 M 1.01 108.07 C 9.93 100.5 14.07 89.5 25.28 80.15 M 0.74 114.47 C 11.13 104.03 14.44 96.59 30.27 80.51 M 0.74 114.47 C 6.87 105.7 14.64 99.35 30.27 80.51 M 1.14 120.11 C 12.87 106.57 22.01 95.37 35.91 80.11 M 1.14 120.11 C 12.89 106.24 24.09 92.22 35.91 80.11 M 0.88 126.51 C 16.55 114.42 27.03 96.47 40.9 80.47 M 0.88 126.51 C 13.5 114.07 24.43 97.61 40.9 80.47 M 1.27 132.15 C 16.85 114.42 36.28 100.01 46.54 80.08 M 1.27 132.15 C 13.74 114.38 28.04 98.46 46.54 80.08 M 2.32 137.04 C 13.96 126.25 20.15 114.2 51.53 80.44 M 2.32 137.04 C 18.49 118.15 31.17 102.9 51.53 80.44 M 5.34 139.66 C 14.91 123.49 32.32 113.5 56.51 80.8 M 5.34 139.66 C 17.52 128.21 27.4 112.82 56.51 80.8 M 10.33 140.02 C 24.39 126.84 33.94 113.5 62.16 80.4 M 10.33 140.02 C 21.37 128.11 30.34 115.61 62.16 80.4 M 15.97 139.63 C 31.83 117.54 50.7 98.89 67.14 80.76 M 15.97 139.63 C 33.7 118.47 48.74 100.4 67.14 80.76 M 20.96 139.99 C 44.9 119.86 62.23 97.17 72.79 80.37 M 20.96 139.99 C 33.24 123.24 47.76 107.45 72.79 80.37 M 26.6 139.59 C 43.62 118.69 66.34 101.68 77.77 80.73 M 26.6 139.59 C 42.37 120.53 58.61 101.96 77.77 80.73 M 31.59 139.95 C 49.96 122.61 65.6 104.87 83.42 80.33 M 31.59 139.95 C 50.23 120.79 66.47 103.75 83.42 80.33 M 37.23 139.56 C 48.3 126.76 61.29 111.15 88.4 80.69 M 37.23 139.56 C 51.77 125.34 64.78 109.85 88.4 80.69 M 42.22 139.92 C 61.59 114.27 83.13 92.75 94.05 80.3 M 42.22 139.92 C 56.75 123.55 68.65 111.8 94.05 80.3 M 47.86 139.53 C 69.82 116.7 80.98 99.61 99.03 80.66 M 47.86 139.53 C 60.83 126.43 72.22 112.43 99.03 80.66 M 52.85 139.89 C 68.8 117.91 87.71 98.45 104.02 81.02 M 52.85 139.89 C 62.59 128.34 75.74 112.63 104.02 81.02 M 57.84 140.25 C 68.23 126.11 77.33 120.75 109.66 80.62 M 57.84 140.25 C 72.59 120.29 88.65 106.27 109.66 80.62 M 63.48 139.85 C 85.2 113.46 101.97 97.29 114.65 80.98 M 63.48 139.85 C 75.58 126.62 86.61 112.73 114.65 80.98 M 68.47 140.21 C 83.61 126.32 91.8 114.79 120.29 80.59 M 68.47 140.21 C 87.1 118.2 106.58 92.54 120.29 80.59 M 74.11 139.82 C 91.9 123.54 103.15 105.53 125.28 80.95 M 74.11 139.82 C 84.01 128.12 99.81 112.89 125.28 80.95 M 79.1 140.18 C 88.56 128.92 103.26 108.8 130.92 80.56 M 79.1 140.18 C 101.02 115.75 121.96 93.67 130.92 80.56 M 84.74 139.78 C 96.28 122.41 111.31 112.67 135.91 80.92 M 84.74 139.78 C 95.46 123.7 110.64 110.18 135.91 80.92 M 89.73 140.14 C 105.35 120.78 126.33 94.16 138.93 83.54 M 89.73 140.14 C 101.58 127.03 115.04 113 138.93 83.54 M 95.37 139.75 C 105.9 127.73 116.92 110.8 140.64 87.67 M 95.37 139.75 C 108.74 125.78 119.75 112.56 140.64 87.67 M 100.36 140.11 C 119.2 122.73 129.74 106.96 143 91.05 M 100.36 140.11 C 112.54 124.99 125.79 114.3 143 91.05 M 105.34 140.47 C 117.29 126.04 131.11 108.7 142.74 97.45 M 105.34 140.47 C 113.11 129.81 126.13 119.39 142.74 97.45 M 110.99 140.07 C 120.26 126.14 133.47 112.77 142.48 103.85 M 110.99 140.07 C 120.1 131.21 125.84 121.06 142.48 103.85 M 115.97 140.43 C 129.55 126.72 132.1 118.53 142.22 110.25 M 115.97 140.43 C 124.97 133.67 132.98 122.98 142.22 110.25 M 121.62 140.04 C 125.93 128.4 138.12 122.17 142.61 115.89 M 121.62 140.04 C 126.23 132.7 132.27 129.62 142.61 115.89 M 126.6 140.4 C 131.85 135.1 132.3 135.1 142.35 122.29 M 126.6 140.4 C 130.69 134.36 136.7 127.92 142.35 122.29 M 131.59 140.76 C 131.76 139.79 134.71 138.92 142.09 128.68 M 131.59 140.76 C 135.76 137.7 137.49 134.7 142.09 128.68" fill="none" stroke="#eef2ff" stroke-width="0.5" stroke-linejoin="round" stroke-linecap="round" stroke-miterlimit="10" pointer-events="all"/><path d="M 9 80 M 9 80 C 36.23 80.5 72.42 77.2 131 80 M 9 80 C 51.15 81.37 95.33 80.29 131 80 M 131 80 C 135.15 82.12 138.5 84.7 140 89 M 131 80 C 136.52 84.59 139.52 81.65 140 89 M 140 89 C 142.68 103.45 135.72 109.75 140 131 M 140 89 C 141.16 103.94 139.69 119.72 140 131 M 140 131 C 140.68 137.8 137.21 142.41 131 140 M 140 131 C 140 132.44 140 135.44 131 140 M 131 140 C 88.64 140.25 49.31 138.1 9 140 M 131 140 C 90.67 142.56 53.44 142 9 140 M 9 140 C 6.66 143.24 2.7 140.98 0 131 M 9 140 C 6.82 142.19 3.68 138.26 0 131 M 0 131 C -1.24 118.44 -1.07 104.13 0 89 M 0 131 C 0.12 117.23 1.58 101.96 0 89 M 0 89 C -1.1 85.92 -0.28 78.87 9 80 M 0 89 C 1.69 81.53 -0.77 81.83 9 80" fill="none" stroke="#4f46e5" stroke-linejoin="round" stroke-linecap="round" stroke-miterlimit="10" pointer-events="all"/><g transform="translate(-0.5 -0.5)"><switch><foreignObject pointer-events="none" width="100%" height="100%" requiredFeatures="http://www.w3.org/TR/SVG11/feature#Extensibility" style="overflow: visible; text-align: left;"><div xmlns="http://www.w3.org/1999/xhtml" style="display: flex; align-items: unsafe center; justify-content: unsafe center; width: 138px; height: 1px; padding-top: 110px; margin-left: 1px;"><div data-drawio-colors="color: #1e1b4b; " style="box-sizing: border-box; font-size: 0px; text-align: center;"><div style="display: inline-block; font-size: 12px; font-family: Helvetica; color: rgb(30, 27, 75); line-height: 1.2; pointer-events: all; white-space: normal; overflow-wrap: normal;">Pretraining<br />(base model)</div></div></div></foreignObject><text x="70" y="114" fill="#1e1b4b" font-family="Helvetica" font-size="12px" text-anchor="middle">Pretraining...</text></switch></g><rect x="170" y="80" width="140" height="60" rx="9" ry="9" fill="none" stroke="none" pointer-events="all"/><path d="M 172.36 82.12 C 172.36 82.12 172.36 82.12 172.36 82.12 M 172.36 82.12 C 172.36 82.12 172.36 82.12 172.36 82.12 M 170.79 90.03 C 173.11 87.11 177.61 85.63 179.31 80.22 M 170.79 90.03 C 173.18 87.88 174.95 84.81 179.31 80.22 M 171.18 95.67 C 175.88 87.54 178.61 84.94 184.3 80.58 M 171.18 95.67 C 177.1 90.89 182.44 82.76 184.3 80.58 M 170.92 102.07 C 179.78 97.55 185.96 86.78 189.95 80.19 M 170.92 102.07 C 177.29 96.41 181.98 92.32 189.95 80.19 M 170.66 108.47 C 183.06 97.61 189.99 86.76 194.93 80.55 M 170.66 108.47 C 179.59 100.54 187.02 88.51 194.93 80.55 M 171.05 114.11 C 180.64 100.43 187.24 90.07 200.58 80.15 M 171.05 114.11 C 181.1 104.8 189.63 93.15 200.58 80.15 M 170.79 120.51 C 180.95 114.56 189.43 99.74 205.56 80.51 M 170.79 120.51 C 182.43 109.94 194.21 94.91 205.56 80.51 M 171.19 126.15 C 183.96 117.44 191.22 98.98 211.21 80.12 M 171.19 126.15 C 182 112.57 193.06 102.88 211.21 80.12 M 171.58 131.8 C 183.06 118.48 199.42 106.25 216.19 80.48 M 171.58 131.8 C 181.85 117.95 195.31 103.18 216.19 80.48 M 172.63 136.68 C 194.5 111.64 212.8 93.82 221.84 80.08 M 172.63 136.68 C 188.87 123.09 200.09 106.68 221.84 80.08 M 175.65 139.31 C 197.26 120.48 216.19 94.77 226.82 80.44 M 175.65 139.31 C 191.79 120.91 210.67 99.91 226.82 80.44 M 180.64 139.67 C 195.91 119.62 211.59 103.1 231.81 80.8 M 180.64 139.67 C 197.92 119.49 218.1 98.12 231.81 80.8 M 185.62 140.03 C 203.22 115.95 223.53 102.96 237.45 80.41 M 185.62 140.03 C 205.68 118.42 223.7 97.56 237.45 80.41 M 191.27 139.63 C 203.65 123.7 218.7 113.26 242.44 80.77 M 191.27 139.63 C 206.06 121.75 221.28 106.67 242.44 80.77 M 196.25 139.99 C 212.13 126.11 224.3 108.44 248.08 80.37 M 196.25 139.99 C 211.07 123.11 224.75 103.79 248.08 80.37 M 201.9 139.6 C 219.2 119.56 238.64 95.56 253.07 80.73 M 201.9 139.6 C 218.47 120.14 234.27 102.9 253.07 80.73 M 206.88 139.96 C 228.13 115.75 243.33 99.17 258.71 80.34 M 206.88 139.96 C 224.57 121.4 242.21 100.77 258.71 80.34 M 212.53 139.57 C 225.03 122.5 240.19 112.39 263.7 80.7 M 212.53 139.57 C 226.25 124.7 237.1 110.78 263.7 80.7 M 217.51 139.93 C 234.27 127.03 245.48 110.23 269.34 80.3 M 217.51 139.93 C 229.71 124.32 243.78 110.75 269.34 80.3 M 223.16 139.53 C 237.09 119.94 255.96 103.05 274.33 80.66 M 223.16 139.53 C 238.28 122.38 254.5 105.07 274.33 80.66 M 228.14 139.89 C 242.84 119.99 259.49 96.55 279.32 81.02 M 228.14 139.89 C 244.91 120.94 264.23 101.97 279.32 81.02 M 233.13 140.25 C 251.44 119.44 274.97 89.33 284.96 80.63 M 233.13 140.25 C 249.2 120.82 267.23 98 284.96 80.63 M 238.77 139.86 C 257.17 117.87 275.17 92.93 289.95 80.99 M 238.77 139.86 C 255.79 119.04 274.72 99.81 289.95 80.99 M 243.76 140.22 C 259.75 124.42 276.19 101.55 295.59 80.59 M 243.76 140.22 C 256.17 126.78 268.25 111.18 295.59 80.59 M 249.4 139.82 C 263.32 122.17 278.58 106.63 300.58 80.96 M 249.4 139.82 C 268.03 118.71 283.9 98.31 300.58 80.96 M 254.39 140.18 C 267.24 128.69 274.37 119.45 305.56 81.32 M 254.39 140.18 C 266.34 127.3 276.25 115.59 305.56 81.32 M 260.03 139.79 C 278.3 121.39 296.75 94.64 309.24 83.18 M 260.03 139.79 C 276.46 120.01 294.38 99.41 309.24 83.18 M 265.02 140.15 C 277.34 125.76 289.86 107.78 310.29 88.07 M 265.02 140.15 C 281.27 119.8 298.32 100.37 310.29 88.07 M 270.66 139.75 C 282.71 126.43 293.87 116.54 312.65 91.45 M 270.66 139.75 C 282.06 128.18 292.69 113.09 312.65 91.45 M 275.65 140.11 C 293.69 127.06 302.41 107.93 312.39 97.85 M 275.65 140.11 C 285.11 130.33 289.64 125.45 312.39 97.85 M 280.64 140.47 C 296.52 123.87 302.77 108.09 312.79 103.49 M 280.64 140.47 C 289.63 130.32 299.03 118.93 312.79 103.49 M 286.28 140.08 C 295.06 128.38 303.88 116.55 312.52 109.89 M 286.28 140.08 C 297.64 130.38 305.99 119.59 312.52 109.89 M 291.27 140.44 C 296.33 133.1 308.02 119.75 312.26 116.29 M 291.27 140.44 C 299.37 133.22 303.86 123.71 312.26 116.29 M 296.91 140.04 C 304.9 132.91 308.7 125.71 312.66 121.93 M 296.91 140.04 C 304.05 134.1 308.38 125.34 312.66 121.93 M 301.9 140.4 C 303.84 136.2 306.58 130.95 312.4 128.33 M 301.9 140.4 C 304.76 136.85 307.2 134.53 312.4 128.33" fill="none" stroke="#e1d5e7" stroke-width="0.5" stroke-linejoin="round" stroke-linecap="round" stroke-miterlimit="10" pointer-events="all"/><path d="M 179 80 M 179 80 C 203.58 79 233.96 85.8 301 80 M 179 80 C 220.6 78.4 263.45 77.21 301 80 M 301 80 C 305.02 78.24 306.95 84.33 310 89 M 301 80 C 307.74 81.91 309.67 85.89 310 89 M 310 89 C 311.06 99.89 312.23 106.67 310 131 M 310 89 C 309.71 103.93 311.92 113.97 310 131 M 310 131 C 306.13 139.8 308.49 140.02 301 140 M 310 131 C 314.15 141.53 304.98 137.25 301 140 M 301 140 C 275.04 138.53 243.01 143.96 179 140 M 301 140 C 269.67 140.74 239.96 138.08 179 140 M 179 140 C 173.39 140.68 173 134.53 170 131 M 179 140 C 168.89 137.85 165.72 139.91 170 131 M 170 131 C 172.95 123.26 171.07 109.67 170 89 M 170 131 C 170.13 121.35 170.18 110.81 170 89 M 170 89 C 169.81 86.84 173.18 78.01 179 80 M 170 89 C 167.35 81.06 176 83.52 179 80" fill="none" stroke="#9673a6" stroke-linejoin="round" stroke-linecap="round" stroke-miterlimit="10" pointer-events="all"/><g transform="translate(-0.5 -0.5)"><switch><foreignObject pointer-events="none" width="100%" height="100%" requiredFeatures="http://www.w3.org/TR/SVG11/feature#Extensibility" style="overflow: visible; text-align: left;"><div xmlns="http://www.w3.org/1999/xhtml" style="display: flex; align-items: unsafe center; justify-content: unsafe center; width: 138px; height: 1px; padding-top: 110px; margin-left: 171px;"><div data-drawio-colors="color: #1e1b4b; " style="box-sizing: border-box; font-size: 0px; text-align: center;"><div style="display: inline-block; font-size: 12px; font-family: Helvetica; color: rgb(30, 27, 75); line-height: 1.2; pointer-events: all; white-space: normal; overflow-wrap: normal;">Continued<br />Pre-Training</div></div></div></foreignObject><text x="240" y="114" fill="#1e1b4b" font-family="Helvetica" font-size="12px" text-anchor="middle">Continued...</text></switch></g><rect x="340" y="80" width="140" height="60" rx="9" ry="9" fill="none" stroke="none" pointer-events="all"/><path d="M 342.01 82.52 C 342.01 82.52 342.01 82.52 342.01 82.52 M 342.01 82.52 C 342.01 82.52 342.01 82.52 342.01 82.52 M 341.09 89.68 C 340.96 86.9 342.85 87.44 348.97 80.62 M 341.09 89.68 C 344.16 87.8 344.44 85.1 348.97 80.62 M 340.83 96.07 C 341.26 93.07 349.59 89.1 354.61 80.23 M 340.83 96.07 C 346.81 90.88 348.59 87.49 354.61 80.23 M 341.23 101.72 C 343.09 98.42 351.39 87.77 359.6 80.59 M 341.23 101.72 C 346.96 96.02 349.33 89.58 359.6 80.59 M 340.97 108.11 C 347.78 96.89 355.87 90.53 365.24 80.19 M 340.97 108.11 C 345.39 104.1 353.92 94.93 365.24 80.19 M 340.7 114.51 C 345.59 102.25 355.69 95.64 370.23 80.55 M 340.7 114.51 C 346.73 106.81 353.74 99.53 370.23 80.55 M 341.1 120.16 C 352.74 106.98 361.04 94.73 375.87 80.16 M 341.1 120.16 C 354 104.51 365.32 92.55 375.87 80.16 M 340.84 126.55 C 350.3 112.3 368.76 99.3 380.86 80.52 M 340.84 126.55 C 356.9 110.91 368.97 93.31 380.86 80.52 M 341.23 132.2 C 355.76 116.64 376.56 97.53 386.5 80.12 M 341.23 132.2 C 354.36 118.33 369.32 99.32 386.5 80.12 M 342.94 136.33 C 363.7 119.51 374.7 95.95 391.49 80.48 M 342.94 136.33 C 357.31 118.73 370.8 103.69 391.49 80.48 M 345.3 139.71 C 359.83 121.35 374.22 112.07 397.13 80.09 M 345.3 139.71 C 360.52 124.43 374.17 107.56 397.13 80.09 M 350.29 140.07 C 361.38 118.44 381.46 105.09 402.12 80.45 M 350.29 140.07 C 368.01 125.03 382.97 103.94 402.12 80.45 M 355.93 139.67 C 363.48 122.92 381.28 109.63 407.1 80.81 M 355.93 139.67 C 371.43 121.53 387.74 102.22 407.1 80.81 M 360.92 140.03 C 372.12 124.32 384.12 110.87 412.75 80.41 M 360.92 140.03 C 375.94 124.46 391.57 106.18 412.75 80.41 M 366.56 139.64 C 377.93 124.27 384.8 117.48 417.73 80.77 M 366.56 139.64 C 385.97 119.88 403.69 99.49 417.73 80.77 M 371.55 140 C 383.15 121.48 403.88 102.3 423.38 80.38 M 371.55 140 C 390.93 120.7 408.78 99.35 423.38 80.38 M 377.19 139.61 C 392.86 122.84 416.29 97.9 428.36 80.74 M 377.19 139.61 C 394.32 121.91 412.14 97.8 428.36 80.74 M 382.18 139.97 C 401.03 123.96 414 104.25 434.01 80.34 M 382.18 139.97 C 392.64 129.14 402.67 116.08 434.01 80.34 M 387.82 139.57 C 400.57 119.57 417.91 96.87 438.99 80.7 M 387.82 139.57 C 403.78 122.24 417.91 106.53 438.99 80.7 M 392.81 139.93 C 410.38 122.55 426.7 103.52 444.64 80.31 M 392.81 139.93 C 400.85 125.7 413.98 112.68 444.64 80.31 M 398.45 139.54 C 421.92 118.85 441.62 93.53 449.63 80.67 M 398.45 139.54 C 415.36 124.13 427.24 106.86 449.63 80.67 M 403.44 139.9 C 414.37 124.56 424.91 112.48 454.61 81.03 M 403.44 139.9 C 413.81 125.11 430.43 111.35 454.61 81.03 M 408.43 140.26 C 419.95 121.31 437.59 111.48 460.26 80.63 M 408.43 140.26 C 429.18 117.85 451.17 93.64 460.26 80.63 M 414.07 139.86 C 432.19 121.7 447.16 100.7 465.24 80.99 M 414.07 139.86 C 433.54 117.86 451.7 96.59 465.24 80.99 M 419.06 140.22 C 434.82 119.28 449.93 104.25 470.89 80.6 M 419.06 140.22 C 430.15 128.27 441.6 115.81 470.89 80.6 M 424.7 139.83 C 444.08 119.96 454.06 104.93 475.87 80.96 M 424.7 139.83 C 442.99 119.33 461.17 97 475.87 80.96 M 429.69 140.19 C 443.62 115.73 462.99 101.02 478.89 83.58 M 429.69 140.19 C 445.65 119.84 461.84 101.61 478.89 83.58 M 435.33 139.79 C 449.61 122.94 472.77 99.58 480.6 87.72 M 435.33 139.79 C 450.37 121.85 463.58 103.63 480.6 87.72 M 440.32 140.15 C 457.83 126.41 466.78 107.96 482.96 91.1 M 440.32 140.15 C 451.07 129.19 461.8 116.93 482.96 91.1 M 445.96 139.76 C 457.78 129.9 461.21 120.8 482.7 97.5 M 445.96 139.76 C 452.69 130.46 460.68 121.21 482.7 97.5 M 450.95 140.12 C 459.02 128.37 466.58 117.42 482.44 103.89 M 450.95 140.12 C 455.99 132.02 463.8 122.73 482.44 103.89 M 455.93 140.48 C 463.09 136.54 470.39 121.47 482.18 110.29 M 455.93 140.48 C 464.78 129.24 474.2 116.59 482.18 110.29 M 461.58 140.08 C 466.06 137.2 475.14 126.99 482.57 115.93 M 461.58 140.08 C 468.34 134.88 471.2 126.13 482.57 115.93 M 466.56 140.44 C 470.81 139.35 475.63 129.06 482.31 122.33 M 466.56 140.44 C 472.68 135.03 474.53 129.12 482.31 122.33 M 471.55 140.8 C 474.36 132.96 482.39 128.7 482.05 128.73 M 471.55 140.8 C 474.82 137.09 479.22 130.72 482.05 128.73" fill="none" stroke="#fff2cc" stroke-width="0.5" stroke-linejoin="round" stroke-linecap="round" stroke-miterlimit="10" pointer-events="all"/><path d="M 349 80 M 349 80 C 392.46 76.13 433.36 79.01 471 80 M 349 80 C 378.87 80.34 405.59 80.64 471 80 M 471 80 C 474.99 80.95 477.12 82.12 480 89 M 471 80 C 472.46 80.81 482.42 86.82 480 89 M 480 89 C 478.69 102.91 482.71 125.96 480 131 M 480 89 C 479.17 100.25 481.17 111.39 480 131 M 480 131 C 479.43 134.58 474.61 141.68 471 140 M 480 131 C 482.53 135.74 478.05 135.96 471 140 M 471 140 C 436.67 138.08 403.09 136.93 349 140 M 471 140 C 432.03 139.77 389.34 141.65 349 140 M 349 140 C 339.03 141.11 338.64 136.22 340 131 M 349 140 C 345.74 142.33 343.88 135.14 340 131 M 340 131 C 343.92 118.97 338.76 96.74 340 89 M 340 131 C 341.69 118.96 341.02 107.77 340 89 M 340 89 C 337.76 82.42 346.53 80.22 349 80 M 340 89 C 336.91 86.65 347.11 78.56 349 80" fill="none" stroke="#d6b656" stroke-linejoin="round" stroke-linecap="round" stroke-miterlimit="10" pointer-events="all"/><g transform="translate(-0.5 -0.5)"><switch><foreignObject pointer-events="none" width="100%" height="100%" requiredFeatures="http://www.w3.org/TR/SVG11/feature#Extensibility" style="overflow: visible; text-align: left;"><div xmlns="http://www.w3.org/1999/xhtml" style="display: flex; align-items: unsafe center; justify-content: unsafe center; width: 138px; height: 1px; padding-top: 110px; margin-left: 341px;"><div data-drawio-colors="color: #1e1b4b; " style="box-sizing: border-box; font-size: 0px; text-align: center;"><div style="display: inline-block; font-size: 12px; font-family: Helvetica; color: rgb(30, 27, 75); line-height: 1.2; pointer-events: all; white-space: normal; overflow-wrap: normal;">Instruction / SFT</div></div></div></foreignObject><text x="410" y="114" fill="#1e1b4b" font-family="Helvetica" font-size="12px" text-anchor="middle">Instruction / SFT</text></switch></g><rect x="510" y="80" width="150" height="60" rx="9" ry="9" fill="none" stroke="none" pointer-events="all"/><path d="M 512.32 82.17 C 512.32 82.17 512.32 82.17 512.32 82.17 M 512.32 82.17 C 512.32 82.17 512.32 82.17 512.32 82.17 M 510.75 90.08 C 514.89 85.73 515.19 82.84 519.28 80.27 M 510.75 90.08 C 512.81 87.48 514.85 84.7 519.28 80.27 M 511.14 95.72 C 511.73 91.75 516.68 90.29 524.26 80.63 M 511.14 95.72 C 513.13 92.16 515.65 88.65 524.26 80.63 M 510.88 102.12 C 516.53 93.95 522.48 90.93 529.91 80.23 M 510.88 102.12 C 516.8 97.65 519.27 91.14 529.91 80.23 M 511.27 107.76 C 514.69 103.21 518.3 95.9 534.89 80.59 M 511.27 107.76 C 520.31 97 528.11 87.78 534.89 80.59 M 511.01 114.16 C 520.9 100.86 530.08 92.14 540.54 80.2 M 511.01 114.16 C 520.25 103.2 533.41 91.05 540.54 80.2 M 510.75 120.56 C 522.67 108.91 529.82 96.14 545.52 80.56 M 510.75 120.56 C 522.46 106.73 532.28 92.79 545.52 80.56 M 511.15 126.2 C 526.45 111.03 541.76 98.69 551.17 80.16 M 511.15 126.2 C 523.64 114.52 534.93 99.62 551.17 80.16 M 511.54 131.84 C 522.82 113.71 534.76 98.6 556.15 80.52 M 511.54 131.84 C 522.71 118.02 534.04 106.71 556.15 80.52 M 512.59 136.73 C 525.56 118.66 539.29 105.8 561.8 80.13 M 512.59 136.73 C 523.58 121.62 538.53 109.59 561.8 80.13 M 515.61 139.35 C 536.71 121.38 554.94 96.16 566.78 80.49 M 515.61 139.35 C 529.08 122.26 545.51 104.44 566.78 80.49 M 520.6 139.71 C 536.38 129.14 547.26 110.58 572.43 80.09 M 520.6 139.71 C 539.23 122.11 556.4 101.36 572.43 80.09 M 525.58 140.07 C 542.09 126.96 552.6 115.06 577.41 80.45 M 525.58 140.07 C 543.42 119.06 561.44 98.61 577.41 80.45 M 531.23 139.68 C 544.28 126.11 547.73 113.31 582.4 80.81 M 531.23 139.68 C 540.92 128.69 550.75 115.32 582.4 80.81 M 536.21 140.04 C 550.19 131.69 556.55 118.94 588.04 80.42 M 536.21 140.04 C 553.95 118.38 569.88 96.86 588.04 80.42 M 541.86 139.65 C 556.7 118.98 570.57 105.96 593.03 80.78 M 541.86 139.65 C 558.86 118.91 579.27 98.58 593.03 80.78 M 546.84 140.01 C 566.88 117.38 580.86 102.73 598.67 80.38 M 546.84 140.01 C 557.34 127.05 569.27 113.41 598.67 80.38 M 552.49 139.61 C 571.48 121.85 584.63 107.57 603.66 80.74 M 552.49 139.61 C 568.57 118.85 587.29 99.91 603.66 80.74 M 557.47 139.97 C 578.34 121.96 593.24 98.98 609.3 80.35 M 557.47 139.97 C 569.95 124.58 582.89 112.11 609.3 80.35 M 563.12 139.58 C 584.6 113.76 603.74 91.82 614.29 80.71 M 563.12 139.58 C 579.74 116.39 600.12 98.96 614.29 80.71 M 568.1 139.94 C 580.16 124.18 591.47 114.53 619.93 80.31 M 568.1 139.94 C 584.31 123.57 596.34 106.36 619.93 80.31 M 573.75 139.54 C 596.05 114.09 611.54 93.67 624.92 80.67 M 573.75 139.54 C 588.82 124.17 600.24 108.42 624.92 80.67 M 578.73 139.9 C 594.71 121.74 614.86 100.97 629.91 81.03 M 578.73 139.9 C 594.41 126.25 607.42 108.09 629.91 81.03 M 583.72 140.26 C 603.53 113.62 626.08 96.88 635.55 80.64 M 583.72 140.26 C 593.2 126.79 604.33 117.66 635.55 80.64 M 589.36 139.87 C 609.75 114.17 629.55 96.06 640.54 81 M 589.36 139.87 C 610.73 117.3 628.14 95.84 640.54 81 M 594.35 140.23 C 613.11 122.35 633.01 98.52 646.18 80.61 M 594.35 140.23 C 611.91 122.39 629.25 102.65 646.18 80.61 M 600 139.83 C 610.74 128.29 627.55 110.88 651.17 80.97 M 600 139.83 C 617.3 120.79 631.67 100.28 651.17 80.97 M 604.98 140.19 C 624.35 120.65 648.55 90.98 656.15 81.33 M 604.98 140.19 C 620.1 121.87 636.1 104.25 656.15 81.33 M 610.63 139.8 C 620.64 126.61 636.57 114.66 659.17 83.95 M 610.63 139.8 C 629.68 121.65 647.51 99.14 659.17 83.95 M 615.61 140.16 C 632.37 122.92 648.23 99.96 660.22 88.84 M 615.61 140.16 C 629.33 121.14 646.44 103.39 660.22 88.84 M 621.26 139.76 C 634.2 118.93 651.55 107.55 659.96 95.24 M 621.26 139.76 C 632.34 126.86 642.56 115.87 659.96 95.24 M 626.24 140.12 C 636.11 126.82 643.29 116.19 659.7 101.63 M 626.24 140.12 C 632.92 130.36 643.43 119.11 659.7 101.63 M 631.23 140.48 C 639.46 126.87 651.18 120.53 660.1 107.28 M 631.23 140.48 C 638.7 132.42 649.65 122.22 660.1 107.28 M 636.87 140.09 C 644.79 131.75 655.91 123.32 659.83 113.68 M 636.87 140.09 C 643.06 131.81 647.05 125.25 659.83 113.68 M 641.86 140.45 C 642.71 134.92 649.23 126.84 659.57 120.07 M 641.86 140.45 C 648.04 136.12 653.51 128.35 659.57 120.07 M 647.5 140.06 C 652.98 131.4 653.38 132.6 659.31 126.47 M 647.5 140.06 C 651.01 135.82 656 129.98 659.31 126.47 M 651.83 141.17 C 651.69 137.72 654.94 138.79 659.71 132.11 M 651.83 141.17 C 654.56 138.42 656.26 138.39 659.71 132.11" fill="none" stroke="#d5e8d4" stroke-width="0.5" stroke-linejoin="round" stroke-linecap="round" stroke-miterlimit="10" pointer-events="all"/><path d="M 519 80 M 519 80 C 552.86 82.72 580.08 78.18 651 80 M 519 80 C 553.87 79.31 586.07 78.26 651 80 M 651 80 C 655.01 76.93 662.11 81.6 660 89 M 651 80 C 660.36 80.73 658.71 78.84 660 89 M 660 89 C 655.98 100.59 655.79 119.66 660 131 M 660 89 C 660.64 105.61 658.55 123.02 660 131 M 660 131 C 663.75 140.89 656.31 139.47 651 140 M 660 131 C 661.39 138.59 653.63 143.47 651 140 M 651 140 C 620.95 139.05 590.22 140.64 519 140 M 651 140 C 602.95 139.38 557 142.04 519 140 M 519 140 C 511.14 140.78 510.64 139.99 510 131 M 519 140 C 511.66 139.43 512.35 136.17 510 131 M 510 131 C 513.01 125.54 513.04 113.13 510 89 M 510 131 C 507.8 123.17 510.59 110.5 510 89 M 510 89 C 509.31 82.86 509.81 76.08 519 80 M 510 89 C 506.07 81.98 510.89 81.09 519 80" fill="none" stroke="#16a34a" stroke-linejoin="round" stroke-linecap="round" stroke-miterlimit="10" pointer-events="all"/><g transform="translate(-0.5 -0.5)"><switch><foreignObject pointer-events="none" width="100%" height="100%" requiredFeatures="http://www.w3.org/TR/SVG11/feature#Extensibility" style="overflow: visible; text-align: left;"><div xmlns="http://www.w3.org/1999/xhtml" style="display: flex; align-items: unsafe center; justify-content: unsafe center; width: 148px; height: 1px; padding-top: 110px; margin-left: 511px;"><div data-drawio-colors="color: #1e1b4b; " style="box-sizing: border-box; font-size: 0px; text-align: center;"><div style="display: inline-block; font-size: 12px; font-family: Helvetica; color: rgb(30, 27, 75); line-height: 1.2; pointer-events: all; white-space: normal; overflow-wrap: normal;">Alignment<br />(RLHF / DPO)</div></div></div></foreignObject><text x="585" y="114" fill="#1e1b4b" font-family="Helvetica" font-size="12px" text-anchor="middle">Alignment...</text></switch></g><rect x="690" y="80" width="140" height="60" rx="9" ry="9" fill="none" stroke="none" pointer-events="all"/><path d="M 692.26 82.24 C 692.26 82.24 692.26 82.24 692.26 82.24 M 692.26 82.24 C 692.26 82.24 692.26 82.24 692.26 82.24 M 690.69 90.14 C 695.41 88.42 693.68 86.81 699.22 80.33 M 690.69 90.14 C 692.6 87.59 696.44 84.16 699.22 80.33 M 691.08 95.79 C 691.37 92.97 698.95 90.67 704.86 79.94 M 691.08 95.79 C 693.87 90.92 698.63 87.29 704.86 79.94 M 690.82 102.19 C 699.01 99.83 697.14 96.76 709.85 80.3 M 690.82 102.19 C 695.18 97.33 698.02 92.2 709.85 80.3 M 691.22 107.83 C 695.54 100.11 703.48 96.25 714.83 80.66 M 691.22 107.83 C 699.58 101.07 704.58 90.95 714.83 80.66 M 690.95 114.23 C 701.04 101.67 709.54 89.31 720.48 80.26 M 690.95 114.23 C 703.54 103.11 713.58 89.07 720.48 80.26 M 690.69 120.62 C 697.55 113.45 711.73 95.59 725.46 80.62 M 690.69 120.62 C 705.68 104.36 718.82 89.71 725.46 80.62 M 691.09 126.27 C 706.45 106.01 722.79 96.21 731.11 80.23 M 691.09 126.27 C 703.38 110.6 717.59 98.04 731.11 80.23 M 691.48 131.91 C 704.35 113 721.86 91.89 736.09 80.59 M 691.48 131.91 C 701.72 119.19 713.38 105.91 736.09 80.59 M 692.53 136.8 C 699.87 125.88 718.26 109.45 741.74 80.2 M 692.53 136.8 C 705.75 118.71 721.57 101.34 741.74 80.2 M 695.55 139.42 C 711.76 122.08 729.92 100.34 746.72 80.56 M 695.55 139.42 C 709.58 121.3 726.58 104.96 746.72 80.56 M 700.54 139.78 C 715.78 120.13 738.03 100.54 752.37 80.16 M 700.54 139.78 C 712.15 128.43 721.27 115.35 752.37 80.16 M 706.18 139.39 C 721.91 125.11 727.59 115.7 757.35 80.52 M 706.18 139.39 C 724.77 121.01 738.56 102.57 757.35 80.52 M 711.17 139.75 C 728.69 122.95 748.14 97.85 762.34 80.88 M 711.17 139.75 C 727.79 120.07 743.59 100.48 762.34 80.88 M 716.16 140.11 C 732.83 121.29 752.95 92.39 767.98 80.49 M 716.16 140.11 C 731.95 123.69 744.67 110.22 767.98 80.49 M 721.8 139.71 C 745.42 117.97 764.46 89.22 772.97 80.85 M 721.8 139.71 C 732.67 124.18 745.71 109.74 772.97 80.85 M 726.79 140.07 C 747.18 122.52 763.49 98.21 778.61 80.45 M 726.79 140.07 C 746.02 121.2 760.61 97.4 778.61 80.45 M 732.43 139.68 C 752.87 119.93 764.94 98.87 783.6 80.81 M 732.43 139.68 C 752.3 119 770.77 92.9 783.6 80.81 M 737.42 140.04 C 754.04 120.9 767.55 103.23 789.24 80.42 M 737.42 140.04 C 750.67 123.87 763.98 111.86 789.24 80.42 M 743.06 139.65 C 763.49 114.74 777.65 94.58 794.23 80.78 M 743.06 139.65 C 757.8 121.82 769.24 108.41 794.23 80.78 M 748.05 140.01 C 762.39 121.94 781.5 105.14 799.87 80.38 M 748.05 140.01 C 767.08 121.18 782.66 101.87 799.87 80.38 M 753.69 139.61 C 770.34 125.07 778.65 108.61 804.86 80.74 M 753.69 139.61 C 775.49 117.59 794.66 94.35 804.86 80.74 M 758.68 139.97 C 769.94 125.6 779.33 110.52 809.85 81.1 M 758.68 139.97 C 777.45 119.97 793.82 97.88 809.85 81.1 M 763.66 140.33 C 772.05 125.72 781.96 113.81 815.49 80.71 M 763.66 140.33 C 783.1 120.83 797.79 99.88 815.49 80.71 M 769.31 139.94 C 787.7 125.28 797.79 109.09 820.48 81.07 M 769.31 139.94 C 789.6 115.79 809.24 95.2 820.48 81.07 M 774.29 140.3 C 788.2 124.69 799.68 116.87 825.47 81.43 M 774.29 140.3 C 793.21 116.16 814.69 92.82 825.47 81.43 M 779.94 139.9 C 794.97 123.4 805.36 114.61 829.14 83.3 M 779.94 139.9 C 794.03 124.76 807.41 107.8 829.14 83.3 M 784.92 140.26 C 795.05 125.95 811.75 109.3 830.85 87.43 M 784.92 140.26 C 794.53 127.72 803.82 118.49 830.85 87.43 M 790.57 139.87 C 798.69 128.63 809.47 117.48 832.55 91.57 M 790.57 139.87 C 800.48 128.61 810.31 116.22 832.55 91.57 M 795.55 140.23 C 813.09 127.91 822.59 112.83 832.95 97.21 M 795.55 140.23 C 810.04 124.19 822.08 108.24 832.95 97.21 M 801.2 139.83 C 808.92 131.18 812.22 122.85 832.69 103.61 M 801.2 139.83 C 809.24 132.55 817.29 123.38 832.69 103.61 M 806.18 140.19 C 813.57 135.2 818.03 125.51 832.43 110 M 806.18 140.19 C 815.29 133.92 821.71 125.98 832.43 110 M 811.17 140.55 C 819.05 132.46 828.51 125.25 832.16 116.4 M 811.17 140.55 C 816.16 133.26 825.8 124.45 832.16 116.4 M 816.81 140.16 C 818.27 131.76 826.46 129.74 832.56 122.05 M 816.81 140.16 C 823.84 135.09 828.72 127.46 832.56 122.05 M 821.8 140.52 C 820.94 136.08 824.92 136.62 832.3 128.44 M 821.8 140.52 C 825.47 135.83 831.27 130.34 832.3 128.44" fill="none" stroke="#f8fafc" stroke-width="0.5" stroke-linejoin="round" stroke-linecap="round" stroke-miterlimit="10" pointer-events="all"/><path d="M 699 80 M 699 80 C 733.51 82.89 772.9 78.42 821 80 M 699 80 C 737.97 80.35 775.48 78.68 821 80 M 821 80 C 827.17 79.15 829.83 79.9 830 89 M 821 80 C 827.45 76.55 833.97 79.43 830 89 M 830 89 C 830.64 100.81 832.25 107.27 830 131 M 830 89 C 831.28 101.45 829.06 111.19 830 131 M 830 131 C 831.98 138.48 829.71 143.29 821 140 M 830 131 C 834.07 141.34 823.21 141.55 821 140 M 821 140 C 798.86 135.05 767.3 138.59 699 140 M 821 140 C 794.38 140.26 764.15 142.54 699 140 M 699 140 C 694.73 141.61 688.82 139.2 690 131 M 699 140 C 697.29 136.68 687.29 136.39 690 131 M 690 131 C 693.4 113.86 687.47 97.98 690 89 M 690 131 C 690.3 117.27 689.33 103.89 690 89 M 690 89 C 691.25 79.86 696.82 83.73 699 80 M 690 89 C 693.75 82.01 692.89 80.78 699 80" fill="none" stroke="#64748b" stroke-linejoin="round" stroke-linecap="round" stroke-miterlimit="10" pointer-events="all"/><g transform="translate(-0.5 -0.5)"><switch><foreignObject pointer-events="none" width="100%" height="100%" requiredFeatures="http://www.w3.org/TR/SVG11/feature#Extensibility" style="overflow: visible; text-align: left;"><div xmlns="http://www.w3.org/1999/xhtml" style="display: flex; align-items: unsafe center; justify-content: unsafe center; width: 138px; height: 1px; padding-top: 110px; margin-left: 691px;"><div data-drawio-colors="color: #1e1b4b; " style="box-sizing: border-box; font-size: 0px; text-align: center;"><div style="display: inline-block; font-size: 12px; font-family: Helvetica; color: rgb(30, 27, 75); line-height: 1.2; pointer-events: all; white-space: normal; overflow-wrap: normal;">Distillation<br />(student model)</div></div></div></foreignObject><text x="760" y="114" fill="#1e1b4b" font-family="Helvetica" font-size="12px" text-anchor="middle">Distillation...</text></switch></g><path d="M 140 110 L 159.76 110" fill="none" stroke="none" pointer-events="stroke"/><path d="M 167.76 110 L 159.76 114 L 159.76 106 Z" fill="none" stroke="none" pointer-events="all"/><path d="M 140 110 M 140 110 C 148.27 113.84 150.94 113.32 159.76 110 M 140 110 C 146.29 109.44 153.89 107.96 159.76 110" fill="none" stroke="#4f46e5" stroke-width="2" stroke-linejoin="round" stroke-linecap="round" stroke-miterlimit="10" pointer-events="stroke"/><path d="M 159.95 105.78 C 159.95 105.78 159.95 105.78 159.95 105.78 M 159.95 105.78 C 159.95 105.78 159.95 105.78 159.95 105.78 M 162.05 115.56 C 164.82 112.28 166.18 112.72 167.3 109.52 M 162.05 115.56 C 163.38 113.08 165.51 111.61 167.3 109.52" fill="none" stroke="#4f46e5" stroke-linejoin="round" stroke-linecap="round" stroke-miterlimit="10" pointer-events="all"/><path d="M 167.76 110 M 167.76 110 C 166.73 110.24 162.78 113.01 159.76 114 M 167.76 110 C 164.24 112.19 161.95 113.62 159.76 114 M 159.76 114 C 160.91 111.81 160.29 109.67 159.76 106 M 159.76 114 C 159 113.03 160.44 109.83 159.76 106 M 159.76 106 C 162.4 106.94 165.27 106.76 167.76 110 M 159.76 106 C 161.82 107.11 162.57 107.37 167.76 110" fill="none" stroke="#4f46e5" stroke-width="2" stroke-linejoin="round" stroke-linecap="round" stroke-miterlimit="10" pointer-events="all"/><path d="M 310 110 L 329.76 110" fill="none" stroke="none" pointer-events="stroke"/><path d="M 337.76 110 L 329.76 114 L 329.76 106 Z" fill="none" stroke="none" pointer-events="all"/><path d="M 310 110 M 310 110 C 316.01 111.31 316.36 111.19 329.76 110 M 310 110 C 316.13 110.42 320.35 111.34 329.76 110" fill="none" stroke="#4f46e5" stroke-width="2" stroke-linejoin="round" stroke-linecap="round" stroke-miterlimit="10" pointer-events="stroke"/><path d="M 329.6 106.18 C 329.6 106.18 329.6 106.18 329.6 106.18 M 329.6 106.18 C 329.6 106.18 329.6 106.18 329.6 106.18 M 331.7 115.96 C 334.45 114.26 335.08 110.22 336.95 109.92 M 331.7 115.96 C 333.87 114.99 334.98 111.9 336.95 109.92" fill="none" stroke="#4f46e5" stroke-linejoin="round" stroke-linecap="round" stroke-miterlimit="10" pointer-events="all"/><path d="M 337.76 110 M 337.76 110 C 336.48 111.12 334.61 111.5 329.76 114 M 337.76 110 C 336.57 109.92 334.68 111.51 329.76 114 M 329.76 114 C 329.51 110.66 329.32 108.85 329.76 106 M 329.76 114 C 329.68 111.75 329.65 108.82 329.76 106 M 329.76 106 C 331.05 108.87 335.27 107 337.76 110 M 329.76 106 C 331.6 107.09 334.99 108.56 337.76 110" fill="none" stroke="#4f46e5" stroke-width="2" stroke-linejoin="round" stroke-linecap="round" stroke-miterlimit="10" pointer-events="all"/><path d="M 480 110 L 499.76 110" fill="none" stroke="none" pointer-events="stroke"/><path d="M 507.76 110 L 499.76 114 L 499.76 106 Z" fill="none" stroke="none" pointer-events="all"/><path d="M 480 110 M 480 110 C 483.76 109.58 489.68 109.85 499.76 110 M 480 110 C 485.96 110.6 490.77 109.98 499.76 110" fill="none" stroke="#4f46e5" stroke-width="2" stroke-linejoin="round" stroke-linecap="round" stroke-miterlimit="10" pointer-events="stroke"/><path d="M 499.91 105.83 C 499.91 105.83 499.91 105.83 499.91 105.83 M 499.91 105.83 C 499.91 105.83 499.91 105.83 499.91 105.83 M 502.01 115.61 C 503.69 113.5 505.74 112.59 507.26 109.57 M 502.01 115.61 C 503.41 114.54 505.11 113.02 507.26 109.57" fill="none" stroke="#4f46e5" stroke-linejoin="round" stroke-linecap="round" stroke-miterlimit="10" pointer-events="all"/><path d="M 507.76 110 M 507.76 110 C 506.24 111.69 502.86 113.26 499.76 114 M 507.76 110 C 505.67 110.24 504.37 111 499.76 114 M 499.76 114 C 498.43 111.12 498.66 108.03 499.76 106 M 499.76 114 C 500.04 112.08 500.15 109.4 499.76 106 M 499.76 106 C 503.12 107.22 505.1 110.81 507.76 110 M 499.76 106 C 501.57 106.6 502.42 108.48 507.76 110" fill="none" stroke="#4f46e5" stroke-width="2" stroke-linejoin="round" stroke-linecap="round" stroke-miterlimit="10" pointer-events="all"/><path d="M 660 110 L 679.76 110" fill="none" stroke="none" pointer-events="stroke"/><path d="M 687.76 110 L 679.76 114 L 679.76 106 Z" fill="none" stroke="none" pointer-events="all"/><path d="M 660 110 M 660 110 C 661.5 107.06 665.1 107.72 679.76 110 M 660 110 C 665.8 110.78 675.14 108.62 679.76 110" fill="none" stroke="#4f46e5" stroke-width="2" stroke-linejoin="round" stroke-linecap="round" stroke-miterlimit="10" pointer-events="stroke"/><path d="M 679.85 105.9 C 679.85 105.9 679.85 105.9 679.85 105.9 M 679.85 105.9 C 679.85 105.9 679.85 105.9 679.85 105.9 M 681.95 115.67 C 683.36 114.94 684.69 112.75 687.2 109.64 M 681.95 115.67 C 682.58 114.72 684.87 113.18 687.2 109.64" fill="none" stroke="#4f46e5" stroke-linejoin="round" stroke-linecap="round" stroke-miterlimit="10" pointer-events="all"/><path d="M 687.76 110 M 687.76 110 C 685.99 109 684.69 111.75 679.76 114 M 687.76 110 C 684.61 110.56 683.89 112.28 679.76 114 M 679.76 114 C 680.55 111.58 681.21 110.41 679.76 106 M 679.76 114 C 679.12 112.4 679.36 109.98 679.76 106 M 679.76 106 C 683.75 108.35 685.47 109.45 687.76 110 M 679.76 106 C 681.34 106.58 684.84 107.89 687.76 110" fill="none" stroke="#4f46e5" stroke-width="2" stroke-linejoin="round" stroke-linecap="round" stroke-miterlimit="10" pointer-events="all"/><rect x="90" y="190" width="720" height="60" rx="6" ry="6" fill="none" stroke="none" pointer-events="all"/><path d="M 91.24 191.8 C 91.24 191.8 91.24 191.8 91.24 191.8 M 91.24 191.8 C 91.24 191.8 91.24 191.8 91.24 191.8 M 91.63 197.45 C 93 194.76 94.43 193.04 96.88 191.41 M 91.63 197.45 C 93.88 195.74 94.56 194.34 96.88 191.41 M 91.37 203.85 C 94.73 201.47 95.16 198.88 102.52 191.02 M 91.37 203.85 C 97.1 201.17 98.13 195.03 102.52 191.02 M 91.76 209.49 C 93.86 203.45 99.25 194.55 107.51 191.38 M 91.76 209.49 C 96.94 204.99 98.9 201.85 107.51 191.38 M 91.5 215.89 C 98.96 206.33 106.9 199.82 113.15 190.98 M 91.5 215.89 C 98.28 208.79 104 202.05 113.15 190.98 M 91.9 221.53 C 98.92 210.89 104.27 209.49 118.14 191.34 M 91.9 221.53 C 101.75 213.34 107.63 200.7 118.14 191.34 M 91.63 227.93 C 105.03 212.91 118.09 202.8 123.78 190.95 M 91.63 227.93 C 102.31 218.14 108.8 206.49 123.78 190.95 M 91.37 234.33 C 100.05 227.13 111.03 212.17 128.77 191.31 M 91.37 234.33 C 105.15 221.9 115.86 206.29 128.77 191.31 M 91.77 239.97 C 104.74 221.09 120.59 206.35 134.41 190.91 M 91.77 239.97 C 98.38 228.28 108.79 220.45 134.41 190.91 M 92.16 245.61 C 105.76 226.8 120.53 215.26 139.4 191.27 M 92.16 245.61 C 105.07 229.95 113.71 218.8 139.4 191.27 M 93.21 250.5 C 100.71 236.01 113.54 225.74 145.04 190.88 M 93.21 250.5 C 107.61 236.31 120.65 217.12 145.04 190.88 M 97.54 251.61 C 109.16 236.5 128.85 226.03 150.03 191.24 M 97.54 251.61 C 112.5 235.67 129.2 219 150.03 191.24 M 103.19 251.22 C 117.58 236.48 130.59 219.88 155.67 190.84 M 103.19 251.22 C 123.74 230.48 142.3 206.3 155.67 190.84 M 108.17 251.58 C 128.31 228.85 148.41 203.21 160.66 191.2 M 108.17 251.58 C 122.68 236.83 138.32 217.76 160.66 191.2 M 113.82 251.19 C 133.12 228.12 147.61 211.31 166.3 190.81 M 113.82 251.19 C 130.05 231.61 149.95 213.39 166.3 190.81 M 118.8 251.55 C 131.22 233.45 150.44 214.58 171.29 191.17 M 118.8 251.55 C 131.6 237.34 141.36 223.37 171.29 191.17 M 124.45 251.15 C 142.48 234.47 155.57 211.44 176.93 190.77 M 124.45 251.15 C 142.68 229.72 162.34 205.09 176.93 190.77 M 129.43 251.51 C 143.03 235.39 148.31 229.75 181.92 191.13 M 129.43 251.51 C 147.77 227.3 170.17 205.36 181.92 191.13 M 135.08 251.12 C 145.47 232.98 166.12 215.42 187.56 190.74 M 135.08 251.12 C 149.85 233.79 160.43 216.11 187.56 190.74 M 140.06 251.48 C 157.25 232.61 169.58 218.03 192.55 191.1 M 140.06 251.48 C 155.36 230.88 173.4 215.32 192.55 191.1 M 145.05 251.84 C 164.59 228.93 182.29 213.82 198.19 190.71 M 145.05 251.84 C 159.76 231.62 178.79 214.27 198.19 190.71 M 150.69 251.44 C 163.56 243.12 172.03 229.69 203.18 191.07 M 150.69 251.44 C 167.28 234.73 181.82 216.8 203.18 191.07 M 155.68 251.8 C 169.89 236.7 178.61 224.97 208.82 190.67 M 155.68 251.8 C 177.73 228.45 198.83 202.37 208.82 190.67 M 161.32 251.41 C 177.9 227.49 201.04 208.16 213.81 191.03 M 161.32 251.41 C 178.73 231.06 194.57 210.69 213.81 191.03 M 166.31 251.77 C 179.88 231.18 194.72 214.54 218.8 191.39 M 166.31 251.77 C 185.68 234.12 200.76 214.31 218.8 191.39 M 171.95 251.37 C 190.72 230.61 208.04 206.18 224.44 191 M 171.95 251.37 C 189.23 235.43 202.55 215.04 224.44 191 M 176.94 251.73 C 199.26 231.43 214.69 206.25 229.43 191.36 M 176.94 251.73 C 191.09 235.83 207.29 217.09 229.43 191.36 M 182.58 251.34 C 197.81 236 216.65 217.79 235.07 190.96 M 182.58 251.34 C 192 236.63 205.42 224.76 235.07 190.96 M 187.57 251.7 C 208.29 233.86 224.67 213.37 240.06 191.32 M 187.57 251.7 C 201.41 240.16 211.79 224.86 240.06 191.32 M 193.21 251.3 C 214.63 227.02 227.7 205.55 245.7 190.93 M 193.21 251.3 C 211.18 232.53 230.14 209.49 245.7 190.93 M 198.2 251.66 C 217.87 231.18 231.34 215.05 250.69 191.29 M 198.2 251.66 C 210.64 240.62 220.2 227.08 250.69 191.29 M 203.84 251.27 C 227.25 228.23 245.46 208.21 256.33 190.89 M 203.84 251.27 C 219.41 230.56 237.32 212.36 256.33 190.89 M 208.83 251.63 C 225.24 231.63 236.11 221.75 261.32 191.25 M 208.83 251.63 C 224.97 234.98 240.62 216.18 261.32 191.25 M 214.47 251.24 C 228.58 239.65 238.58 224.67 266.96 190.86 M 214.47 251.24 C 228.35 237.25 237.45 225.17 266.96 190.86 M 219.46 251.6 C 239.69 229.82 250.16 216.05 271.95 191.22 M 219.46 251.6 C 233.49 232.41 248.81 216.8 271.95 191.22 M 225.1 251.2 C 245.69 234.42 260.73 213.59 277.59 190.82 M 225.1 251.2 C 243.34 232.34 257.8 212.59 277.59 190.82 M 230.09 251.56 C 246.34 231.57 258.46 219.61 282.58 191.18 M 230.09 251.56 C 246.44 230.13 264.68 208.25 282.58 191.18 M 235.74 251.17 C 253.76 231.7 269.22 212.67 288.22 190.79 M 235.74 251.17 C 249.07 237 263.39 222.65 288.22 190.79 M 240.72 251.53 C 258.47 231.27 274.3 216.37 293.21 191.15 M 240.72 251.53 C 259.38 226.7 278.19 207.96 293.21 191.15 M 246.37 251.13 C 259.73 231.39 279.94 219 298.85 190.75 M 246.37 251.13 C 260.88 229.46 277.99 211.91 298.85 190.75 M 251.35 251.49 C 262.02 238.74 281.57 217.53 303.84 191.11 M 251.35 251.49 C 271.31 227.13 291.24 202.47 303.84 191.11 M 257 251.1 C 274.11 233.09 291.45 218.16 309.48 190.72 M 257 251.1 C 278.41 227.37 298.54 202.26 309.48 190.72 M 261.98 251.46 C 276.65 235.98 290.1 212.16 314.47 191.08 M 261.98 251.46 C 276.17 233.52 293.42 216.23 314.47 191.08 M 266.97 251.82 C 280.91 234.19 297.8 212.08 320.11 190.69 M 266.97 251.82 C 284.75 232.28 302.3 210.93 320.11 190.69 M 272.61 251.42 C 297.12 230.5 314.73 202.7 325.1 191.05 M 272.61 251.42 C 291.5 230.08 311.44 206.32 325.1 191.05 M 277.6 251.78 C 297.71 230.5 312.85 214.81 330.08 191.41 M 277.6 251.78 C 292.73 235.31 303.74 219.34 330.08 191.41 M 283.24 251.39 C 299.65 230.33 314.98 213.97 335.73 191.01 M 283.24 251.39 C 295.93 238.56 306.29 224.38 335.73 191.01 M 288.23 251.75 C 304.87 229.39 320.31 213.41 340.71 191.37 M 288.23 251.75 C 300.81 238.19 312.88 225.8 340.71 191.37 M 293.87 251.35 C 303.9 238.71 315.22 217.61 346.36 190.98 M 293.87 251.35 C 307.88 234.86 321.31 218.57 346.36 190.98 M 298.86 251.71 C 319.89 228.61 337.77 202.91 351.34 191.34 M 298.86 251.71 C 319.7 227.31 341.02 203.93 351.34 191.34 M 304.5 251.32 C 318.22 233.3 331.73 221.53 356.99 190.94 M 304.5 251.32 C 324.52 230.23 346.28 205.35 356.99 190.94 M 309.49 251.68 C 331.95 228.3 350.01 203.41 361.97 191.3 M 309.49 251.68 C 329.72 227.23 348.9 205.19 361.97 191.3 M 315.13 251.28 C 329.32 237.2 343.58 214.85 367.62 190.91 M 315.13 251.28 C 334.36 230.06 352.36 210.07 367.62 190.91 M 320.12 251.64 C 333.79 236.71 348.46 223.87 372.6 191.27 M 320.12 251.64 C 342.26 230.76 359.18 206.82 372.6 191.27 M 325.76 251.25 C 339.07 235.74 356.18 218.78 378.25 190.87 M 325.76 251.25 C 342.72 233.02 359.73 211.93 378.25 190.87 M 330.75 251.61 C 350.02 230.74 369.7 208.5 383.23 191.23 M 330.75 251.61 C 340.49 240.67 352.46 227.84 383.23 191.23 M 336.39 251.22 C 353.38 237.92 365.96 217.9 388.88 190.84 M 336.39 251.22 C 356.67 230.19 376.35 205.29 388.88 190.84 M 341.38 251.58 C 363.64 229.41 377.8 212.71 393.86 191.2 M 341.38 251.58 C 354.71 236.35 367.29 221.43 393.86 191.2 M 347.02 251.18 C 364.59 228.99 385.41 206.79 399.51 190.8 M 347.02 251.18 C 365.41 229.77 389.04 202.45 399.51 190.8 M 352.01 251.54 C 368.71 230.46 393.19 213.22 404.49 191.16 M 352.01 251.54 C 374.97 228.96 393.63 204.42 404.49 191.16 M 357.65 251.15 C 372.04 235.59 389.51 213.37 410.14 190.77 M 357.65 251.15 C 376.01 230.24 394.96 208.6 410.14 190.77 M 362.64 251.51 C 381.16 233.76 402.74 213.69 415.12 191.13 M 362.64 251.51 C 380.44 228.78 401.92 206.56 415.12 191.13 M 368.28 251.11 C 379.26 232.68 400.12 223.49 420.77 190.74 M 368.28 251.11 C 382.48 235.46 397.52 219.11 420.77 190.74 M 373.27 251.47 C 382.9 237.7 397.11 227.16 425.75 191.1 M 373.27 251.47 C 390.5 231.45 408.44 210.52 425.75 191.1 M 378.26 251.83 C 397.29 233.16 415.22 212.48 431.4 190.7 M 378.26 251.83 C 396.46 225.65 420.93 199.97 431.4 190.7 M 383.9 251.44 C 393.22 238.98 412.43 221.57 436.38 191.06 M 383.9 251.44 C 405.75 227.51 424.54 203.58 436.38 191.06 M 388.89 251.8 C 402.38 234.9 422.1 215.28 442.03 190.67 M 388.89 251.8 C 404.51 235.85 416.8 222 442.03 190.67 M 394.53 251.4 C 416.36 228.78 430.56 210.32 447.02 191.03 M 394.53 251.4 C 407.36 233.3 421.79 218.7 447.02 191.03 M 399.52 251.76 C 416.62 226.8 435.79 208.98 452 191.39 M 399.52 251.76 C 413.48 235.59 428.3 219.91 452 191.39 M 405.16 251.37 C 417.75 238.43 429.64 219.72 457.65 190.99 M 405.16 251.37 C 420.46 227.86 441.05 209.01 457.65 190.99 M 410.15 251.73 C 420.4 241.09 428.1 227.58 462.63 191.35 M 410.15 251.73 C 420.02 237.52 432.22 228.48 462.63 191.35 M 415.79 251.33 C 425.79 238.25 437.62 225.75 468.28 190.96 M 415.79 251.33 C 430.65 230.21 448.81 211.6 468.28 190.96 M 420.78 251.69 C 438.84 225.83 460.03 200.97 473.26 191.32 M 420.78 251.69 C 440.81 229.05 462.37 204.24 473.26 191.32 M 426.42 251.3 C 446.85 231.99 463.4 202.57 478.91 190.92 M 426.42 251.3 C 440.08 235.7 448.46 225.49 478.91 190.92 M 431.41 251.66 C 440.55 235.52 452.36 219.58 483.89 191.28 M 431.41 251.66 C 449.72 230.51 467.24 209.5 483.89 191.28 M 437.05 251.27 C 447.36 232.89 466.38 220.89 489.54 190.89 M 437.05 251.27 C 455.04 231.91 473.16 213.53 489.54 190.89 M 442.04 251.63 C 454.75 235.77 466 228.23 494.52 191.25 M 442.04 251.63 C 459.57 232.49 474.21 211.25 494.52 191.25 M 447.68 251.23 C 457.78 237.59 474.94 219.28 500.17 190.85 M 447.68 251.23 C 462.69 236.82 472.82 218.95 500.17 190.85 M 452.67 251.59 C 473.66 228.78 493.49 202.29 505.15 191.21 M 452.67 251.59 C 466.87 235.06 483.14 214.78 505.15 191.21 M 458.31 251.2 C 472.74 231.91 493.03 212.36 510.8 190.82 M 458.31 251.2 C 477.78 232.46 495.53 208.5 510.8 190.82 M 463.3 251.56 C 478.75 230.23 501.62 214.59 515.78 191.18 M 463.3 251.56 C 477.92 238.12 489.65 223.96 515.78 191.18 M 468.94 251.16 C 486.45 229.43 508.7 211.38 521.43 190.79 M 468.94 251.16 C 489.56 229.51 506.29 207.47 521.43 190.79 M 473.93 251.52 C 489.55 227.93 510.88 207.58 526.41 191.15 M 473.93 251.52 C 488.47 233.25 500.57 218.96 526.41 191.15 M 479.57 251.13 C 499.9 230.62 517.12 205.24 532.06 190.75 M 479.57 251.13 C 495.4 234.35 509.31 216.53 532.06 190.75 M 484.56 251.49 C 495.68 241.29 512.81 223.29 537.04 191.11 M 484.56 251.49 C 495.22 238.2 507.16 224.97 537.04 191.11 M 490.2 251.09 C 511.34 223.89 529.75 207.49 542.69 190.72 M 490.2 251.09 C 509.98 232.16 526.49 208.77 542.69 190.72 M 495.19 251.45 C 515.8 231.82 533.19 211.41 547.67 191.08 M 495.19 251.45 C 514.82 229.74 532.88 210.76 547.67 191.08 M 500.18 251.81 C 516.46 231.24 529.56 219.93 553.32 190.68 M 500.18 251.81 C 515.28 234.54 526.84 219.38 553.32 190.68 M 505.82 251.42 C 521.83 232.9 541.51 217.56 558.3 191.04 M 505.82 251.42 C 526.27 227.29 544.55 202.65 558.3 191.04 M 510.81 251.78 C 526.27 232.69 535.59 219.9 563.29 191.4 M 510.81 251.78 C 522.41 238.31 534.66 223.1 563.29 191.4 M 516.45 251.38 C 536.36 233.9 555.08 208.92 568.93 191.01 M 516.45 251.38 C 534.12 229.33 552.27 210.69 568.93 191.01 M 521.44 251.74 C 540.87 230.55 562.95 208.56 573.92 191.37 M 521.44 251.74 C 536.61 233.07 551.54 218.12 573.92 191.37 M 527.08 251.35 C 540.19 235.72 552.91 220.12 579.56 190.97 M 527.08 251.35 C 537.53 240.61 549.26 225.82 579.56 190.97 M 532.07 251.71 C 544.52 235.06 560.2 216.78 584.55 191.33 M 532.07 251.71 C 545.04 237.31 555.69 226.01 584.55 191.33 M 537.71 251.32 C 554.28 227.54 572.83 203.67 590.19 190.94 M 537.71 251.32 C 554.02 235.02 568.83 216.83 590.19 190.94 M 542.7 251.68 C 554.25 232.9 570.22 218.26 595.18 191.3 M 542.7 251.68 C 563.29 229.06 586 203.28 595.18 191.3 M 548.34 251.28 C 563.35 230.12 585.38 211.69 600.82 190.9 M 548.34 251.28 C 564.22 232.93 584.42 209.86 600.82 190.9 M 553.33 251.64 C 569.04 233.03 586.34 209.81 605.81 191.26 M 553.33 251.64 C 567.7 235.15 583.55 217.23 605.81 191.26 M 558.97 251.25 C 573.09 230.62 592.77 216.29 611.45 190.87 M 558.97 251.25 C 575.89 233.99 594.33 210.96 611.45 190.87 M 563.96 251.61 C 572.86 234.89 590.26 225.61 616.44 191.23 M 563.96 251.61 C 574.3 238.17 586.16 226.35 616.44 191.23 M 569.6 251.21 C 585.95 229.24 602.38 210.43 622.08 190.83 M 569.6 251.21 C 589.07 231.86 605.63 210.9 622.08 190.83 M 574.59 251.57 C 592.03 232.06 608.55 214.53 627.07 191.19 M 574.59 251.57 C 590.55 235.4 603.98 217.62 627.07 191.19 M 580.23 251.18 C 602.74 225 623.2 199.71 632.71 190.8 M 580.23 251.18 C 593.08 233.76 607.42 218.78 632.71 190.8 M 585.22 251.54 C 595.31 239.05 616.55 217.4 637.7 191.16 M 585.22 251.54 C 602.97 235.95 616.36 217.68 637.7 191.16 M 590.86 251.14 C 605.74 236.16 619.57 220.84 643.34 190.77 M 590.86 251.14 C 608.01 230.94 622.57 214.34 643.34 190.77 M 595.85 251.5 C 610.43 240 624.66 225.33 648.33 191.13 M 595.85 251.5 C 608.23 237.65 621.15 219.52 648.33 191.13 M 601.49 251.11 C 621.49 235.29 637.32 214.37 653.97 190.73 M 601.49 251.11 C 612.75 238.16 627 221.71 653.97 190.73 M 606.48 251.47 C 620.67 236.17 636.62 217.32 658.96 191.09 M 606.48 251.47 C 628.72 226.03 649.03 203.48 658.96 191.09 M 611.46 251.83 C 629.49 228.69 652.42 206.3 664.6 190.7 M 611.46 251.83 C 627.01 230.68 647.16 211.77 664.6 190.7 M 617.11 251.43 C 636.14 230.59 662.07 202.93 669.59 191.06 M 617.11 251.43 C 638.11 225.76 656.37 202.96 669.59 191.06 M 622.09 251.79 C 634.18 234.44 654.45 213.33 674.58 191.42 M 622.09 251.79 C 638.33 231.96 656.21 213.58 674.58 191.42 M 627.74 251.4 C 646.38 229.34 669.4 201.7 680.22 191.02 M 627.74 251.4 C 639.06 236.92 654.12 222.36 680.22 191.02 M 632.72 251.76 C 643.68 238.08 659.67 225.54 685.21 191.38 M 632.72 251.76 C 643.51 242.49 652.86 230.29 685.21 191.38 M 638.37 251.36 C 649.43 236.26 665.07 223.55 690.85 190.99 M 638.37 251.36 C 649.19 238.21 660.56 226.33 690.85 190.99 M 643.35 251.72 C 659.36 229.94 679.71 212.76 695.84 191.35 M 643.35 251.72 C 663.16 227.89 683.01 203.81 695.84 191.35 M 649 251.33 C 664.67 232.1 679.69 218.01 701.48 190.95 M 649 251.33 C 667.6 230.49 685.58 209.49 701.48 190.95 M 653.98 251.69 C 672.14 231.72 687.5 215.85 706.47 191.31 M 653.98 251.69 C 666.59 238.55 674.99 227.62 706.47 191.31 M 659.63 251.3 C 673.18 231.43 693.14 217.46 712.11 190.92 M 659.63 251.3 C 677.59 231.17 692.15 208.84 712.11 190.92 M 664.61 251.66 C 682.11 227.45 702.28 203.55 717.1 191.28 M 664.61 251.66 C 680.37 231.25 699.1 209.84 717.1 191.28 M 670.26 251.26 C 679.78 235.87 695.86 227.93 722.74 190.88 M 670.26 251.26 C 690.79 229.59 707.66 204.85 722.74 190.88 M 675.24 251.62 C 689.02 234.45 703.93 213.89 727.73 191.24 M 675.24 251.62 C 689.1 235.86 706.71 218.86 727.73 191.24 M 680.89 251.23 C 689.7 240.82 705.77 230.06 733.37 190.85 M 680.89 251.23 C 699.02 229.57 720.61 206.28 733.37 190.85 M 685.87 251.59 C 699.24 236.43 713.65 220.88 738.36 191.21 M 685.87 251.59 C 705.58 228.78 725.1 205.97 738.36 191.21 M 691.52 251.19 C 701.32 236.5 715.72 218.07 744 190.82 M 691.52 251.19 C 709.43 224.89 733.91 203.57 744 190.82 M 696.5 251.55 C 706.18 240.49 721.57 225.83 748.99 191.18 M 696.5 251.55 C 708.9 239.37 723.87 222.45 748.99 191.18 M 702.15 251.16 C 720.63 229.18 745.29 207.04 754.63 190.78 M 702.15 251.16 C 715.86 230.25 736.56 213.78 754.63 190.78 M 707.13 251.52 C 727.45 230.16 742.25 204.12 759.62 191.14 M 707.13 251.52 C 723.93 231.55 742.1 206.45 759.62 191.14 M 712.78 251.12 C 729.01 234.12 744.74 211.93 765.26 190.75 M 712.78 251.12 C 725.07 239.8 733.56 225.14 765.26 190.75 M 717.76 251.48 C 730.68 236.49 749.21 222.69 770.25 191.11 M 717.76 251.48 C 737.8 230.13 757.18 204.15 770.25 191.11 M 723.41 251.09 C 743.83 230.06 766.86 203.68 775.89 190.71 M 723.41 251.09 C 739.5 226.36 762.01 206.14 775.89 190.71 M 728.39 251.45 C 738.2 238.6 751.85 222.07 780.88 191.07 M 728.39 251.45 C 748.8 226.74 769.85 205.04 780.88 191.07 M 733.38 251.81 C 752.34 235.65 768.91 216.01 786.52 190.68 M 733.38 251.81 C 746.37 235.76 758.53 222.14 786.52 190.68 M 739.02 251.41 C 752.28 239.39 761.46 226.44 791.51 191.04 M 739.02 251.41 C 755.38 233.62 771.06 214.01 791.51 191.04 M 744.01 251.77 C 766.17 229.58 782.21 204.1 796.5 191.4 M 744.01 251.77 C 765.44 226.25 786.04 204.99 796.5 191.4 M 749.65 251.38 C 772.75 227.74 792.57 207.71 802.14 191 M 749.65 251.38 C 767.13 231.98 780.6 213.54 802.14 191 M 754.64 251.74 C 778.38 227.05 797.35 201.55 806.47 192.12 M 754.64 251.74 C 766.89 235.87 778.78 221.52 806.47 192.12 M 760.28 251.35 C 773.81 235.06 796.86 213.05 810.8 193.23 M 760.28 251.35 C 769.22 240.02 780.94 226.48 810.8 193.23 M 765.27 251.71 C 771.7 243.37 788.56 231.97 811.85 198.12 M 765.27 251.71 C 784.92 232.6 799.22 212.31 811.85 198.12 M 770.91 251.31 C 778.47 237.43 793.22 228.23 812.25 203.76 M 770.91 251.31 C 784.63 233.62 802.29 216.47 812.25 203.76 M 775.9 251.67 C 790.32 231.79 804.68 222.63 811.98 210.16 M 775.9 251.67 C 782.14 240.01 790.63 232.75 811.98 210.16 M 781.54 251.28 C 789.22 239.54 798.75 232.78 812.38 215.8 M 781.54 251.28 C 789.37 240.67 797.99 229.51 812.38 215.8 M 786.53 251.64 C 796.32 241.49 803.34 237.37 812.12 222.2 M 786.53 251.64 C 794.84 239.72 805.13 229.83 812.12 222.2 M 792.17 251.24 C 801.1 245.9 799.97 238.56 811.86 228.6 M 792.17 251.24 C 799.09 245.09 804.33 235.4 811.86 228.6 M 797.16 251.6 C 804.37 247.02 802.69 243.87 812.25 234.24 M 797.16 251.6 C 801.22 245.82 804.13 241.65 812.25 234.24 M 802.8 251.21 C 807.65 245.35 809.18 245.47 811.99 240.64 M 802.8 251.21 C 806.03 248.35 807.38 247.36 811.99 240.64" fill="none" stroke="#eef2ff" stroke-width="0.5" stroke-linejoin="round" stroke-linecap="round" stroke-miterlimit="10" pointer-events="all"/><path d="M 96 190 M 96 190 C 354.25 189.8 614.08 190.7 804 190 M 96 190 C 261.07 191.22 426.34 190.83 804 190 M 804 190 C 809.53 189.68 808.52 194.63 810 196 M 804 190 C 803.79 190.83 810.52 190.54 810 196 M 810 196 C 809.12 206.78 809.32 216.38 810 244 M 810 196 C 810.72 209.25 808.48 219.74 810 244 M 810 244 C 808.34 251.79 808.93 250.16 804 250 M 810 244 C 808.74 250.62 810.79 250.78 804 250 M 804 250 C 656.58 248.99 506.63 249.25 96 250 M 804 250 C 587.76 252.57 370.11 251.29 96 250 M 96 250 C 91.78 249.18 86.39 245.51 90 244 M 96 250 C 95.85 246.12 88.71 247.34 90 244 M 90 244 C 89.13 229.47 91.73 221.25 90 196 M 90 244 C 90.55 231.25 90.84 220.43 90 196 M 90 196 C 87.16 191.93 90.2 191.74 96 190 M 90 196 C 87.77 192.75 90.16 192.96 96 190" fill="none" stroke="#4f46e5" stroke-linejoin="round" stroke-linecap="round" stroke-miterlimit="10" pointer-events="all"/><g transform="translate(-0.5 -0.5)"><switch><foreignObject pointer-events="none" width="100%" height="100%" requiredFeatures="http://www.w3.org/TR/SVG11/feature#Extensibility" style="overflow: visible; text-align: left;"><div xmlns="http://www.w3.org/1999/xhtml" style="display: flex; align-items: unsafe center; justify-content: unsafe center; width: 718px; height: 1px; padding-top: 220px; margin-left: 91px;"><div data-drawio-colors="color: #1e1b4b; " style="box-sizing: border-box; font-size: 0px; text-align: center;"><div style="display: inline-block; font-size: 12px; font-family: Helvetica; color: rgb(30, 27, 75); line-height: 1.2; pointer-events: all; font-weight: bold; white-space: normal; overflow-wrap: normal;">Adaptation ladder — start cheapest:<br />Prompt engineering  →  RAG / tools  →  Fine-tuning (LoRA)  →  Continued Pre-Training  →  Distillation</div></div></div></foreignObject><text x="450" y="224" fill="#1e1b4b" font-family="Helvetica" font-size="12px" text-anchor="middle" font-weight="bold">Adaptation ladder — start cheapest:...</text></switch></g><rect x="90" y="275" width="720" height="20" fill="none" stroke="none" pointer-events="all"/><g transform="translate(-0.5 -0.5)"><switch><foreignObject pointer-events="none" width="100%" height="100%" requiredFeatures="http://www.w3.org/TR/SVG11/feature#Extensibility" style="overflow: visible; text-align: left;"><div xmlns="http://www.w3.org/1999/xhtml" style="display: flex; align-items: unsafe center; justify-content: unsafe center; width: 1px; height: 1px; padding-top: 285px; margin-left: 450px;"><div data-drawio-colors="color: #16a34a; " style="box-sizing: border-box; font-size: 0px; text-align: center;"><div style="display: inline-block; font-size: 10px; font-family: Helvetica; color: rgb(22, 163, 74); line-height: 1.2; pointer-events: all; font-weight: bold; font-style: italic; white-space: nowrap;">Most "the model doesn't know X" problems are RAG problems, not training problems.</div></div></div></foreignObject><text x="450" y="288" fill="#16a34a" font-family="Helvetica" font-size="10px" text-anchor="middle" font-weight="bold" font-style="italic">Most "the model doesn't know X" problems are RAG problems, not training problems.</text></switch></g></g><switch><g requiredFeatures="http://www.w3.org/TR/SVG11/feature#Extensibility"/><a transform="translate(0,-5)" xlink:href="https://www.diagrams.net/doc/faq/svg-export-text-problems" target="_blank"><text text-anchor="middle" font-size="10px" x="50%" y="100%">Text is not SVG - cannot display</text></a></switch></svg>