<?xml version="1.0" encoding="UTF-8"?>
<!DOCTYPE svg PUBLIC "-//W3C//DTD SVG 1.1//EN" "http://www.w3.org/Graphics/SVG/1.1/DTD/svg11.dtd">
<svg xmlns="http://www.w3.org/2000/svg" xmlns:xlink="http://www.w3.org/1999/xlink" version="1.1" width="692px" height="397px" viewBox="-0.5 -0.5 692 397"><defs/><g><rect x="195" y="0" width="300" height="26" fill="none" stroke="none" pointer-events="all"/><g transform="translate(-0.5 -0.5)"><switch><foreignObject pointer-events="none" width="100%" height="100%" requiredFeatures="http://www.w3.org/TR/SVG11/feature#Extensibility" style="overflow: visible; text-align: left;"><div xmlns="http://www.w3.org/1999/xhtml" style="display: flex; align-items: unsafe center; justify-content: unsafe center; width: 1px; height: 1px; padding-top: 13px; margin-left: 345px;"><div data-drawio-colors="color: #4f46e5; " style="box-sizing: border-box; font-size: 0px; text-align: center;"><div style="display: inline-block; font-size: 15px; font-family: Helvetica; color: rgb(79, 70, 229); line-height: 1.2; pointer-events: all; font-weight: bold; white-space: nowrap;">Email OTP / Magic Link</div></div></div></foreignObject><text x="345" y="18" fill="#4f46e5" font-family="Helvetica" font-size="15px" text-anchor="middle" font-weight="bold">Email OTP / Magic Link</text></switch></g><rect x="0" y="34" width="150" height="40" rx="6" ry="6" fill="none" stroke="none" pointer-events="all"/><path d="M 1.44 35.57 C 1.44 35.57 1.44 35.57 1.44 35.57 M 1.44 35.57 C 1.44 35.57 1.44 35.57 1.44 35.57 M 1.83 41.21 C 3.98 41.07 2.42 37.8 7.08 35.18 M 1.83 41.21 C 4 39.31 6.01 36.71 7.08 35.18 M 1.57 47.61 C 6.44 42.54 12.29 37.22 12.72 34.78 M 1.57 47.61 C 4.6 42.7 9.28 38.28 12.72 34.78 M 1.97 53.25 C 7.29 49.47 10.18 41.35 17.71 35.14 M 1.97 53.25 C 4.86 49.96 9.29 47.07 17.71 35.14 M 1.71 59.65 C 9.61 54.93 12.72 47.29 23.36 34.75 M 1.71 59.65 C 9.45 52.3 19.06 41.73 23.36 34.75 M 1.44 66.05 C 12.5 52.98 21.71 45.03 28.34 35.11 M 1.44 66.05 C 7.87 61.57 10.79 53.3 28.34 35.11 M 3.15 70.18 C 8.85 58.72 21.5 53.05 33.33 35.47 M 3.15 70.18 C 15.29 58.38 25.66 44.21 33.33 35.47 M 4.86 74.32 C 14.49 67.12 19.82 56.14 38.97 35.07 M 4.86 74.32 C 10.81 67.63 21.28 59.13 38.97 35.07 M 9.84 74.68 C 20.07 58.85 35.36 47.99 43.96 35.43 M 9.84 74.68 C 18.65 64.44 32.13 50.71 43.96 35.43 M 14.83 75.04 C 28.15 67.19 32.04 52.41 49.6 35.04 M 14.83 75.04 C 20.81 66.97 30.42 56.53 49.6 35.04 M 20.47 74.64 C 28.16 64.87 44.68 53.74 54.59 35.4 M 20.47 74.64 C 32.4 59.59 47.44 44.91 54.59 35.4 M 25.46 75 C 39.81 59.51 49.36 53.55 60.23 35 M 25.46 75 C 36.08 63.1 45.85 50.55 60.23 35 M 31.1 74.61 C 40.53 56.82 55.61 43.24 65.22 35.36 M 31.1 74.61 C 41.99 61.68 50.46 51.84 65.22 35.36 M 36.09 74.97 C 40.53 68.88 54.03 54.16 70.86 34.97 M 36.09 74.97 C 43.15 64.8 53.91 54.81 70.86 34.97 M 41.73 74.57 C 50.64 66.74 57.13 56.14 75.85 35.33 M 41.73 74.57 C 47.95 67.98 57.31 55.96 75.85 35.33 M 46.72 74.93 C 63.34 56.85 75.02 43.67 81.49 34.93 M 46.72 74.93 C 54.6 63.54 66.15 51.93 81.49 34.93 M 52.36 74.54 C 64.43 64.43 71.19 52.44 86.48 35.29 M 52.36 74.54 C 61 64.5 72.19 52.59 86.48 35.29 M 57.35 74.9 C 71.79 62.89 80.71 51.27 92.12 34.9 M 57.35 74.9 C 67.87 59.65 82.46 43.5 92.12 34.9 M 62.99 74.5 C 74.1 60.03 89.1 45.71 97.11 35.26 M 62.99 74.5 C 71.54 68.38 75.21 58 97.11 35.26 M 67.98 74.86 C 77.65 58.84 91.31 48.68 102.1 35.62 M 67.98 74.86 C 81.63 58.47 94.07 42.56 102.1 35.62 M 73.62 74.47 C 80.84 67.34 88.45 51.2 107.74 35.23 M 73.62 74.47 C 82.91 61.95 97.78 48.23 107.74 35.23 M 78.61 74.83 C 90.53 64.19 100.39 48.34 112.73 35.59 M 78.61 74.83 C 88.58 63.8 100.45 49.77 112.73 35.59 M 83.6 75.19 C 92.32 58.16 108.34 48.14 118.37 35.19 M 83.6 75.19 C 92.8 66.93 100.46 56.05 118.37 35.19 M 89.24 74.8 C 99.53 62.22 118.15 45.2 123.36 35.55 M 89.24 74.8 C 103.01 58.6 114.05 44.18 123.36 35.55 M 94.23 75.16 C 98.7 63.22 112.7 56.87 129 35.16 M 94.23 75.16 C 108.02 62.07 120.53 46.56 129 35.16 M 99.87 74.76 C 105.19 65.32 118.63 56.64 133.99 35.52 M 99.87 74.76 C 112.07 62.06 121.2 50.57 133.99 35.52 M 104.86 75.12 C 114.51 59.98 135.41 41.83 139.63 35.12 M 104.86 75.12 C 115.09 65.54 126.9 53.47 139.63 35.12 M 110.5 74.73 C 121.89 60.08 130.84 44.81 144.62 35.48 M 110.5 74.73 C 123.36 57.01 135.67 43.85 144.62 35.48 M 115.49 75.09 C 121.87 65.42 137.04 53.42 148.95 36.6 M 115.49 75.09 C 125.7 61.51 138.68 47.44 148.95 36.6 M 121.13 74.69 C 130.82 63.4 138.3 60.44 150.65 40.73 M 121.13 74.69 C 133.03 63.25 142.99 51.49 150.65 40.73 M 126.12 75.05 C 128.92 68.63 139.72 57.89 150.39 47.13 M 126.12 75.05 C 130.84 68.86 134.89 64.43 150.39 47.13 M 131.76 74.66 C 141.3 65.5 144.2 58.72 150.79 52.77 M 131.76 74.66 C 135.03 71.25 141.56 66.58 150.79 52.77 M 136.75 75.02 C 136.04 72.57 144.48 67.3 150.53 59.17 M 136.75 75.02 C 140.45 70.72 141.82 68.95 150.53 59.17 M 141.74 75.38 C 146.03 74.44 149.76 66.98 150.26 65.57 M 141.74 75.38 C 144.93 70.93 146.94 69.08 150.26 65.57" fill="none" stroke="#eef2ff" stroke-width="0.5" stroke-linejoin="round" stroke-linecap="round" stroke-miterlimit="10" pointer-events="all"/><path d="M 6 34 M 6 34 C 60.55 32.13 111.13 32.73 144 34 M 6 34 C 43.8 37.52 84.7 34.2 144 34 M 144 34 C 144.46 37.81 147.1 39.68 150 40 M 144 34 C 149.27 31.49 148.97 31.55 150 40 M 150 40 C 148.52 42.84 150.52 50.8 150 68 M 150 40 C 151.1 52.1 150.94 61.22 150 68 M 150 68 C 153.79 70.16 150.37 76.67 144 74 M 150 68 C 152.72 68.64 143.81 73.66 144 74 M 144 74 C 97.12 68.45 52.54 71.05 6 74 M 144 74 C 101.14 74.19 54.37 74.29 6 74 M 6 74 C 3.16 76.9 2.31 72.48 0 68 M 6 74 C -1.16 77.89 2.6 68.09 0 68 M 0 68 C 2.52 61.3 -0.69 46.84 0 40 M 0 68 C 1.36 59.27 1.43 46.5 0 40 M 0 40 C 3.89 39.23 4.01 33.91 6 34 M 0 40 C 4.44 38.18 1.07 32.97 6 34" fill="none" stroke="#4f46e5" stroke-linejoin="round" stroke-linecap="round" stroke-miterlimit="10" pointer-events="all"/><g transform="translate(-0.5 -0.5)"><switch><foreignObject pointer-events="none" width="100%" height="100%" requiredFeatures="http://www.w3.org/TR/SVG11/feature#Extensibility" style="overflow: visible; text-align: left;"><div xmlns="http://www.w3.org/1999/xhtml" style="display: flex; align-items: unsafe center; justify-content: unsafe center; width: 148px; height: 1px; padding-top: 54px; margin-left: 1px;"><div data-drawio-colors="color: #1e1b4b; " style="box-sizing: border-box; font-size: 0px; text-align: center;"><div style="display: inline-block; font-size: 12px; font-family: Helvetica; color: rgb(30, 27, 75); line-height: 1.2; pointer-events: all; font-weight: bold; white-space: normal; overflow-wrap: normal;">User<br />(browser)</div></div></div></foreignObject><text x="75" y="58" fill="#1e1b4b" font-family="Helvetica" font-size="12px" text-anchor="middle" font-weight="bold">User...</text></switch></g><rect x="270" y="34" width="150" height="40" rx="6" ry="6" fill="none" stroke="none" pointer-events="all"/><path d="M 271.35 35.67 C 271.35 35.67 271.35 35.67 271.35 35.67 M 271.35 35.67 C 271.35 35.67 271.35 35.67 271.35 35.67 M 271.74 41.32 C 273.87 39.55 274.78 38.21 276.99 35.28 M 271.74 41.32 C 273.14 39.53 275.74 36.9 276.99 35.28 M 271.48 47.71 C 274.91 45.01 276.89 35.94 282.64 34.88 M 271.48 47.71 C 275.03 45.48 276.28 41.21 282.64 34.88 M 271.88 53.36 C 276.69 46.93 282.86 39.88 287.62 35.24 M 271.88 53.36 C 278.82 47.11 281.97 41.15 287.62 35.24 M 271.62 59.75 C 276.04 48.75 290.44 42.75 293.27 34.85 M 271.62 59.75 C 278.95 53.91 282.52 47.68 293.27 34.85 M 271.35 66.15 C 274.63 60.85 282.9 53.65 298.25 35.21 M 271.35 66.15 C 280.86 56.43 290.2 43.78 298.25 35.21 M 273.06 70.29 C 281.09 57.14 299.09 45.95 303.9 34.81 M 273.06 70.29 C 284.69 58.01 296.56 46.62 303.9 34.81 M 274.77 74.42 C 283.5 70.51 284.93 58.03 308.88 35.17 M 274.77 74.42 C 285.43 58.04 301.13 45.12 308.88 35.17 M 279.75 74.78 C 291.5 60.47 310.84 44.75 314.53 34.78 M 279.75 74.78 C 287.2 64.76 293.21 57.91 314.53 34.78 M 285.4 74.39 C 291.39 64.93 301.04 58.66 319.51 35.14 M 285.4 74.39 C 293.69 64.63 302.38 52.22 319.51 35.14 M 290.39 74.75 C 300.86 61.57 308.23 54.25 324.5 35.5 M 290.39 74.75 C 305.74 61.46 316.92 44.98 324.5 35.5 M 296.03 74.35 C 307.21 67.43 312.92 58.26 330.14 35.11 M 296.03 74.35 C 306.76 61.02 317.39 49.18 330.14 35.11 M 301.02 74.71 C 309.02 68.91 319.14 54.16 335.13 35.47 M 301.02 74.71 C 312.31 60.97 325.5 44.69 335.13 35.47 M 306 75.07 C 320.42 58.75 330.5 49.68 340.77 35.07 M 306 75.07 C 314.25 64.6 326.12 52.16 340.77 35.07 M 311.65 74.68 C 321.58 62.38 331.04 58.99 345.76 35.43 M 311.65 74.68 C 320.65 62.42 330.58 53.61 345.76 35.43 M 316.63 75.04 C 322.79 63.25 331.15 56.96 351.4 35.04 M 316.63 75.04 C 330.66 59.68 340.99 46.18 351.4 35.04 M 322.28 74.64 C 327.8 63.67 338.82 53.6 356.39 35.4 M 322.28 74.64 C 330 66.42 342.06 56.71 356.39 35.4 M 327.26 75 C 340.5 62.07 350.24 51.24 362.03 35 M 327.26 75 C 334.98 64.5 345.56 54.56 362.03 35 M 332.91 74.61 C 343.78 66.63 351.13 56.01 367.02 35.36 M 332.91 74.61 C 344.45 59.35 359.93 43.75 367.02 35.36 M 337.89 74.97 C 345.54 62.19 352.62 56.67 372.66 34.97 M 337.89 74.97 C 345.22 66.62 353.56 55.2 372.66 34.97 M 343.54 74.57 C 348.69 63.42 361.98 59.55 377.65 35.33 M 343.54 74.57 C 356.48 59.64 371.58 43.37 377.65 35.33 M 348.52 74.93 C 355.71 60.75 370.8 54.67 382.64 35.69 M 348.52 74.93 C 355.23 64.62 363.41 58.27 382.64 35.69 M 354.17 74.54 C 364.16 62.12 371.94 54.3 388.28 35.29 M 354.17 74.54 C 367.48 61.06 380.21 46.83 388.28 35.29 M 359.15 74.9 C 363.61 65.96 372.5 56.02 393.27 35.65 M 359.15 74.9 C 369 66.45 374.52 55.88 393.27 35.65 M 364.14 75.26 C 372.8 64.44 381.05 56.8 398.91 35.26 M 364.14 75.26 C 372.91 66.15 385.07 52.92 398.91 35.26 M 369.78 74.86 C 382.99 59.49 391.8 44.76 403.9 35.62 M 369.78 74.86 C 382.33 62.2 392.64 47.86 403.9 35.62 M 374.77 75.22 C 387.18 60.99 397.75 45.95 409.54 35.22 M 374.77 75.22 C 388.06 59.04 399.67 45.91 409.54 35.22 M 380.41 74.83 C 386.99 64.55 392.87 56.59 414.53 35.58 M 380.41 74.83 C 387.26 64.6 396.59 57.33 414.53 35.58 M 385.4 75.19 C 399.21 61.57 410.41 52.72 418.86 36.7 M 385.4 75.19 C 396.66 62.37 409.99 47.39 418.86 36.7 M 391.04 74.8 C 397.59 63.26 405.51 55.42 420.57 40.83 M 391.04 74.8 C 399.43 65.73 403.19 61.47 420.57 40.83 M 396.03 75.16 C 406.13 61.86 419.19 53.59 420.96 46.48 M 396.03 75.16 C 402.37 70.56 405.8 62.13 420.96 46.48 M 401.67 74.76 C 407.97 64.26 409.97 65.09 420.7 52.87 M 401.67 74.76 C 407.09 68.3 413.75 61.88 420.7 52.87 M 406.66 75.12 C 408.39 72.83 419.26 66.06 420.44 59.27 M 406.66 75.12 C 412.08 68.09 415.26 62.76 420.44 59.27 M 412.3 74.73 C 414.14 71.32 415.41 68.79 420.18 65.67 M 412.3 74.73 C 414.4 70.49 417.5 67.6 420.18 65.67" fill="none" stroke="#eef2ff" stroke-width="0.5" stroke-linejoin="round" stroke-linecap="round" stroke-miterlimit="10" pointer-events="all"/><path d="M 276 34 M 276 34 C 316.78 30.56 350.12 34.55 414 34 M 276 34 C 323.17 30.2 366.41 33.64 414 34 M 414 34 C 421.8 33.56 417.98 37.47 420 40 M 414 34 C 421.75 35.84 416.95 33.94 420 40 M 420 40 C 422.52 47.62 419.71 60.36 420 68 M 420 40 C 422.35 49.18 418.79 56.32 420 68 M 420 68 C 423.97 68.85 420.11 74.51 414 74 M 420 68 C 420.01 68.71 418.24 73.22 414 74 M 414 74 C 385.34 78.15 352.19 79.01 276 74 M 414 74 C 365.99 72.35 320.05 71.63 276 74 M 276 74 C 275.01 73.05 272.46 69.82 270 68 M 276 74 C 274.43 75.82 265.67 67.85 270 68 M 270 68 C 267.46 53.43 272.76 43.89 270 40 M 270 68 C 269.92 59 270.96 48.67 270 40 M 270 40 C 272.39 38.99 272.29 34.15 276 34 M 270 40 C 272.56 38.28 268.65 37.59 276 34" fill="none" stroke="#4f46e5" stroke-linejoin="round" stroke-linecap="round" stroke-miterlimit="10" pointer-events="all"/><g transform="translate(-0.5 -0.5)"><switch><foreignObject pointer-events="none" width="100%" height="100%" requiredFeatures="http://www.w3.org/TR/SVG11/feature#Extensibility" style="overflow: visible; text-align: left;"><div xmlns="http://www.w3.org/1999/xhtml" style="display: flex; align-items: unsafe center; justify-content: unsafe center; width: 148px; height: 1px; padding-top: 54px; margin-left: 271px;"><div data-drawio-colors="color: #1e1b4b; " style="box-sizing: border-box; font-size: 0px; text-align: center;"><div style="display: inline-block; font-size: 12px; font-family: Helvetica; color: rgb(30, 27, 75); line-height: 1.2; pointer-events: all; font-weight: bold; white-space: normal; overflow-wrap: normal;">App / IdP</div></div></div></foreignObject><text x="345" y="58" fill="#1e1b4b" font-family="Helvetica" font-size="12px" text-anchor="middle" font-weight="bold">App / IdP</text></switch></g><rect x="540" y="34" width="150" height="40" rx="6" ry="6" fill="none" stroke="none" pointer-events="all"/><path d="M 541.26 35.78 C 541.26 35.78 541.26 35.78 541.26 35.78 M 541.26 35.78 C 541.26 35.78 541.26 35.78 541.26 35.78 M 541.66 41.42 C 543.51 41.24 543.69 38.62 546.9 35.38 M 541.66 41.42 C 544.12 39.54 545.72 36.89 546.9 35.38 M 541.39 47.82 C 543.38 41.14 548.29 41.9 552.55 34.99 M 541.39 47.82 C 544.29 45.25 547.73 41.97 552.55 34.99 M 541.79 53.46 C 550.22 48.02 548.52 45.66 557.53 35.35 M 541.79 53.46 C 544.9 47.88 551.62 42.48 557.53 35.35 M 541.53 59.86 C 547.14 55.56 552.49 48.18 563.18 34.95 M 541.53 59.86 C 548.77 51.41 558.63 40.53 563.18 34.95 M 541.92 65.5 C 550.58 54.03 555.07 41.65 568.16 35.31 M 541.92 65.5 C 552.9 56.97 559.06 46.39 568.16 35.31 M 542.97 70.39 C 546.97 62.89 555.94 53.5 573.81 34.92 M 542.97 70.39 C 552.43 57.9 561.58 45.55 573.81 34.92 M 544.68 74.52 C 554.08 64.54 559.61 58.56 578.79 35.28 M 544.68 74.52 C 558.79 58.92 568.91 45.44 578.79 35.28 M 549.67 74.88 C 554.14 62.36 570.36 58.02 584.44 34.88 M 549.67 74.88 C 562.5 61.31 571.81 49.57 584.44 34.88 M 555.31 74.49 C 569 62.01 575.42 48.17 589.42 35.24 M 555.31 74.49 C 564.49 62.87 576.4 52.31 589.42 35.24 M 560.3 74.85 C 567.32 64.69 581.72 52.97 595.07 34.85 M 560.3 74.85 C 573.76 59.04 585.32 44.47 595.07 34.85 M 565.94 74.45 C 574.15 66.5 576.23 53.91 600.05 35.21 M 565.94 74.45 C 576.98 64.82 588.67 49.45 600.05 35.21 M 570.93 74.81 C 582.77 65.15 586.74 49.39 605.04 35.57 M 570.93 74.81 C 578.24 65.47 585.32 54.6 605.04 35.57 M 576.57 74.42 C 592.7 57.55 607.1 46.43 610.68 35.17 M 576.57 74.42 C 585.81 63.87 598.6 49.2 610.68 35.17 M 581.56 74.78 C 590.96 66.02 603.38 53.84 615.67 35.53 M 581.56 74.78 C 593.35 60.86 603.85 47.26 615.67 35.53 M 586.54 75.14 C 598.8 63.04 610.79 47.63 621.31 35.14 M 586.54 75.14 C 597.38 62.42 607.51 51.04 621.31 35.14 M 592.19 74.74 C 605.98 61.7 620.1 45.7 626.3 35.5 M 592.19 74.74 C 599.01 64.35 607.94 56.83 626.3 35.5 M 597.17 75.1 C 609.21 61.24 619.76 51.2 631.94 35.11 M 597.17 75.1 C 609.04 61.36 622.56 45.63 631.94 35.11 M 602.82 74.71 C 612.29 65.38 618.81 50.61 636.93 35.47 M 602.82 74.71 C 614.54 62.17 627.01 45.2 636.93 35.47 M 607.8 75.07 C 621.76 57.78 628.99 49.16 642.57 35.07 M 607.8 75.07 C 615.5 65.68 626.43 55.05 642.57 35.07 M 613.45 74.68 C 616.55 66.13 627.52 58.53 647.56 35.43 M 613.45 74.68 C 621.65 65.18 630.16 54.21 647.56 35.43 M 618.43 75.04 C 627.46 65.12 631.93 52.66 653.2 35.04 M 618.43 75.04 C 630.5 61.34 642.02 46.58 653.2 35.04 M 624.08 74.64 C 632.83 60.08 647.45 46.33 658.19 35.4 M 624.08 74.64 C 637.26 62.25 648.38 48.34 658.19 35.4 M 629.06 75 C 633.08 63.04 647.2 60.16 663.83 35 M 629.06 75 C 643.62 60.81 654.68 45.99 663.83 35 M 634.71 74.61 C 645.79 65.1 656.12 56.37 668.82 35.36 M 634.71 74.61 C 646.76 61.75 661.27 43.11 668.82 35.36 M 639.69 74.97 C 653.97 62.87 659.31 49.94 673.81 35.72 M 639.69 74.97 C 645.77 66.18 654.43 60.85 673.81 35.72 M 645.34 74.57 C 653.89 61.48 669.93 49.79 679.45 35.33 M 645.34 74.57 C 656.15 65.37 664.45 55.38 679.45 35.33 M 650.32 74.93 C 657.34 67.81 666.97 51.3 684.44 35.69 M 650.32 74.93 C 661.97 64.34 671.15 51.1 684.44 35.69 M 655.31 75.29 C 670.1 64.38 685.33 42.67 688.77 36.8 M 655.31 75.29 C 664.93 65.59 671.92 57.4 688.77 36.8 M 660.95 74.9 C 672.36 61.92 680.71 49.21 690.48 40.94 M 660.95 74.9 C 671.73 64.25 679.21 52.68 690.48 40.94 M 665.94 75.26 C 677.04 68.04 679.18 60.18 690.87 46.58 M 665.94 75.26 C 673.77 68.41 676.44 64.15 690.87 46.58 M 671.58 74.86 C 675.52 71.02 684.62 63.47 690.61 52.98 M 671.58 74.86 C 674.48 69.72 681.45 65.93 690.61 52.98 M 676.57 75.22 C 677.35 67.7 679.89 70.6 690.35 59.37 M 676.57 75.22 C 680.33 68.62 686.54 62.91 690.35 59.37 M 682.21 74.83 C 681.89 73.58 686.12 70.35 690.74 65.02 M 682.21 74.83 C 686.17 69.76 688.28 67.94 690.74 65.02" fill="none" stroke="#eef2ff" stroke-width="0.5" stroke-linejoin="round" stroke-linecap="round" stroke-miterlimit="10" pointer-events="all"/><path d="M 546 34 M 546 34 C 592.6 34.5 644.31 33.9 684 34 M 546 34 C 598.55 32.4 652.11 34.59 684 34 M 684 34 C 691.14 37.31 688.86 35.25 690 40 M 684 34 C 685.03 30.98 694.13 36.32 690 40 M 690 40 C 688.52 46.8 688.9 50.71 690 68 M 690 40 C 688.47 46.25 689.52 55.42 690 68 M 690 68 C 686.16 75.53 689.86 72.34 684 74 M 690 68 C 687.3 68.77 683.47 72.79 684 74 M 684 74 C 637.95 74.34 596.65 73.45 546 74 M 684 74 C 634.84 72.04 585.74 74.5 546 74 M 546 74 C 538.85 77.2 542.61 75.16 540 68 M 546 74 C 540.82 73.75 537.95 67.6 540 68 M 540 68 C 540.41 53.56 538.22 48.94 540 40 M 540 68 C 539.6 58.74 541.61 50.83 540 40 M 540 40 C 540.9 38.75 540.57 34.39 546 34 M 540 40 C 540.67 38.39 545.44 33.02 546 34" fill="none" stroke="#4f46e5" stroke-linejoin="round" stroke-linecap="round" stroke-miterlimit="10" pointer-events="all"/><g transform="translate(-0.5 -0.5)"><switch><foreignObject pointer-events="none" width="100%" height="100%" requiredFeatures="http://www.w3.org/TR/SVG11/feature#Extensibility" style="overflow: visible; text-align: left;"><div xmlns="http://www.w3.org/1999/xhtml" style="display: flex; align-items: unsafe center; justify-content: unsafe center; width: 148px; height: 1px; padding-top: 54px; margin-left: 541px;"><div data-drawio-colors="color: #1e1b4b; " style="box-sizing: border-box; font-size: 0px; text-align: center;"><div style="display: inline-block; font-size: 12px; font-family: Helvetica; color: rgb(30, 27, 75); line-height: 1.2; pointer-events: all; font-weight: bold; white-space: normal; overflow-wrap: normal;">Email service</div></div></div></foreignObject><text x="615" y="58" fill="#1e1b4b" font-family="Helvetica" font-size="12px" text-anchor="middle" font-weight="bold">Email service</text></switch></g><path d="M 75 74 L 75 394" fill="none" stroke="none" pointer-events="stroke"/><path d="M 75 74 M 75 74 C 77.7 140.97 74.97 210.97 75 394 M 75 74 C 73.87 193.73 72.9 316.02 75 394" fill="none" stroke="#4f46e5" stroke-linejoin="round" stroke-linecap="round" stroke-miterlimit="10" stroke-dasharray="3 3" pointer-events="stroke"/><path d="M 345 74 L 345 394" fill="none" stroke="none" pointer-events="stroke"/><path d="M 345 74 M 345 74 C 346.87 145.12 348.09 209.8 345 394 M 345 74 C 343.35 153.06 344.58 233.31 345 394" fill="none" stroke="#4f46e5" stroke-linejoin="round" stroke-linecap="round" stroke-miterlimit="10" stroke-dasharray="3 3" pointer-events="stroke"/><path d="M 615 74 L 615 394" fill="none" stroke="none" pointer-events="stroke"/><path d="M 615 74 M 615 74 C 621.63 143.67 621.2 214.23 615 394 M 615 74 C 615.63 176.4 613.47 278.59 615 394" fill="none" stroke="#4f46e5" stroke-linejoin="round" stroke-linecap="round" stroke-miterlimit="10" stroke-dasharray="3 3" pointer-events="stroke"/><path d="M 75 106 L 336.88 106" fill="none" stroke="none" pointer-events="stroke"/><path d="M 343.88 106 L 336.88 109.5 L 336.88 102.5 Z" fill="none" stroke="none" pointer-events="all"/><path d="M 75 106 M 75 106 C 135.92 112.36 192.32 111.94 336.88 106 M 75 106 C 171.49 103.04 269.04 101.84 336.88 106" fill="none" stroke="#6366f1" stroke-linejoin="round" stroke-linecap="round" stroke-miterlimit="10" pointer-events="stroke"/><path d="M 337.17 102.17 C 337.17 102.17 337.17 102.17 337.17 102.17 M 337.17 102.17 C 337.17 102.17 337.17 102.17 337.17 102.17 M 336.91 108.56 C 338.99 106.1 340.01 106.43 340.85 104.04 M 336.91 108.56 C 337.91 106.7 339.5 105.6 340.85 104.04" fill="none" stroke="#6366f1" stroke-width="0.5" stroke-linejoin="round" stroke-linecap="round" stroke-miterlimit="10" pointer-events="all"/><path d="M 343.88 106 M 343.88 106 C 342.98 106.21 339.52 108.63 336.88 109.5 M 343.88 106 C 340.8 107.92 338.8 109.17 336.88 109.5 M 336.88 109.5 C 337.88 107.58 337.35 105.71 336.88 102.5 M 336.88 109.5 C 336.21 108.65 337.48 105.85 336.88 102.5 M 336.88 102.5 C 339.19 103.32 341.7 103.17 343.88 106 M 336.88 102.5 C 338.69 103.47 339.34 103.69 343.88 106" fill="none" stroke="#6366f1" stroke-linejoin="round" stroke-linecap="round" stroke-miterlimit="10" pointer-events="all"/><g fill="#1e1b4b" font-family="Helvetica" text-anchor="middle" font-size="10px"><rect fill="#ffffff" stroke="none" x="146" y="101" width="129" height="13" stroke-width="0"/><text x="209.5" y="109.5">1 · enter email, request code</text></g><rect x="180" y="124" width="330" height="28" rx="5.6" ry="5.6" fill="none" stroke="none" pointer-events="all"/><path d="M 182.39 127.43 L 504.18 127.92 L 512.32 123.89 L 506.76 145.79 L 506.48 149.64 L 501.43 155.87 L 188.6 154.46 L 182.4 149.76 L 183.28 143.86 L 180.11 130.52 L 186.26 124.8" fill="#ffffff" stroke="none" pointer-events="all"/><path d="M 185.6 124 M 185.6 124 C 308.49 124.48 423.97 120.57 504.4 124 M 185.6 124 C 274.28 125.96 361.73 124.3 504.4 124 M 504.4 124 C 508.27 125.64 510.1 123.55 510 129.6 M 504.4 124 C 503.8 127.45 513.69 122.51 510 129.6 M 510 129.6 C 507.52 135.08 509.35 136.96 510 146.4 M 510 129.6 C 509.97 135.5 509.76 141.12 510 146.4 M 510 146.4 C 506.44 152.38 506.18 153.37 504.4 152 M 510 146.4 C 513.56 151.05 503.98 156.57 504.4 152 M 504.4 152 C 379.47 147.86 262.16 147.01 185.6 152 M 504.4 152 C 428.44 151.53 352.44 154.07 185.6 152 M 185.6 152 C 180.22 148.58 181.48 153.88 180 146.4 M 185.6 152 C 180.2 156.29 182.36 150.51 180 146.4 M 180 146.4 C 177.76 143.18 181.57 134.4 180 129.6 M 180 146.4 C 179.88 143.76 181.2 138.9 180 129.6 M 180 129.6 C 176.75 124.81 179.73 120.12 185.6 124 M 180 129.6 C 175.95 121.53 180.07 123.76 185.6 124" fill="none" stroke="#cbd5e1" stroke-linejoin="round" stroke-linecap="round" stroke-miterlimit="10" pointer-events="all"/><g transform="translate(-0.5 -0.5)"><switch><foreignObject pointer-events="none" width="100%" height="100%" requiredFeatures="http://www.w3.org/TR/SVG11/feature#Extensibility" style="overflow: visible; text-align: left;"><div xmlns="http://www.w3.org/1999/xhtml" style="display: flex; align-items: unsafe center; justify-content: unsafe center; width: 328px; height: 1px; padding-top: 138px; margin-left: 181px;"><div data-drawio-colors="color: #1e1b4b; " style="box-sizing: border-box; font-size: 0px; text-align: center;"><div style="display: inline-block; font-size: 10px; font-family: Helvetica; color: rgb(30, 27, 75); line-height: 1.2; pointer-events: all; white-space: normal; overflow-wrap: normal;">2 · generate OTP (crypto/rand) · store hash + TTL</div></div></div></foreignObject><text x="345" y="141" fill="#1e1b4b" font-family="Helvetica" font-size="10px" text-anchor="middle">2 · generate OTP (crypto/rand) · store hash + TTL</text></switch></g><path d="M 345 176 L 606.88 176" fill="none" stroke="none" pointer-events="stroke"/><path d="M 613.88 176 L 606.88 179.5 L 606.88 172.5 Z" fill="none" stroke="none" pointer-events="all"/><path d="M 345 176 M 345 176 C 402.28 177.37 461.3 177.58 606.88 176 M 345 176 C 427.45 177.03 508.97 176.53 606.88 176" fill="none" stroke="#6366f1" stroke-linejoin="round" stroke-linecap="round" stroke-miterlimit="10" pointer-events="stroke"/><path d="M 606.97 172.4 C 606.97 172.4 606.97 172.4 606.97 172.4 M 606.97 172.4 C 606.97 172.4 606.97 172.4 606.97 172.4 M 606.71 178.79 C 607.97 177.21 609.51 176.53 610.64 174.27 M 606.71 178.79 C 607.76 177.99 609.03 176.86 610.64 174.27" fill="none" stroke="#6366f1" stroke-width="0.5" stroke-linejoin="round" stroke-linecap="round" stroke-miterlimit="10" pointer-events="all"/><path d="M 613.88 176 M 613.88 176 C 612.55 177.48 609.59 178.85 606.88 179.5 M 613.88 176 C 612.05 176.21 610.91 176.88 606.88 179.5 M 606.88 179.5 C 605.72 176.98 605.92 174.27 606.88 172.5 M 606.88 179.5 C 607.12 177.82 607.22 175.47 606.88 172.5 M 606.88 172.5 C 609.82 173.57 611.55 176.71 613.88 176 M 606.88 172.5 C 608.46 173.02 609.21 174.67 613.88 176" fill="none" stroke="#6366f1" stroke-linejoin="round" stroke-linecap="round" stroke-miterlimit="10" pointer-events="all"/><g fill="#1e1b4b" font-family="Helvetica" text-anchor="middle" font-size="10px"><rect fill="#ffffff" stroke="none" x="423" y="171" width="115" height="13" stroke-width="0"/><text x="479.5" y="179.5">3 · send code / magic link</text></g><path d="M 615 206 L 83.12 206" fill="none" stroke="none" pointer-events="stroke"/><path d="M 76.12 206 L 83.12 202.5 L 83.12 209.5 Z" fill="none" stroke="none" pointer-events="all"/><path d="M 615 206 M 615 206 C 496.52 208.17 378.89 208.44 83.12 206 M 615 206 C 408.04 208.36 202.52 207.48 83.12 206" fill="none" stroke="#16a34a" stroke-linejoin="round" stroke-linecap="round" stroke-miterlimit="10" pointer-events="stroke"/><path d="M 75.88 206.28 C 75.88 206.28 75.88 206.28 75.88 206.28 M 75.88 206.28 C 75.88 206.28 75.88 206.28 75.88 206.28 M 79.55 208.15 C 80.79 207.51 81.95 205.59 84.14 202.87 M 79.55 208.15 C 80.1 207.32 82.1 205.97 84.14 202.87" fill="none" stroke="#16a34a" stroke-width="0.5" stroke-linejoin="round" stroke-linecap="round" stroke-miterlimit="10" pointer-events="all"/><path d="M 76.12 206 M 76.12 206 C 77.55 203.89 79.3 204.86 83.12 202.5 M 76.12 206 C 77.35 204.54 80.68 204.06 83.12 202.5 M 83.12 202.5 C 83.69 204.14 84.27 206.86 83.12 209.5 M 83.12 202.5 C 82.32 204.81 82.54 206.41 83.12 209.5 M 83.12 209.5 C 82.74 209.69 80.51 208.78 76.12 206 M 83.12 209.5 C 80.37 208.07 79.24 207.12 76.12 206" fill="none" stroke="#16a34a" stroke-linejoin="round" stroke-linecap="round" stroke-miterlimit="10" pointer-events="all"/><g fill="#16a34a" font-family="Helvetica" text-anchor="middle" font-size="10px"><rect fill="#ffffff" stroke="none" x="296" y="201" width="99" height="13" stroke-width="0"/><text x="344.5" y="209.5">4 · deliver out-of-band</text></g><path d="M 75 244 L 336.88 244" fill="none" stroke="none" pointer-events="stroke"/><path d="M 343.88 244 L 336.88 247.5 L 336.88 240.5 Z" fill="none" stroke="none" pointer-events="all"/><path d="M 75 244 M 75 244 C 135.01 246.75 190.29 241.22 336.88 244 M 75 244 C 143.41 249.02 212.1 249.22 336.88 244" fill="none" stroke="#6366f1" stroke-linejoin="round" stroke-linecap="round" stroke-miterlimit="10" pointer-events="stroke"/><path d="M 336.61 240.81 C 336.61 240.81 336.61 240.81 336.61 240.81 M 336.61 240.81 C 336.61 240.81 336.61 240.81 336.61 240.81 M 337.01 246.45 C 337.87 244.98 338.25 244.82 340.29 242.68 M 337.01 246.45 C 337.92 245.8 338.72 244.82 340.29 242.68" fill="none" stroke="#6366f1" stroke-width="0.5" stroke-linejoin="round" stroke-linecap="round" stroke-miterlimit="10" pointer-events="all"/><path d="M 343.88 244 M 343.88 244 C 340.72 244.6 340 245.61 336.88 247.5 M 343.88 244 C 341.76 244.77 338.52 245.55 336.88 247.5 M 336.88 247.5 C 336.35 245.78 337.3 243.64 336.88 240.5 M 336.88 247.5 C 336.63 246.38 336.96 244.49 336.88 240.5 M 336.88 240.5 C 339.06 241.11 341.73 243.72 343.88 244 M 336.88 240.5 C 339.63 241.28 341.88 243.49 343.88 244" fill="none" stroke="#6366f1" stroke-linejoin="round" stroke-linecap="round" stroke-miterlimit="10" pointer-events="all"/><g fill="#1e1b4b" font-family="Helvetica" text-anchor="middle" font-size="10px"><rect fill="#ffffff" stroke="none" x="176" y="239" width="70" height="13" stroke-width="0"/><text x="209.5" y="247.5">5 · submit code</text></g><rect x="175" y="262" width="340" height="28" rx="5.6" ry="5.6" fill="none" stroke="none" pointer-events="all"/><path d="M 177.4 260.15 L 512.42 264.78 L 517.03 267.33 L 513.07 287.31 L 513.64 289.29 L 509.57 289.28 L 179.95 291.37 L 175.02 292 L 177.31 286.88 L 176.49 264.43 L 179.98 258.84" fill="#ffffff" stroke="none" pointer-events="all"/><path d="M 180.6 262 M 180.6 262 C 261.93 263.2 341.65 264.75 509.4 262 M 180.6 262 C 258.62 258.69 336.45 258.3 509.4 262 M 509.4 262 C 510.03 258.85 518.97 263.79 515 267.6 M 509.4 262 C 513.68 265.95 516.98 266.99 515 267.6 M 515 267.6 C 512.56 272.7 514.24 282.49 515 284.4 M 515 267.6 C 513.79 269.58 516.7 275.3 515 284.4 M 515 284.4 C 512.35 288.08 509.77 287.59 509.4 290 M 515 284.4 C 514.81 288.91 517.05 286.14 509.4 290 M 509.4 290 C 399.57 292.19 290.07 295.49 180.6 290 M 509.4 290 C 395.75 286.64 283.83 287.42 180.6 290 M 180.6 290 C 178.7 286.55 172.07 289.42 175 284.4 M 180.6 290 C 179.43 286.92 176.27 288.29 175 284.4 M 175 284.4 C 177.93 278.18 177.86 275.93 175 267.6 M 175 284.4 C 175.14 278.31 176.72 273.54 175 267.6 M 175 267.6 C 172.68 263.87 177.46 261.14 180.6 262 M 175 267.6 C 177.77 267.25 177.23 260.59 180.6 262" fill="none" stroke="#cbd5e1" stroke-linejoin="round" stroke-linecap="round" stroke-miterlimit="10" pointer-events="all"/><g transform="translate(-0.5 -0.5)"><switch><foreignObject pointer-events="none" width="100%" height="100%" requiredFeatures="http://www.w3.org/TR/SVG11/feature#Extensibility" style="overflow: visible; text-align: left;"><div xmlns="http://www.w3.org/1999/xhtml" style="display: flex; align-items: unsafe center; justify-content: unsafe center; width: 338px; height: 1px; padding-top: 276px; margin-left: 176px;"><div data-drawio-colors="color: #1e1b4b; " style="box-sizing: border-box; font-size: 0px; text-align: center;"><div style="display: inline-block; font-size: 10px; font-family: Helvetica; color: rgb(30, 27, 75); line-height: 1.2; pointer-events: all; white-space: normal; overflow-wrap: normal;">6 · constant-time compare · check TTL · invalidate</div></div></div></foreignObject><text x="345" y="279" fill="#1e1b4b" font-family="Helvetica" font-size="10px" text-anchor="middle">6 · constant-time compare · check TTL · invalidate</text></switch></g><path d="M 345 314 L 83.12 314" fill="none" stroke="none" pointer-events="stroke"/><path d="M 76.12 314 L 83.12 310.5 L 83.12 317.5 Z" fill="none" stroke="none" pointer-events="all"/><path d="M 345 314 M 345 314 C 285.83 314.83 228.2 316.32 83.12 314 M 345 314 C 292.69 313.75 238.68 314.64 83.12 314" fill="none" stroke="#16a34a" stroke-linejoin="round" stroke-linecap="round" stroke-miterlimit="10" pointer-events="stroke"/><path d="M 76.21 313.9 C 76.21 313.9 76.21 313.9 76.21 313.9 M 76.21 313.9 C 76.21 313.9 76.21 313.9 76.21 313.9 M 79.89 315.77 C 80.71 313.98 82.46 311.86 83.82 311.24 M 79.89 315.77 C 81.82 313.94 83.24 311.82 83.82 311.24" fill="none" stroke="#16a34a" stroke-width="0.5" stroke-linejoin="round" stroke-linecap="round" stroke-miterlimit="10" pointer-events="all"/><path d="M 76.12 314 M 76.12 314 C 76.74 314.18 80.59 312.11 83.12 310.5 M 76.12 314 C 78.17 313.05 78.66 311.8 83.12 310.5 M 83.12 310.5 C 83.4 312.25 82.29 313.33 83.12 317.5 M 83.12 310.5 C 83.75 313.02 82.91 314.66 83.12 317.5 M 83.12 317.5 C 80.34 315.63 79.83 315.65 76.12 314 M 83.12 317.5 C 80.18 316.53 76.95 314.25 76.12 314" fill="none" stroke="#16a34a" stroke-linejoin="round" stroke-linecap="round" stroke-miterlimit="10" pointer-events="all"/><g fill="#16a34a" font-family="Helvetica" text-anchor="middle" font-size="10px"><rect fill="#ffffff" stroke="none" x="158" y="309" width="105" height="13" stroke-width="0"/><text x="209.5" y="317.5">7 · issue session / JWT</text></g><rect x="0" y="346" width="690" height="48" rx="2.88" ry="2.88" fill="none" stroke="none" pointer-events="all"/><path d="M 0.26 348.58 C 0.26 348.58 0.26 348.58 0.26 348.58 M 0.26 348.58 C 0.26 348.58 0.26 348.58 0.26 348.58 M 0 354.97 C 0.69 353.02 4.73 350.01 5.91 348.18 M 0 354.97 C 2 352.54 2.53 351.13 5.91 348.18 M -0.26 361.37 C -0.15 356.01 6.18 356.19 10.89 348.54 M -0.26 361.37 C 2.12 358.59 5.79 355.52 10.89 348.54 M 0.14 367.02 C 10.32 358.03 10.41 351.53 16.54 348.15 M 0.14 367.02 C 6.46 362.23 11.09 355.71 16.54 348.15 M -0.13 373.41 C 7.56 366.01 10.4 362.59 21.52 348.51 M -0.13 373.41 C 7.07 368.01 12.16 362.14 21.52 348.51 M 0.27 379.06 C 7.89 369.23 14.5 362.55 27.17 348.11 M 0.27 379.06 C 5.68 372.01 10.47 366.63 27.17 348.11 M 0.01 385.45 C 12.41 372.06 23.83 357.91 32.15 348.47 M 0.01 385.45 C 10.84 373.35 21.55 358.84 32.15 348.47 M 0.4 391.1 C 15.07 376.19 22.52 365.54 37.8 348.08 M 0.4 391.1 C 9.15 380.89 19.75 367.22 37.8 348.08 M 2.76 394.48 C 11.65 379.1 26.67 368.13 42.78 348.44 M 2.76 394.48 C 13.39 382.39 25.61 366.82 42.78 348.44 M 8.41 394.08 C 18.35 384.84 30.61 367.21 47.77 348.8 M 8.41 394.08 C 21.6 378.36 33.28 361.82 47.77 348.8 M 13.39 394.44 C 25.01 383.83 33.08 370.35 53.41 348.4 M 13.39 394.44 C 27.72 379.92 43.12 363.65 53.41 348.4 M 19.04 394.05 C 26.12 380.52 40.17 375.03 58.4 348.76 M 19.04 394.05 C 32.45 379.66 42.27 368.19 58.4 348.76 M 24.02 394.41 C 32.61 381.01 43.65 372.05 64.04 348.37 M 24.02 394.41 C 40.27 374.34 54.47 356.03 64.04 348.37 M 29.67 394.01 C 46.73 376.68 56.24 365.93 69.03 348.73 M 29.67 394.01 C 46.04 376.25 60.13 363.22 69.03 348.73 M 34.65 394.37 C 45.51 383.91 53.08 370.73 74.67 348.34 M 34.65 394.37 C 49.32 379.11 63.04 360.5 74.67 348.34 M 40.3 393.98 C 52.29 379.45 63.22 367.44 79.66 348.7 M 40.3 393.98 C 54.23 379.27 67.44 366.13 79.66 348.7 M 45.28 394.34 C 57.24 373.38 72.57 361.39 85.3 348.3 M 45.28 394.34 C 57.54 380.19 70.61 367.09 85.3 348.3 M 50.93 393.94 C 62.36 387.99 64.84 370.77 90.29 348.66 M 50.93 393.94 C 65.19 380.33 76.79 362.94 90.29 348.66 M 55.91 394.3 C 65.66 383.26 75.73 364.98 95.93 348.27 M 55.91 394.3 C 66.04 382.24 75.26 371.37 95.93 348.27 M 61.56 393.91 C 74.75 384.63 83.07 373.41 100.92 348.63 M 61.56 393.91 C 72.54 381.96 78.43 372.69 100.92 348.63 M 66.54 394.27 C 80.66 379.74 98.25 359.89 106.56 348.23 M 66.54 394.27 C 78.17 379.21 91.32 367.23 106.56 348.23 M 72.19 393.87 C 86.36 378.35 95.23 365.29 111.55 348.59 M 72.19 393.87 C 80.64 382.84 88.95 375.81 111.55 348.59 M 77.17 394.23 C 88.74 375.24 102.5 360.89 117.19 348.2 M 77.17 394.23 C 90.18 379.4 99.88 366.9 117.19 348.2 M 82.82 393.84 C 94.5 377.25 111.03 366.61 122.18 348.56 M 82.82 393.84 C 92.74 381.41 104 370.58 122.18 348.56 M 87.81 394.2 C 104.41 377.7 112.92 357.79 127.82 348.16 M 87.81 394.2 C 98.4 381.95 108.13 370.52 127.82 348.16 M 93.45 393.81 C 106.02 379.93 113.87 376.75 132.81 348.52 M 93.45 393.81 C 107.08 376.81 122.08 359.39 132.81 348.52 M 98.44 394.17 C 114.53 381.68 124.36 361.55 138.45 348.13 M 98.44 394.17 C 115.75 375.95 129.73 360.56 138.45 348.13 M 104.08 393.77 C 115.54 375.55 130.65 358.72 143.44 348.49 M 104.08 393.77 C 117.16 383.09 125.13 369.57 143.44 348.49 M 109.07 394.13 C 114.25 380.9 126.02 373.43 149.08 348.09 M 109.07 394.13 C 123.57 377.38 136.7 364.23 149.08 348.09 M 114.05 394.49 C 122.85 383.72 134.22 370.73 154.07 348.45 M 114.05 394.49 C 126.63 381.18 136.92 367.35 154.07 348.45 M 119.7 394.1 C 130.6 381.04 136.91 373.74 159.06 348.81 M 119.7 394.1 C 131.55 381.53 143.21 367.45 159.06 348.81 M 124.68 394.46 C 137.18 376.01 153.9 361.19 164.7 348.42 M 124.68 394.46 C 135.57 379.19 149.34 365.96 164.7 348.42 M 130.33 394.06 C 147.6 379.68 159.46 358.55 169.69 348.78 M 130.33 394.06 C 140.29 382.35 148.78 372.41 169.69 348.78 M 135.31 394.42 C 147.64 379.46 163.76 359.92 175.33 348.39 M 135.31 394.42 C 149.55 377.58 164.17 360.55 175.33 348.39 M 140.96 394.03 C 157.08 375.75 169.73 360.15 180.32 348.75 M 140.96 394.03 C 150.25 382.73 158.2 373.71 180.32 348.75 M 145.94 394.39 C 158.41 382.5 168.74 369.76 185.96 348.35 M 145.94 394.39 C 157.72 377.87 170.55 365.86 185.96 348.35 M 151.59 393.99 C 163.5 380.88 182.44 364.23 190.95 348.71 M 151.59 393.99 C 162.55 381.17 178.94 366.45 190.95 348.71 M 156.57 394.35 C 166.45 378.42 178.65 371.3 196.59 348.32 M 156.57 394.35 C 170.04 374.98 186.33 358.93 196.59 348.32 M 162.22 393.96 C 168.85 386.85 176.02 379.07 201.58 348.68 M 162.22 393.96 C 178.99 377.46 193.31 358.81 201.58 348.68 M 167.2 394.32 C 183.37 379.99 193.98 356.82 207.22 348.28 M 167.2 394.32 C 177.71 382.62 190.59 367.17 207.22 348.28 M 172.85 393.92 C 183.88 381.24 195.42 372.62 212.21 348.64 M 172.85 393.92 C 187.61 379.12 199.68 363.84 212.21 348.64 M 177.83 394.28 C 195.66 374.48 210.21 361.92 217.85 348.25 M 177.83 394.28 C 186.3 383.92 200.66 368.26 217.85 348.25 M 183.48 393.89 C 195.69 377.16 204.36 366.86 222.84 348.61 M 183.48 393.89 C 195.05 380.95 204.9 367.55 222.84 348.61 M 188.46 394.25 C 206.35 373.82 215.37 357.9 228.48 348.21 M 188.46 394.25 C 202.92 378.41 219.4 361.45 228.48 348.21 M 194.11 393.86 C 205.7 373.32 222.79 358.29 233.47 348.57 M 194.11 393.86 C 201.94 384.13 211.79 372.54 233.47 348.57 M 199.09 394.22 C 211.83 372.81 226.95 358.55 239.11 348.18 M 199.09 394.22 C 213.34 376.6 228.24 362.69 239.11 348.18 M 204.74 393.82 C 212.99 383.31 226.57 369.78 244.1 348.54 M 204.74 393.82 C 215.9 383.43 228.04 368.66 244.1 348.54 M 209.72 394.18 C 220.68 385.36 226.67 374.2 249.74 348.14 M 209.72 394.18 C 218.45 383.05 231.64 368.68 249.74 348.14 M 215.37 393.79 C 229.63 378.64 238.26 368.91 254.73 348.5 M 215.37 393.79 C 228.85 382.01 239.72 369.41 254.73 348.5 M 220.35 394.15 C 232.41 386.62 239.26 369.65 260.37 348.11 M 220.35 394.15 C 237.76 375.27 252.69 359.2 260.37 348.11 M 225.34 394.51 C 241.06 382.44 252.31 363.18 265.36 348.47 M 225.34 394.51 C 234.82 383.5 245.03 374.28 265.36 348.47 M 230.98 394.11 C 245.14 374.04 256.12 357.42 271 348.07 M 230.98 394.11 C 242.22 383.62 253.78 367.62 271 348.07 M 235.97 394.47 C 244.72 384.3 260.56 372.15 275.99 348.43 M 235.97 394.47 C 243.19 384.85 254.94 373.75 275.99 348.43 M 241.61 394.08 C 252.07 376.98 267.55 364.21 280.98 348.79 M 241.61 394.08 C 251.12 384.39 257.51 377.08 280.98 348.79 M 246.6 394.44 C 256.43 381.21 263.9 376.57 286.62 348.4 M 246.6 394.44 C 257.01 384.12 264.55 369.55 286.62 348.4 M 252.24 394.04 C 267.14 379.21 277.34 367.06 291.61 348.76 M 252.24 394.04 C 263.55 382.64 270.54 372.22 291.61 348.76 M 257.23 394.4 C 265.09 385.58 278.17 377.56 297.25 348.37 M 257.23 394.4 C 269.75 382.14 281.14 368.63 297.25 348.37 M 262.87 394.01 C 274.99 379.13 287.4 372.33 302.24 348.73 M 262.87 394.01 C 272.61 380.42 285.18 368.74 302.24 348.73 M 267.86 394.37 C 281.78 378.79 299.44 363.75 307.88 348.33 M 267.86 394.37 C 283.73 376.42 298.81 360.26 307.88 348.33 M 273.5 393.97 C 286.6 377.91 302.11 362.93 312.87 348.69 M 273.5 393.97 C 283.22 384.09 293.56 369.29 312.87 348.69 M 278.49 394.33 C 290.21 385.83 298.45 375.74 318.51 348.3 M 278.49 394.33 C 291.56 379.4 303.85 364.06 318.51 348.3 M 284.13 393.94 C 300.53 380.35 309.8 364.23 323.5 348.66 M 284.13 393.94 C 292.48 385.01 299.96 374.01 323.5 348.66 M 289.12 394.3 C 297.48 383.05 307.44 371.14 329.14 348.26 M 289.12 394.3 C 298.41 383.81 305.06 376.33 329.14 348.26 M 294.76 393.9 C 311.14 373.93 326.34 357.36 334.13 348.62 M 294.76 393.9 C 306.92 377.44 321.91 364.83 334.13 348.62 M 299.75 394.26 C 309.77 379.17 327.78 364.32 339.77 348.23 M 299.75 394.26 C 311.41 382.08 327.15 366.1 339.77 348.23 M 305.39 393.87 C 318.82 377.55 337.9 360.59 344.76 348.59 M 305.39 393.87 C 316.09 380.33 324.17 370.95 344.76 348.59 M 310.38 394.23 C 319.14 379.11 336.76 368.37 350.4 348.19 M 310.38 394.23 C 325.01 375.74 340.08 360.76 350.4 348.19 M 316.02 393.84 C 327.25 378.93 341.91 360.17 355.39 348.55 M 316.02 393.84 C 329.99 375.89 347.5 357.56 355.39 348.55 M 321.01 394.2 C 330.28 379.74 342.37 369.07 361.03 348.16 M 321.01 394.2 C 333.17 382.85 343.23 369.22 361.03 348.16 M 326.65 393.8 C 336.2 381.72 344.07 371 366.02 348.52 M 326.65 393.8 C 342.09 378.46 356.5 361.66 366.02 348.52 M 331.64 394.16 C 345.42 379.33 356.22 370.87 371.66 348.12 M 331.64 394.16 C 343.03 383.34 351.14 370.68 371.66 348.12 M 336.63 394.52 C 352.55 383.44 365.18 367.7 376.65 348.48 M 336.63 394.52 C 348.15 380.82 357.91 372.32 376.65 348.48 M 342.27 394.13 C 349.89 382.93 359.06 377.39 382.29 348.09 M 342.27 394.13 C 357.85 377.25 372.4 358.68 382.29 348.09 M 347.26 394.49 C 358.56 373.04 373.17 362.76 387.28 348.45 M 347.26 394.49 C 358.2 381.14 368.09 367.94 387.28 348.45 M 352.9 394.09 C 364.57 380.33 373.11 368.06 392.26 348.81 M 352.9 394.09 C 367.38 378 379.77 361.61 392.26 348.81 M 357.89 394.45 C 368.66 378.27 384.68 367.12 397.91 348.42 M 357.89 394.45 C 369.87 382.29 379.62 369.19 397.91 348.42 M 363.53 394.06 C 375.42 381.99 388.2 366.82 402.89 348.78 M 363.53 394.06 C 377.81 378.72 389.1 365.44 402.89 348.78 M 368.52 394.42 C 385.65 377.96 400.6 360.26 408.54 348.38 M 368.52 394.42 C 382.38 378.85 398.39 358.82 408.54 348.38 M 374.16 394.02 C 387.69 382.58 395.08 375.58 413.52 348.74 M 374.16 394.02 C 388.17 375.29 406.26 358.53 413.52 348.74 M 379.15 394.38 C 388.17 383.66 405.72 366.21 419.17 348.35 M 379.15 394.38 C 393.7 377.4 404.98 361.93 419.17 348.35 M 384.79 393.99 C 395.95 381.62 407.91 365.82 424.16 348.71 M 384.79 393.99 C 395.24 383.9 401.31 373.63 424.16 348.71 M 389.78 394.35 C 398.12 378.2 416.14 364.28 429.8 348.31 M 389.78 394.35 C 400.79 379.92 414.88 369.12 429.8 348.31 M 395.42 393.95 C 405.94 382.09 418.24 364.02 434.79 348.67 M 395.42 393.95 C 408.83 380.55 418.76 364.71 434.79 348.67 M 400.41 394.31 C 412.01 382.26 422.66 366.29 440.43 348.28 M 400.41 394.31 C 415.7 378.01 426.61 360.51 440.43 348.28 M 406.05 393.92 C 422.42 377.57 434.61 360.13 445.42 348.64 M 406.05 393.92 C 420.5 375.83 439.28 358.76 445.42 348.64 M 411.04 394.28 C 419.16 380.62 436.92 366.56 451.06 348.24 M 411.04 394.28 C 425.13 376.66 437.3 363.37 451.06 348.24 M 416.68 393.89 C 434.26 376.91 447.79 361.81 456.05 348.6 M 416.68 393.89 C 433.42 377.7 448.96 356.79 456.05 348.6 M 421.67 394.25 C 431.49 381.94 445.25 368.75 461.69 348.21 M 421.67 394.25 C 437.05 377.26 453.25 360.08 461.69 348.21 M 427.31 393.85 C 436.78 382.17 457.04 359.86 466.68 348.57 M 427.31 393.85 C 438.18 380.63 451.23 368.48 466.68 348.57 M 432.3 394.21 C 438.36 386.14 447.47 378.18 472.32 348.17 M 432.3 394.21 C 440.22 385.01 449.52 374.57 472.32 348.17 M 437.94 393.82 C 454.72 376.05 465.04 359.15 477.31 348.53 M 437.94 393.82 C 448.23 383.48 458.18 372.57 477.31 348.53 M 442.93 394.18 C 456.63 380.63 462.97 371.91 482.95 348.14 M 442.93 394.18 C 454.52 382.31 464.21 368.24 482.95 348.14 M 448.57 393.78 C 454.3 381.83 466.17 372.08 487.94 348.5 M 448.57 393.78 C 461.33 378.37 472.26 364.28 487.94 348.5 M 453.56 394.14 C 465.22 384.9 477.25 371.88 493.58 348.1 M 453.56 394.14 C 466.47 379.36 478 366.46 493.58 348.1 M 458.55 394.5 C 472.33 377.92 491.35 357.19 498.57 348.46 M 458.55 394.5 C 471.7 380.47 482.6 364.38 498.57 348.46 M 464.19 394.11 C 473.04 380.72 489.87 369.36 504.21 348.07 M 464.19 394.11 C 473.99 385.19 482.93 372.12 504.21 348.07 M 469.18 394.47 C 482.49 378.61 494.22 359.95 509.2 348.43 M 469.18 394.47 C 480.42 380.1 494.42 366.65 509.2 348.43 M 474.82 394.07 C 485.88 375.78 501.12 362.62 514.18 348.79 M 474.82 394.07 C 489.12 376.47 504.82 358.18 514.18 348.79 M 479.81 394.43 C 488.25 383.06 496.64 369.14 519.83 348.4 M 479.81 394.43 C 496.79 378.53 511.75 360.73 519.83 348.4 M 485.45 394.04 C 502.64 377.7 513.09 364.16 524.81 348.76 M 485.45 394.04 C 494.27 384.15 504.63 371.67 524.81 348.76 M 490.44 394.4 C 500.67 378.58 513.99 366.61 530.46 348.36 M 490.44 394.4 C 500.18 383.08 510.37 371.14 530.46 348.36 M 496.08 394 C 508.91 378.88 518.05 368.72 535.44 348.72 M 496.08 394 C 507.38 380.94 517.77 369 535.44 348.72 M 501.07 394.36 C 514.22 379.91 527.09 366.57 541.09 348.33 M 501.07 394.36 C 510.86 384.53 516.95 371.88 541.09 348.33 M 506.71 393.97 C 518.54 385.03 528.71 375.28 546.07 348.69 M 506.71 393.97 C 520.09 379.37 529.85 365.37 546.07 348.69 M 511.7 394.33 C 520.61 384.12 540.09 362.3 551.72 348.29 M 511.7 394.33 C 521.18 381.77 536.16 365.7 551.72 348.29 M 517.34 393.94 C 532.57 380.02 540.99 364.61 556.7 348.65 M 517.34 393.94 C 528.88 379.05 543.14 362.47 556.7 348.65 M 522.33 394.3 C 534.96 380.1 546.59 364.19 562.35 348.26 M 522.33 394.3 C 530.55 385.22 537.66 373.67 562.35 348.26 M 527.97 393.9 C 544.75 379.35 551.75 366.41 567.33 348.62 M 527.97 393.9 C 543.03 379.59 552.64 361.9 567.33 348.62 M 532.96 394.26 C 549.31 373.88 567.21 357.75 572.98 348.22 M 532.96 394.26 C 548 376.16 562.68 358.38 572.98 348.22 M 538.6 393.87 C 545.82 383.11 558.88 374.58 577.96 348.58 M 538.6 393.87 C 546.95 383.15 556.48 372.31 577.96 348.58 M 543.59 394.23 C 561.26 380.1 570.15 364.78 583.61 348.19 M 543.59 394.23 C 553.92 382.61 561.73 372.78 583.61 348.19 M 549.23 393.83 C 562.46 381.45 580.02 363.19 588.59 348.55 M 549.23 393.83 C 561.74 380.53 569.26 369.84 588.59 348.55 M 554.22 394.19 C 559.51 386.16 572.79 376.62 594.24 348.15 M 554.22 394.19 C 562.33 384.28 572.92 373.68 594.24 348.15 M 559.86 393.8 C 573.31 374.69 589.21 363.31 599.22 348.51 M 559.86 393.8 C 573.82 376.95 590.88 357.56 599.22 348.51 M 564.85 394.16 C 572.16 382.83 581.97 372.04 604.87 348.12 M 564.85 394.16 C 574.29 385.17 583.3 371.46 604.87 348.12 M 569.83 394.52 C 586.3 379.28 597.81 364 609.85 348.48 M 569.83 394.52 C 584.06 376.36 596.13 363.02 609.85 348.48 M 575.48 394.12 C 586.37 380.48 597.68 373.8 615.5 348.09 M 575.48 394.12 C 586.98 380.2 597.99 364.42 615.5 348.09 M 580.46 394.48 C 596.14 377.1 607.41 364.04 620.48 348.45 M 580.46 394.48 C 595.17 377.36 612.53 358.5 620.48 348.45 M 586.11 394.09 C 600.85 381.49 613.25 366.21 625.47 348.81 M 586.11 394.09 C 596.13 385.17 602.47 371.94 625.47 348.81 M 591.09 394.45 C 598.56 384.55 605.37 374.63 631.11 348.41 M 591.09 394.45 C 605.98 379.86 616.52 366.97 631.11 348.41 M 596.74 394.05 C 605.42 380.23 615.95 371.89 636.1 348.77 M 596.74 394.05 C 609.99 382.29 621.06 365.95 636.1 348.77 M 601.72 394.41 C 612.68 374.79 630.27 362.75 641.74 348.38 M 601.72 394.41 C 612.53 379.5 625.43 365.52 641.74 348.38 M 607.37 394.02 C 621.1 382.19 629.43 368.5 646.73 348.74 M 607.37 394.02 C 617.38 382.48 632.26 368.68 646.73 348.74 M 612.35 394.38 C 622.38 383.28 629.51 371.99 652.37 348.34 M 612.35 394.38 C 625.96 377.93 639.63 362.4 652.37 348.34 M 618 393.98 C 630.34 376.76 641.25 365.43 657.36 348.7 M 618 393.98 C 625.13 384.23 634.63 374.9 657.36 348.7 M 622.98 394.34 C 638.17 381.97 645.2 365.2 663 348.31 M 622.98 394.34 C 637.9 375.41 655.9 360.96 663 348.31 M 628.63 393.95 C 638.81 380.36 652.23 360.49 667.99 348.67 M 628.63 393.95 C 638.97 381.78 651.37 367.68 667.99 348.67 M 633.61 394.31 C 649.52 379.06 658.44 368.12 673.63 348.27 M 633.61 394.31 C 643.71 379.41 658.71 367.69 673.63 348.27 M 639.26 393.92 C 653.17 377.07 666.19 357.11 678.62 348.63 M 639.26 393.92 C 650.86 381.07 662.13 366.15 678.62 348.63 M 644.24 394.28 C 652.81 383.26 669.35 370.64 684.26 348.24 M 644.24 394.28 C 652.78 382.77 662.48 373.8 684.26 348.24 M 649.89 393.88 C 666.24 377.14 679.49 363.07 689.91 347.84 M 649.89 393.88 C 661.62 378.77 677.41 360.52 689.91 347.84 M 654.87 394.24 C 665.67 385.56 674.56 368.83 692.27 351.22 M 654.87 394.24 C 669.27 378.27 683.37 362.23 692.27 351.22 M 660.52 393.85 C 666.13 386.48 682.73 374.08 692.66 356.87 M 660.52 393.85 C 669.17 381.69 679.91 373.8 692.66 356.87 M 665.5 394.21 C 671.12 387.17 679.96 382 692.4 363.26 M 665.5 394.21 C 676.57 382.2 687.53 368.98 692.4 363.26 M 671.15 393.81 C 676.86 385.33 681.56 380.92 692.14 369.66 M 671.15 393.81 C 675.38 387.65 682.78 379.22 692.14 369.66 M 676.13 394.17 C 683.6 385.29 685.29 381.86 692.54 375.3 M 676.13 394.17 C 681.62 388.97 684.07 381.03 692.54 375.3 M 681.78 393.78 C 680.78 392.32 687.54 388.52 692.27 381.7 M 681.78 393.78 C 686.52 388.47 689.15 383.68 692.27 381.7 M 686.76 394.14 C 688.72 390.8 689.44 390.28 692.67 387.35 M 686.76 394.14 C 687.36 392.72 689.75 389.97 692.67 387.35" fill="none" stroke="#eef2ff" stroke-width="0.5" stroke-linejoin="round" stroke-linecap="round" stroke-miterlimit="10" pointer-events="all"/><path d="M 2.88 346 M 2.88 346 C 221.79 343.36 441.33 342.75 687.12 346 M 2.88 346 C 148.53 344.13 294.79 344.8 687.12 346 M 687.12 346 C 691.11 349.95 688.66 345.45 690 348.88 M 687.12 346 C 692.12 349.47 691.66 343.88 690 348.88 M 690 348.88 C 692.8 366.52 686.92 374.85 690 391.12 M 690 348.88 C 689.07 365.19 689.21 380.01 690 391.12 M 690 391.12 C 689.82 389.83 693.01 393.06 687.12 394 M 690 391.12 C 692.67 397.23 688.02 391.27 687.12 394 M 687.12 394 C 542.29 392.29 398.43 392.51 2.88 394 M 687.12 394 C 527.17 397.5 369.11 398.05 2.88 394 M 2.88 394 C 4.08 392.67 0.98 390.17 0 391.12 M 2.88 394 C 3.6 393.82 -3.35 391.07 0 391.12 M 0 391.12 C 2.58 375.72 -3.86 356.09 0 348.88 M 0 391.12 C -1.1 377.23 -0.91 364.41 0 348.88 M 0 348.88 C -0.01 346.82 -2 344.35 2.88 346 M 0 348.88 C 3.31 348.11 -1.09 342.3 2.88 346" fill="none" stroke="#4f46e5" stroke-linejoin="round" stroke-linecap="round" stroke-miterlimit="10" pointer-events="all"/><g transform="translate(-0.5 -0.5)"><switch><foreignObject pointer-events="none" width="100%" height="100%" requiredFeatures="http://www.w3.org/TR/SVG11/feature#Extensibility" style="overflow: visible; text-align: left;"><div xmlns="http://www.w3.org/1999/xhtml" style="display: flex; align-items: unsafe center; justify-content: unsafe center; width: 688px; height: 1px; padding-top: 370px; margin-left: 1px;"><div data-drawio-colors="color: #1e1b4b; " style="box-sizing: border-box; font-size: 0px; text-align: center;"><div style="display: inline-block; font-size: 10px; font-family: Helvetica; color: rgb(30, 27, 75); line-height: 1.2; pointer-events: all; white-space: normal; overflow-wrap: normal;">Possession of the inbox is the proof. The code/link must be single-use, short-lived, rate-limited on both send and verify, and compared in constant time - otherwise the 6-digit space is brute-forceable.</div></div></div></foreignObject><text x="345" y="373" fill="#1e1b4b" font-family="Helvetica" font-size="10px" text-anchor="middle">Possession of the inbox is the proof. The code/link must be single-use, short-lived, rate-limited on both send and verify, and compared in...</text></switch></g></g><switch><g requiredFeatures="http://www.w3.org/TR/SVG11/feature#Extensibility"/><a transform="translate(0,-5)" xlink:href="https://www.diagrams.net/doc/faq/svg-export-text-problems" target="_blank"><text text-anchor="middle" font-size="10px" x="50%" y="100%">Text is not SVG - cannot display</text></a></switch></svg>